<svg width="151" height="121" viewBox="0 0 151 121" fill="none" xmlns="http://www.w3.org/2000/svg">
<path opacity="0.943" fill-rule="evenodd" clip-rule="evenodd" d="M32.287 21.5096C55.6269 21.4606 78.9669 21.5096 102.307 21.656C104.308 22.0955 105.529 23.3163 105.969 25.3182C106.115 29.2231 106.164 33.1296 106.115 37.0369C112.756 36.988 119.397 37.0369 126.037 37.1834C128.054 37.7377 129.666 38.8606 130.871 40.5525C135.656 48.4627 140.441 56.3728 145.226 64.283C145.561 68.4631 145.707 72.6622 145.666 76.8807C145.707 81.0991 145.561 85.2982 145.226 89.4783C144.222 91.9477 142.415 93.4615 139.807 94.0193C137.758 94.1658 135.707 94.2144 133.654 94.1658C132.169 100.384 128.214 103.705 121.789 104.127C115.46 103.655 111.407 100.384 109.631 94.3123C95.471 94.1658 81.3106 94.1169 67.1503 94.1658C65.5293 100.306 61.5256 103.626 55.1385 104.127C48.9475 103.598 44.9435 100.375 43.1268 94.4588C39.5174 94.2147 35.9043 94.0683 32.287 94.0193C30.702 93.5087 29.5789 92.4833 28.9178 90.9432C28.7714 73.5607 28.7225 56.1777 28.7714 38.7947C24.4734 38.8436 20.1765 38.7947 15.8807 38.6482C13.8802 36.9408 13.9779 35.3781 16.1737 33.9607C20.3718 33.8142 24.571 33.7653 28.7714 33.8142C28.7226 30.8828 28.7714 27.9531 28.9178 25.0252C29.5093 23.3113 30.6323 22.1394 32.287 21.5096ZM33.7518 26.49C56.2129 26.49 78.6736 26.49 101.135 26.49C101.135 47.3884 101.135 68.287 101.135 89.1853C89.8064 89.1853 78.4785 89.1853 67.1503 89.1853C64.7939 81.4612 59.618 78.3851 51.6229 79.9568C47.2468 81.4524 44.4147 84.4308 43.1268 88.8924C40.0079 89.1851 36.8828 89.2826 33.7518 89.1853C33.7518 72.3886 33.7518 55.5915 33.7518 38.7947C40.3931 38.7458 47.0339 38.7947 53.6737 38.9412C50.4021 42.2128 47.1308 45.4841 43.8592 48.7557C43.2944 50.5073 43.8314 51.7281 45.4706 52.4178C54.2596 52.6132 63.0487 52.6132 71.8378 52.4178C73.5859 51.9364 74.2208 50.8135 73.7421 49.0486C73.5121 48.5254 73.1705 48.0859 72.7167 47.7303C65.8808 47.6327 59.0447 47.5349 52.2089 47.4373C55.3826 44.2636 58.5566 41.0895 61.7303 37.9158C62.405 36.5863 62.2586 35.3655 61.2909 34.2537C52.1295 33.8207 42.9499 33.6742 33.7518 33.8142C33.7518 31.3729 33.7518 28.9313 33.7518 26.49ZM106.115 42.0174C112.463 41.9684 118.811 42.0174 125.158 42.1639C126.094 42.6604 126.778 43.3929 127.209 44.3611C123.111 44.6052 119.009 44.7517 114.904 44.8006C113.258 45.177 112.33 46.2024 112.121 47.8767C111.926 53.2477 111.926 58.619 112.121 63.99C112.441 66.1428 113.661 67.4611 115.783 67.9451C124.083 68.0916 132.384 68.1405 140.685 68.0916C140.734 74.5378 140.685 80.9831 140.539 87.4275C140.197 88.16 139.66 88.697 138.928 89.0389C137.172 89.1851 135.415 89.234 133.654 89.1853C132.129 83.0222 128.174 79.7995 121.789 79.5174C115.404 79.7995 111.449 83.0222 109.924 89.1853C108.654 89.1853 107.385 89.1853 106.115 89.1853C106.115 73.4626 106.115 57.7401 106.115 42.0174ZM116.955 49.6346C121.448 49.5856 125.94 49.6346 130.432 49.781C133.166 54.1756 135.9 58.5701 138.635 62.9646C131.409 63.1111 124.182 63.16 116.955 63.1111C116.955 58.619 116.955 54.1267 116.955 49.6346ZM53.3807 84.4978C59.5272 84.2479 62.5055 87.1776 62.3163 93.2869C60.5347 98.1569 57.1656 99.8661 52.2089 98.4139C47.5574 95.384 46.7274 91.5265 49.7186 86.8416C50.7941 85.7936 52.0149 85.0123 53.3807 84.4978ZM120.178 84.4978C124.372 84.1281 127.253 85.8859 128.82 89.7713C129.281 96.4392 126.205 99.4179 119.592 98.7068C114.736 96.3493 113.418 92.6872 115.637 87.7205C116.856 86.1648 118.37 85.0908 120.178 84.4978Z" fill="#1974BF"/>
<path opacity="0.916" fill-rule="evenodd" clip-rule="evenodd" d="M9.14268 45.24C13.0501 45.1911 16.9564 45.24 20.8614 45.3865C22.8852 47.0834 22.7875 48.6461 20.5685 50.074C16.8575 50.2694 13.1466 50.2694 9.43564 50.074C7.24345 48.5831 7.1458 46.9718 9.14268 45.24Z" fill="#1974BF"/>
<path opacity="0.957" fill-rule="evenodd" clip-rule="evenodd" d="M15.8813 55.7868C18.8126 55.7382 21.7423 55.7868 24.6704 55.9333C26.1405 57.0237 26.3846 58.3421 25.4028 59.8883C25.183 60.0717 24.9388 60.2182 24.6704 60.3278C21.7407 60.5232 18.811 60.5232 15.8813 60.3278C13.9719 58.8208 13.9719 57.307 15.8813 55.7868Z" fill="#1974BF"/>
<path opacity="0.914" fill-rule="evenodd" clip-rule="evenodd" d="M9.14204 66.9197C13.0495 66.8708 16.9558 66.9197 20.8608 67.0662C22.8846 68.7631 22.7869 70.3258 20.5678 71.7537C16.8569 71.9491 13.146 71.9491 9.43501 71.7537C7.1967 70.2771 7.09903 68.6658 9.14204 66.9197Z" fill="#1974BF"/>
</svg>
