<svg width="30" height="31" viewBox="0 0 30 31" fill="none" xmlns="http://www.w3.org/2000/svg">
<path fill-rule="evenodd" clip-rule="evenodd" d="M9.72951 21.8C9.84951 21.78 9.94951 21.72 9.96951 21.62C10.0195 21.4 9.70951 20.93 9.27951 20.1C8.85951 19.26 8.33951 18.06 8.19951 16.64C8.06951 15.22 8.33951 13.57 8.76951 12.1C9.18951 10.62 9.77951 9.30004 10.7995 8.23004C11.8095 7.17004 13.2495 6.35004 14.6095 5.83004C15.9695 5.30004 17.2495 5.07004 18.5095 5.18004C19.7695 5.30004 21.0095 5.78004 21.9595 6.29004C22.9195 6.80004 23.5795 7.36004 24.0495 7.72004C24.5195 8.08004 24.7995 8.26004 24.9295 8.12004C24.9995 8.05004 25.0295 7.89004 25.0295 7.70004C23.1995 5.34004 20.2395 3.99004 16.9395 4.35004C11.4895 4.94004 7.15951 9.94004 7.25951 15.51C7.30951 18.01 8.22951 20.2 9.72951 21.8Z" fill="#1974BF"/>
<path fill-rule="evenodd" clip-rule="evenodd" d="M23.5697 5.6C22.9797 5.11 22.2097 4.52 21.4797 4.03C20.5098 3.37 19.5897 2.9 18.7197 2.55C17.8397 2.21 16.9998 1.99 16.0298 1.92C15.0698 1.85 13.9797 1.93 12.9497 2.17C11.9198 2.41 10.9597 2.81 10.0797 3.32C9.19975 3.82 8.40975 4.44 7.76975 5.08C7.11975 5.73 6.61975 6.41 6.17975 7.08C5.74975 7.75 5.38975 8.41 5.09975 9.11C4.81975 9.82 4.61975 10.56 4.49975 11.34C4.37975 12.12 4.34975 12.95 4.38975 13.65C4.41975 14.35 4.53975 14.93 4.69975 15.49C4.84975 16.06 5.04975 16.61 5.33975 17.19C5.61975 17.76 5.97975 18.37 6.52975 19.07C7.06975 19.77 7.79975 20.57 8.24975 21.05C8.57975 21.39 8.76975 21.57 8.96975 21.67C7.80975 20.26 7.04975 18.49 6.82975 16.49C6.79975 16.18 6.77975 15.85 6.76975 15.52C6.71975 12.61 7.81975 9.85 9.64975 7.74C11.4797 5.63 14.0397 4.17 16.8797 3.86C17.1897 3.83 17.4997 3.81 17.8097 3.8C19.9797 3.76 21.9697 4.43 23.5697 5.6Z" fill="#1974BF"/>
<path fill-rule="evenodd" clip-rule="evenodd" d="M16.9395 4.35006C22.3795 3.76006 26.8695 7.80006 26.9695 13.3701C27.0695 18.9401 22.7395 23.9401 17.2995 24.5301C11.8495 25.1201 7.35951 21.0801 7.25951 15.5101C7.15951 9.94006 11.4895 4.94006 16.9395 4.35006ZM16.9595 5.80006C21.6195 5.29006 25.4695 8.75006 25.5495 13.5201C25.6395 18.3001 21.9295 22.5701 17.2695 23.0801C12.6095 23.5901 8.76951 20.1301 8.67951 15.3601C8.58951 10.5801 12.2995 6.30006 16.9595 5.80006Z" fill="#1974BF"/>
<path fill-rule="evenodd" clip-rule="evenodd" d="M17.0194 6.32998C21.3694 5.85998 24.9594 9.08998 25.0394 13.54C25.0794 15.8 24.2094 17.94 22.7694 19.56V19.43C22.6794 19.43 22.5794 19.25 22.4094 19.13C22.1994 18.97 21.9294 18.86 22.0294 18.74C23.2194 17.36 23.9394 15.56 23.8994 13.66C23.8394 9.84998 20.7594 7.08998 17.0394 7.48998C13.3194 7.88998 10.3594 11.31 10.4194 15.13C10.4494 16.44 10.8294 17.64 11.4694 18.62H11.3894L11.3594 18.68H11.3194V18.78C11.2394 18.78 11.3094 18.81 11.2294 18.81H11.1894V18.85C11.1294 18.85 11.1594 18.87 11.1294 18.88C11.0994 18.89 11.1394 18.85 11.0294 18.91L10.9594 18.94H10.9494C10.8894 18.96 10.9494 18.97 10.8194 18.97H10.7894V19.07L10.7494 19.11L10.6394 19.06L10.6694 19.13L10.5694 19.21L10.5394 19.27C10.4994 19.27 10.4994 19.28 10.4894 19.28C9.75945 18.15 9.31945 16.77 9.28945 15.25C9.20945 10.79 12.6694 6.79998 17.0194 6.32998Z" fill="#1974BF"/>
<path fill-rule="evenodd" clip-rule="evenodd" d="M12.9995 24.62C13.1195 24.78 13.4695 25.16 13.6395 25.34C13.8095 25.53 13.8095 25.53 14.1595 25.55C14.5095 25.56 15.2195 25.59 15.5695 25.6C15.9195 25.62 15.9195 25.62 16.2995 25.53C16.6895 25.43 17.4595 25.25 17.8395 25.16C18.2295 25.07 18.2295 25.07 18.2295 25.01C18.2295 24.95 18.2295 24.84 18.2295 24.78C18.2295 24.72 18.2295 24.72 17.9695 24.77C17.7195 24.81 17.1995 24.89 16.6595 24.93C16.1195 24.97 15.5495 24.96 15.0495 24.92C14.5495 24.88 14.1195 24.8 13.7995 24.73C13.4795 24.67 13.2695 24.62 13.1195 24.56C12.9695 24.51 12.8695 24.46 12.9995 24.62Z" fill="#1974BF"/>
<path fill-rule="evenodd" clip-rule="evenodd" d="M13.3997 25.41C13.3097 25.48 13.2597 25.6 13.2397 26.06C13.2097 26.52 13.2197 27.34 13.2297 27.76C13.2297 28.18 13.2297 28.21 13.2697 28.27C13.3197 28.34 13.3997 28.44 13.6097 28.57C13.8097 28.69 14.1397 28.83 14.4697 28.91C14.8097 28.98 15.1497 28.99 15.4697 28.97C15.7897 28.95 16.0997 28.91 16.3897 28.83C16.6697 28.74 16.9397 28.62 17.1097 28.52C17.2797 28.43 17.3597 28.36 17.3997 28.32C17.4397 28.29 17.4397 28.29 17.4397 27.84C17.4497 27.4 17.4497 26.51 17.4297 26.02C17.4097 25.78 17.3897 25.63 17.3597 25.54L16.3297 25.79C15.9297 25.88 15.9297 25.88 15.5597 25.87L14.1497 25.81C13.7497 25.79 13.7497 25.79 13.5397 25.57C13.4997 25.52 13.4497 25.47 13.3997 25.41Z" fill="#1974BF"/>
<path fill-rule="evenodd" clip-rule="evenodd" d="M15.2699 15.04L11.1299 20.23L15.8199 15.93C15.8099 15.92 15.7999 15.91 15.7999 15.9C15.5499 15.68 15.3599 15.38 15.2699 15.04Z" fill="#1974BF"/>
<path fill-rule="evenodd" clip-rule="evenodd" d="M20.12 11.98L18.73 10.71L17.29 12.51C17.7 12.53 18.08 12.69 18.36 12.95C18.48 13.05 18.59 13.17 18.67 13.31L20.12 11.98Z" fill="#1974BF"/>
<path fill-rule="evenodd" clip-rule="evenodd" d="M17.09 12.84C17.95 12.75 18.66 13.39 18.68 14.27C18.69 15.15 18.01 15.94 17.14 16.04C16.28 16.13 15.57 15.49 15.56 14.61C15.54 13.73 16.23 12.94 17.09 12.84Z" fill="#1974BF"/>
<path fill-rule="evenodd" clip-rule="evenodd" d="M10.04 12.15L10.12 11.91L11.57 12.63C11.54 12.71 11.51 12.78 11.49 12.86L10.04 12.15ZM16.58 6.57996H16.81V8.27996C16.73 8.28996 16.66 8.29996 16.58 8.30996V6.57996ZM22.28 10.89L23.76 10.16L23.66 9.88996L22.13 10.65C22.18 10.73 22.23 10.81 22.28 10.89ZM21.43 18.1L22.61 18.99L22.89 19.27L22.79 19.54L21.2 18.36C21.28 18.27 21.35 18.19 21.43 18.1ZM10.75 18.85L10.54 19.27L12.24 18.25C12.17 18.16 12.11 18.08 12.06 17.99L10.75 18.85Z" fill="#1974BF"/>
</svg>
