<svg width="30" height="31" viewBox="0 0 30 31" fill="none" xmlns="http://www.w3.org/2000/svg">
<path fill-rule="evenodd" clip-rule="evenodd" d="M9.24026 20.4801C8.57026 20.8601 8.38026 20.9801 8.49026 20.9801C8.65026 20.9801 8.97026 20.9901 9.32026 21.0901C9.67026 21.1801 10.0703 21.3701 10.3803 21.5501C10.6903 21.7401 10.9103 21.9201 11.1303 22.1301C11.3503 22.3501 11.5803 22.5901 11.7703 22.8601C12.5803 23.9801 13.1303 26.0401 11.8403 27.0501C10.5203 28.0801 13.5903 25.8701 13.6103 25.8501C15.0303 24.8601 17.3403 23.2201 19.4503 21.7101C19.4603 21.6501 19.4703 21.5801 19.4803 21.5001C19.5003 21.3901 19.5103 21.2701 19.5203 21.1501C19.5303 21.0201 19.5303 20.8801 19.5203 20.7501C19.5103 20.6101 19.5003 20.4801 19.4803 20.3501C19.4603 20.2201 19.4403 20.1001 19.4103 19.9901C19.3803 19.8801 19.3503 19.7701 19.3103 19.6601C19.2803 19.5601 19.2403 19.4501 19.1903 19.3501C19.1503 19.2401 19.1003 19.1401 19.0403 19.0301C18.7803 18.5501 18.2903 17.9501 17.7003 17.4601C17.5303 17.5301 17.2503 17.6501 16.8003 17.8901C15.7603 18.4501 13.7403 19.6101 12.6203 20.2701C11.4903 20.9401 11.2603 21.1001 10.9903 21.1601C10.7203 21.2101 10.4103 21.1501 10.1103 21.0201C9.82026 20.9001 9.54026 20.7201 9.24026 20.4801ZM2.60026 16.7301L2.62026 16.7201C2.68026 16.6801 2.74026 16.6501 2.80026 16.6301C3.62026 16.3201 4.76026 17.1301 5.36026 18.4301C5.96026 19.7401 5.79026 21.0401 4.97026 21.3401L4.96026 21.3501C4.90026 21.3901 4.84026 21.4201 4.77026 21.4401C3.96026 21.7501 2.81026 20.9401 2.21026 19.6401C1.62026 18.3301 1.79026 17.0301 2.60026 16.7301ZM2.70026 16.7301C2.14026 17.2101 2.08026 18.3401 2.60026 19.4701C3.13026 20.6301 4.09026 21.4001 4.87026 21.3401C5.43026 20.8601 5.50026 19.7301 4.98026 18.6001C4.44026 17.4401 3.48026 16.6801 2.70026 16.7301ZM9.77026 12.9201C7.66026 13.8401 6.20026 14.5001 4.56026 15.2201C2.92026 15.9401 2.46026 16.1401 2.60026 16.1501C2.74026 16.1601 3.02026 16.2001 3.32026 16.3101C3.63026 16.4201 3.96026 16.6101 4.22026 16.8001C4.48026 16.9901 4.66026 17.1701 4.84026 17.3701C5.02026 17.5701 5.20026 17.8101 5.36026 18.0601C5.98026 19.1101 6.31026 20.9701 5.10026 21.7601C3.85026 22.5701 6.73026 20.8601 6.75026 20.8501C7.24026 20.5601 7.85026 20.2101 8.52026 19.8101C8.44026 19.7301 8.37026 19.6401 8.30026 19.5401C8.02026 19.1801 7.79026 18.7501 7.64026 18.3001C7.49026 17.8501 7.43026 17.3801 7.42026 17.0001C7.41026 16.6301 7.45026 16.3401 7.53026 16.0801C7.61026 15.8201 7.72026 15.5901 7.83026 15.4101C7.94026 15.2401 8.06026 15.1301 8.12026 15.0801C8.18026 15.0201 8.20026 15.0201 9.30026 14.5101C9.74026 14.3101 10.3403 14.0301 10.9903 13.7301C10.6103 13.3701 10.1903 13.0601 9.77026 12.9201ZM17.5703 8.70008C17.1803 8.70008 17.0103 8.80008 16.8503 8.90008C15.9603 9.26008 9.26026 12.0801 9.23026 12.1001C9.07026 12.2901 9.05026 12.8201 9.11026 12.8401C9.26026 12.9001 9.22026 12.0001 9.90026 12.2501C10.0403 12.3201 10.1803 12.3801 10.3103 12.4601C10.4503 12.5301 10.5803 12.6201 10.7103 12.7101C10.8503 12.8001 10.9803 12.9001 11.1103 13.0101C11.2403 13.1201 11.3603 13.2401 11.4803 13.3601C11.5203 13.3901 11.5503 13.4201 11.5803 13.4601C12.3703 13.0901 13.1503 12.7201 13.6803 12.4801C14.7703 11.9701 14.7703 11.9701 14.7603 11.8901C14.7503 11.8201 14.7303 11.6601 14.7503 11.5001C14.7603 11.3301 14.8003 11.1601 14.8203 11.0701C14.8403 10.9801 14.8403 10.9801 15.6503 10.6401C16.4003 10.3301 17.8303 9.72008 19.1103 9.16008C18.6303 8.88008 18.0903 8.69008 17.5703 8.70008ZM18.7403 17.5001C18.8403 17.6101 18.9403 17.7201 19.0303 17.8301C19.1503 17.9701 19.2503 18.1101 19.3503 18.2501C19.4503 18.4001 19.5503 18.5501 19.6303 18.7001C19.7103 18.8401 19.7803 18.9801 19.8403 19.1101C19.9003 19.2501 19.9603 19.3901 20.0103 19.5301C20.0603 19.6701 20.1003 19.8101 20.1403 19.9601C20.1803 20.1101 20.2203 20.2701 20.2403 20.4301C20.2703 20.6001 20.2903 20.7801 20.3003 20.9601C20.3103 21.1301 20.3103 21.3101 20.3003 21.4801C20.2503 22.2601 19.5303 22.1601 19.4803 22.4001C19.5203 22.3701 19.9503 22.3901 20.3203 22.1301C21.8903 21.0301 23.4303 20.0501 24.5803 19.2601C27.9003 16.9901 28.3603 16.5501 28.6003 15.8601C28.8303 15.1701 28.8503 14.2201 28.4503 13.4001C28.2303 12.9301 27.7303 12.3901 27.1203 11.9601C27.0303 12.2401 26.9403 12.4301 26.8203 12.6101C26.6903 12.8101 26.5303 13.0001 25.1903 13.8301C23.8603 14.6601 21.3503 16.1301 20.0203 16.8601C19.3403 17.2301 18.9603 17.4101 18.7403 17.5001ZM8.55026 21.6301C8.56026 21.6301 8.56026 21.6201 8.57026 21.6201C8.63026 21.5701 8.69026 21.5301 8.77026 21.5001C9.65026 21.0801 11.0203 21.8701 11.8203 23.2801C12.6203 24.6801 12.5503 26.1701 11.6603 26.5901H11.6503C11.5903 26.6401 11.5203 26.6801 11.4503 26.7201C10.5603 27.1401 9.20026 26.3401 8.40026 24.9401C7.60026 23.5301 7.67026 22.0501 8.55026 21.6301ZM8.66026 21.6201C8.08026 22.2201 8.12026 23.4901 8.81026 24.7101C9.52026 25.9601 10.6803 26.7301 11.5503 26.5901C12.1303 26.0001 12.0903 24.7201 11.4003 23.5001C10.6903 22.2501 9.53026 21.4901 8.66026 21.6201Z" fill="#1974BF"/>
<path fill-rule="evenodd" clip-rule="evenodd" d="M8.58073 15.7299C8.64073 15.7099 8.69073 15.6899 8.75073 15.6799C8.13073 16.1299 8.04073 17.2999 8.58073 18.4699C9.14073 19.6899 10.1807 20.4799 10.9807 20.3199C10.9107 20.3699 10.8307 20.4099 10.7507 20.4399C9.94073 20.7499 8.79073 19.9399 8.19073 18.6399C7.60073 17.3299 7.77073 16.0299 8.58073 15.7299Z" fill="#1974BF"/>
<path fill-rule="evenodd" clip-rule="evenodd" d="M15.7503 11.9199C13.6403 12.8399 12.1803 13.4999 10.5403 14.2199C8.90029 14.9399 8.44029 15.1399 8.58029 15.1499C8.72029 15.1599 9.00029 15.1999 9.30029 15.3099C9.61029 15.4199 9.94029 15.6099 10.2003 15.7999C10.4603 15.9899 10.6403 16.1699 10.8203 16.3699C11.0003 16.5699 11.1803 16.8099 11.3403 17.0599C11.9603 18.1099 12.2903 19.9699 11.0803 20.7599C9.83029 21.5699 12.7103 19.8599 12.7303 19.8499C14.0603 19.0699 16.2303 17.7999 18.2003 16.6399C18.2203 16.5799 18.2403 16.5199 18.2503 16.4499C18.2703 16.3499 18.2903 16.2499 18.3103 16.1399C18.3203 16.0199 18.3303 15.9099 18.3403 15.7899C18.3403 15.6699 18.3403 15.5499 18.3303 15.4299C18.3303 15.3199 18.3203 15.2099 18.3003 15.1099C18.2803 15.0099 18.2603 14.9099 18.2403 14.8099C18.2203 14.7099 18.1903 14.6199 18.1603 14.5199C18.1303 14.4299 18.0903 14.3299 18.0503 14.2399C17.7103 13.4299 16.7203 12.2499 15.7503 11.9199Z" fill="#1974BF"/>
<path fill-rule="evenodd" clip-rule="evenodd" d="M23.5507 7.70001C23.1607 7.70001 22.9907 7.80001 22.8307 7.90001C21.9407 8.26001 15.2407 11.08 15.2107 11.1C15.0507 11.29 15.0307 11.82 15.0907 11.84C15.2407 11.9 15.2007 11 15.8807 11.25C16.0207 11.32 16.1607 11.38 16.2907 11.46C16.4307 11.53 16.5607 11.62 16.6907 11.71C16.8307 11.8 16.9607 11.9 17.0907 12.01C17.2207 12.12 17.3407 12.24 17.4607 12.36C17.5907 12.48 17.7007 12.61 17.8207 12.75C17.9307 12.89 18.0407 13.03 18.1307 13.17C18.2207 13.3 18.3107 13.44 18.3807 13.57C18.4607 13.71 18.5307 13.85 18.5907 13.99C18.6507 14.12 18.7007 14.24 18.7507 14.37C18.7907 14.49 18.8307 14.62 18.8607 14.75C18.9007 14.87 18.9307 15 18.9507 15.14C18.9707 15.27 18.9907 15.41 19.0007 15.56C19.0107 15.71 19.0207 15.87 19.0107 16.04C19.0107 16.19 18.9907 16.34 18.9707 16.5C18.8707 17.18 18.2407 17.03 18.1807 17.24C18.2107 17.22 18.5907 17.27 18.9407 17.07C20.4107 16.21 21.8407 15.46 22.9307 14.86C26.0307 13.11 26.4707 12.76 26.7307 12.16C26.9907 11.57 27.0807 10.74 26.7907 9.98001C26.4307 9.02001 24.9507 7.69001 23.5507 7.70001Z" fill="#1974BF"/>
<path fill-rule="evenodd" clip-rule="evenodd" d="M10.9505 20.3401C10.9005 20.3601 10.8405 20.3801 10.7905 20.3901C11.4105 19.9501 11.4905 18.7701 10.9605 17.6001C10.4005 16.3801 9.36055 15.6001 8.56055 15.7501C8.63055 15.7001 8.70055 15.6601 8.78055 15.6301C9.60055 15.3201 10.7405 16.1301 11.3405 17.4301C11.9405 18.7401 11.7705 20.0401 10.9505 20.3401Z" fill="#1974BF"/>
</svg>
