<svg width="30" height="30" viewBox="0 0 30 30" fill="none" xmlns="http://www.w3.org/2000/svg">
<path fill-rule="evenodd" clip-rule="evenodd" d="M22.5898 12.05C26.0798 11.48 28.9098 14.1 28.9098 17.92C28.9098 21.74 26.0798 25.3 22.5898 25.88C19.0898 26.46 16.2598 23.83 16.2598 20.01C16.2598 16.19 19.0898 12.63 22.5898 12.05ZM22.7098 13.18C25.6998 12.69 28.1198 14.93 28.1198 18.2C28.1198 21.46 25.6998 24.5 22.7098 25C19.7298 25.49 17.3098 23.25 17.3098 19.98C17.3098 16.72 19.7298 13.68 22.7098 13.18Z" fill="#1974BF"/>
<path fill-rule="evenodd" clip-rule="evenodd" d="M22.9402 17.13C23.9402 17.13 24.6902 18.07 24.6202 19.22C24.5502 20.37 23.6902 21.3 22.6902 21.3C21.7002 21.3 20.9502 20.37 21.0202 19.22C21.0902 18.07 21.9502 17.13 22.9402 17.13ZM21.6902 19.56L23.9502 18.41C24.0602 18.35 24.1402 18.42 24.1402 18.55C24.1402 18.69 24.0602 18.84 23.9502 18.89L21.6902 20.05C21.5802 20.11 21.4902 20.04 21.4902 19.91C21.4902 19.77 21.5802 19.62 21.6902 19.56Z" fill="#1974BF"/>
<path fill-rule="evenodd" clip-rule="evenodd" d="M2.37934 14.6899C3.05934 14.6899 3.95934 16.2999 4.40934 18.2999C4.84934 20.2899 4.66934 21.9099 3.99934 21.9099C3.96934 21.9099 3.91934 21.9299 3.83934 21.9699C3.85934 21.9199 3.87934 21.8699 3.89934 21.8199C3.99934 21.5099 4.05934 21.0999 4.05934 20.6199C4.05934 20.0399 3.97934 19.3299 3.80934 18.5799C3.57934 17.5499 3.22934 16.6299 2.84934 15.9499C2.52934 15.3799 2.16934 14.9699 1.81934 14.8299C2.05934 14.7399 2.28934 14.6899 2.37934 14.6899Z" fill="#1974BF"/>
<path fill-rule="evenodd" clip-rule="evenodd" d="M1.53973 15.02C2.20973 15.02 3.11973 16.64 3.55973 18.63C4.00973 20.63 3.81973 22.24 3.14973 22.24C2.47973 22.24 1.56973 20.63 1.11973 18.63C0.679735 16.64 0.859734 15.02 1.53973 15.02ZM1.70973 16.65C2.08973 16.65 2.59973 17.55 2.84973 18.67C3.09973 19.79 2.98973 20.7 2.60973 20.7C2.23973 20.7 1.72973 19.79 1.47973 18.67C1.22973 17.55 1.32973 16.65 1.70973 16.65Z" fill="#1974BF"/>
<path fill-rule="evenodd" clip-rule="evenodd" d="M26.9501 7.02999C26.9201 6.84999 26.8501 6.48999 26.8101 6.30999C26.7701 6.12999 26.7601 6.11999 26.4901 5.94999C26.2201 5.76999 25.6801 5.43999 25.0801 5.13999C24.4801 4.84999 23.8201 4.59999 23.1901 4.37999C22.5701 4.15999 21.9801 3.96999 21.6701 3.86999C21.3601 3.77999 21.3301 3.77999 19.6701 4.08999C18.0201 4.39999 14.7401 5.01999 13.0501 5.35999C11.3701 5.69999 11.2701 5.74999 11.1801 5.80999C11.0901 5.85999 11.0201 5.91999 11.0201 6.34999C11.0101 6.68999 11.0501 7.25999 11.0801 7.70999C12.6401 8.23999 14.1701 8.75999 15.0201 9.03999C15.4501 9.18999 15.6901 9.25999 15.8201 9.28999C15.9501 9.32999 15.9901 9.32999 16.0401 9.32999C16.1101 9.32999 16.1901 9.32999 16.2701 9.32999C16.3301 9.32999 16.4001 9.32999 16.4701 9.31999C16.6101 9.30999 16.7401 9.27999 17.7501 9.07999L17.9401 9.04999C19.0901 8.81999 21.1501 8.41999 22.6401 8.10999C23.3901 7.94999 24.0201 7.80999 24.5601 7.67999C25.1101 7.53999 25.5601 7.42999 25.9601 7.31999C26.3101 7.21999 26.6301 7.12999 26.9501 7.02999ZM18.3801 5.06999C18.8301 5.00999 19.1901 5.06999 19.1901 5.20999C19.1901 5.34999 18.8301 5.50999 18.3801 5.56999C17.9301 5.62999 17.5701 5.56999 17.5701 5.42999C17.5701 5.28999 17.9301 5.12999 18.3801 5.06999Z" fill="#1974BF"/>
<path fill-rule="evenodd" clip-rule="evenodd" d="M18.4694 5.55003C18.8994 5.52003 19.2494 5.57003 19.2494 5.67003C19.2494 5.78003 18.8794 5.89003 18.4294 5.93003C17.9794 5.97003 17.6094 5.92003 17.6094 5.81003C17.6094 5.73003 17.8494 5.64003 18.1794 5.59003C18.2494 5.58003 18.3094 5.58003 18.3794 5.57003C18.4094 5.56003 18.4394 5.56003 18.4694 5.55003Z" fill="#1974BF"/>
<path fill-rule="evenodd" clip-rule="evenodd" d="M28.3502 15.16C28.3202 15.3 28.2702 15.42 28.2202 15.53C28.2002 15.58 28.1802 15.62 28.1602 15.66C28.2402 15.63 28.3002 15.61 28.3202 15.61C28.3902 15.61 28.4502 15.59 28.5102 15.57C28.4602 15.43 28.4102 15.29 28.3502 15.16Z" fill="#1974BF"/>
<path fill-rule="evenodd" clip-rule="evenodd" d="M25.9093 12.53C25.9093 12.65 25.9293 12.76 25.9493 12.85C26.0593 13.37 25.9893 13.04 26.0093 13.13C25.9693 13.08 26.0093 13.1 25.9493 13.04V12.93H25.6193C25.6093 12.89 25.7693 13.68 25.5893 12.81C25.5693 12.69 25.5493 12.53 25.5293 12.36C25.6593 12.41 25.7793 12.47 25.9093 12.53Z" fill="#1974BF"/>
<path fill-rule="evenodd" clip-rule="evenodd" d="M28.1796 14.81C28.1296 15.16 28.0296 15.43 27.8996 15.63V15.1C27.8896 15.07 27.8696 15.07 27.8696 15.01L27.8396 14.99V14.96C27.7796 14.89 27.7896 14.92 27.7896 14.83C27.7896 14.75 27.7596 14.79 27.7596 14.72L27.7096 14.66V14.61H27.6796V14.58L27.6296 14.53V14.5C27.5396 14.41 27.5696 14.5 27.5196 14.39C27.4696 14.3 27.4896 14.34 27.4596 14.31C27.4296 14.26 27.4796 14.3 27.3796 14.2L27.3596 14.18L27.3496 14.17C27.3796 14.03 27.4096 13.89 27.4196 13.71C27.7096 14.04 27.9696 14.41 28.1796 14.81Z" fill="#1974BF"/>
<path fill-rule="evenodd" clip-rule="evenodd" d="M27.2798 10.27C27.3398 10.35 27.3898 10.44 27.4398 10.53C27.7898 11.1 28.0998 11.89 28.2798 12.76C28.4098 13.41 28.4598 14.01 28.4398 14.51C28.4298 14.58 28.4298 14.66 28.4198 14.73C28.5298 14.94 28.6298 15.16 28.7198 15.4C29.0798 14.95 29.1698 13.83 28.8898 12.53C28.5798 11.02 27.8898 9.75999 27.2598 9.48999C27.2698 9.72999 27.2698 9.93999 27.2798 10.09C27.2798 10.16 27.2798 10.22 27.2798 10.27Z" fill="#1974BF"/>
<path fill-rule="evenodd" clip-rule="evenodd" d="M26.2695 11.12C26.6495 11.12 27.1595 12.1 27.3095 12.85C27.3495 13.03 27.3795 13.18 27.3895 13.31C27.6995 13.62 27.9795 13.97 28.2095 14.35C28.2095 13.94 28.1595 13.43 28.0295 12.81C27.8695 12.05 27.5595 11.26 27.2095 10.67C27.1895 10.7 27.1795 10.72 27.1495 10.75C27.1095 10.81 27.0395 10.86 26.9595 10.91C26.8695 10.95 26.7695 10.98 26.6295 11.02C26.5295 11.05 26.4095 11.08 26.2695 11.12Z" fill="#1974BF"/>
<path fill-rule="evenodd" clip-rule="evenodd" d="M3.75992 15.68C3.85992 15.8 4.04992 16.01 4.13992 16.11C4.22992 16.22 4.22992 16.22 4.36992 16.62C4.50992 17.03 4.78992 17.84 4.92992 18.24C5.06992 18.65 5.06992 18.65 5.02992 18.96C4.99992 19.27 4.91992 19.89 4.87992 20.2C4.84992 20.51 4.84992 20.51 5.17992 20.45C5.51992 20.4 6.18992 20.3 6.51992 20.24C6.85992 20.19 6.85992 20.19 6.91992 19.86C6.97992 19.53 7.09992 18.87 7.15992 18.54C7.21992 18.21 7.21992 18.21 7.07992 17.79C6.92992 17.37 6.64992 16.53 6.49992 16.11C6.35992 15.69 6.35992 15.68 6.20992 15.58C6.05992 15.48 5.75992 15.29 5.61992 15.19C5.46992 15.09 5.46992 15.09 5.19992 15.15C4.93992 15.21 4.39992 15.32 4.09992 15.39C3.78992 15.45 3.70992 15.46 3.67992 15.49C3.64992 15.52 3.65992 15.55 3.75992 15.68Z" fill="#1974BF"/>
<path fill-rule="evenodd" clip-rule="evenodd" d="M6.7595 15.9C6.8695 16.38 7.1795 17.28 7.3295 17.74C7.4895 18.19 7.4895 18.19 7.4495 18.41C7.4095 18.63 7.3395 19.07 7.2995 19.29C7.2595 19.51 7.2595 19.51 7.5995 19.48C7.9395 19.45 8.6195 19.39 8.9895 19.38C9.3595 19.36 9.4195 19.4 9.5195 19.53C9.6195 19.66 9.7595 19.88 9.9095 20.09C10.0595 20.3 10.2195 20.5 10.3095 20.75C10.4095 21 10.4295 21.31 10.6995 21.72C10.9695 22.12 11.4995 22.64 11.8495 22.97C12.2095 23.31 12.3995 23.48 12.3695 23.4C12.3395 23.31 12.0995 22.98 11.8995 22.64C11.6995 22.3 11.5395 21.94 11.3195 21.21C11.0995 20.48 10.8095 19.36 10.6495 18.25C10.4795 17.15 10.4195 16.06 10.4295 15.14C10.4295 14.22 10.4995 13.46 10.5395 13.08C10.5695 12.71 10.5695 12.71 10.5095 12.72C10.4495 12.74 10.3195 12.77 10.2395 12.78C10.1595 12.8 10.1195 12.81 10.0295 12.68C9.9395 12.55 9.7995 12.29 9.6795 12.06C9.5595 11.83 9.4495 11.63 9.3995 11.53C9.3495 11.44 9.3495 11.44 9.3095 11.54C9.2795 11.65 9.2195 11.86 9.1995 12.16C9.1895 12.46 9.2195 12.86 9.2095 13.13C9.2095 13.39 9.1595 13.53 8.9995 13.68C8.8395 13.84 8.5795 14 8.2195 14.28C7.8595 14.55 7.4095 14.94 7.1595 15.14C6.8995 15.33 6.8495 15.34 6.7795 15.36C6.7195 15.39 6.6395 15.43 6.7595 15.9Z" fill="#1974BF"/>
<path fill-rule="evenodd" clip-rule="evenodd" d="M13.8999 11.99C14.6099 12.27 15.4899 12.6 15.9799 12.79C16.4699 12.97 16.5699 13.01 16.6999 13C16.8299 13 16.9999 12.96 18.7099 12.57C20.0599 12.27 22.3699 11.75 24.0899 11.36H24.0999C24.7999 11.2 25.4999 11.04 26.0099 10.92C26.2499 10.86 26.4299 10.82 26.5599 10.78C26.6899 10.74 26.7799 10.71 26.8399 10.68C26.8899 10.65 26.9299 10.62 26.9599 10.59C26.9799 10.56 26.9999 10.53 27.0099 10.5C27.0199 10.47 27.0199 10.43 27.0199 10.38C27.0299 10.32 27.0299 10.23 27.0199 10.1C27.0199 9.82995 27.0099 9.37995 26.9999 8.91995V8.88995H27.0299C27.0199 8.45995 27.0099 8.02995 26.9999 7.74995C26.9999 7.61995 26.9899 7.51995 26.9899 7.44995C26.6999 7.52995 26.3899 7.61995 26.0599 7.70995C25.6299 7.82995 25.1799 7.94995 24.6599 8.06995C24.1299 8.19995 23.4999 8.33995 22.7199 8.49995C21.1899 8.81995 19.1499 9.21995 18.0199 9.44995L17.8299 9.47995C16.7999 9.68995 16.6599 9.70995 16.4999 9.72995C16.4399 9.72995 16.3599 9.72995 16.2799 9.73995C16.1899 9.73995 16.0999 9.73995 16.0299 9.73995C15.9499 9.72995 15.8899 9.72995 15.7199 9.68995C15.5699 9.64995 15.3199 9.56995 14.8899 9.42995C14.2499 9.21995 13.1399 8.83995 11.9199 8.41995C12.0099 8.58995 12.1499 8.83995 12.2399 9.07995C12.3599 9.36995 12.4199 9.64995 12.4799 9.95995C12.5299 10.27 12.5799 10.62 12.5899 10.95C12.5999 11.14 12.5999 11.33 12.5999 11.48C12.9399 11.62 13.3799 11.79 13.8999 11.99Z" fill="#1974BF"/>
<path fill-rule="evenodd" clip-rule="evenodd" d="M11.1897 12.76C11.1797 12.96 11.1597 13.27 11.1197 13.46C11.0697 13.64 10.9997 13.74 10.9497 14.19C10.8997 14.64 10.8697 15.45 10.8997 16.31C10.9397 17.16 11.0397 18.06 11.2097 19C11.3797 19.94 11.6197 20.91 11.8397 21.6C12.0597 22.29 12.2597 22.7 12.4397 23C12.6097 23.3 12.7597 23.5 12.8997 23.64C13.0297 23.78 13.1497 23.86 13.2697 23.9C13.3997 23.95 13.5297 23.97 13.9797 23.92C14.4297 23.86 15.1997 23.75 15.5797 23.69C15.9697 23.63 15.9697 23.63 15.6097 23.43C15.2497 23.22 14.5397 22.8 13.9697 22.35C13.3997 21.9 12.9797 21.42 12.5897 20.82C12.1997 20.21 11.8397 19.48 11.6797 18.47C11.5197 17.46 11.5397 16.17 11.7897 15.19C12.0297 14.21 12.4997 13.54 12.7397 13.19C12.9697 12.85 12.9897 12.83 12.9797 12.69C12.9797 12.55 12.9497 12.28 12.9397 12.15C12.9297 12.01 12.9297 12.01 12.6597 11.92L12.5597 11.88C12.4997 12.07 11.4097 12.32 11.2097 12.37C11.1997 12.51 11.1997 12.57 11.1897 12.76Z" fill="#1974BF"/>
<path fill-rule="evenodd" clip-rule="evenodd" d="M13.2897 12.36C13.2497 12.51 13.2697 12.82 13.2797 12.97C13.2897 13.12 13.2897 13.12 13.1897 13.26C13.0897 13.41 12.8897 13.69 12.6897 14.07C12.4897 14.45 12.2797 14.93 12.1497 15.46C12.0097 15.99 11.9597 16.57 11.9497 17.09C11.9397 17.61 11.9797 18.06 12.0697 18.51C12.1497 18.97 12.2897 19.42 12.4697 19.81C12.6397 20.21 12.8597 20.56 13.1297 20.91C13.3897 21.25 13.6897 21.61 14.0697 21.96C14.4397 22.31 14.8897 22.66 15.3697 22.97C15.8597 23.27 16.3697 23.52 16.6297 23.65C16.8897 23.78 16.8897 23.78 16.7497 23.51C16.6197 23.25 16.3397 22.72 16.1597 22.13C15.9797 21.55 15.8997 20.91 15.8797 20.35C15.8497 19.79 15.8897 19.32 15.9397 18.88C15.9997 18.43 16.0697 18.02 16.2097 17.58C16.3497 17.14 16.5697 16.67 16.7897 16.24C17.0097 15.82 17.2497 15.42 17.4597 15.11C17.6697 14.79 17.8597 14.54 18.0597 14.31C18.2497 14.08 18.4597 13.86 18.5597 13.66C18.6597 13.47 18.6597 13.29 18.6497 13.21C18.6497 13.12 18.6297 13.12 18.3897 13.17C18.1397 13.22 17.6597 13.32 17.3397 13.38C17.0297 13.44 16.8797 13.46 16.6897 13.44C16.5097 13.42 16.2897 13.37 15.7797 13.17C15.2797 12.98 14.4797 12.64 14.0697 12.45C13.6497 12.27 13.5997 12.24 13.5197 12.22C13.4397 12.21 13.3297 12.21 13.2897 12.36Z" fill="#1974BF"/>
<path fill-rule="evenodd" clip-rule="evenodd" d="M11.7693 8.29C11.7793 8.32 10.1593 8.73 10.1693 8.78C10.1993 8.9 10.2293 9.06 10.2893 9.24C10.3593 9.48 10.4793 9.74001 10.5993 9.93C10.7193 10.12 10.8493 10.24 10.9093 10.32C11.1593 10.34 14.0193 9.82 10.8993 10.54C10.7893 10.56 10.7993 10.82 10.7893 11.03C10.7693 11.25 10.7893 11.51 10.8393 11.72C10.8693 11.88 10.9093 12.01 10.9393 12.11C10.9393 12.14 12.4293 11.88 12.4293 11.9C12.4393 11.94 11.0093 12.32 10.8793 12.36C10.8293 12.38 10.7993 12.36 10.7093 12.35C10.6193 12.34 10.5293 12.33 10.4493 12.35C10.3793 12.37 10.3293 12.42 10.2893 12.45C10.2593 12.48 10.2293 12.5 10.1993 12.49C10.1593 12.49 10.1093 12.46 10.0093 12.32C9.9093 12.17 9.7693 11.92 9.6493 11.67C9.5293 11.42 9.4293 11.19 9.3693 10.92C9.3093 10.66 9.2793 10.38 9.2793 10.04C9.2793 9.71 9.2993 9.32 9.3293 9.09C9.3493 8.87 9.3693 8.8 9.4293 8.78C9.4793 8.76 9.5693 8.78 9.6693 8.78C9.7593 8.77 9.8593 8.73 9.9293 8.69C9.9993 8.66 10.0293 8.63001 10.0493 8.60001C10.0793 8.57001 11.7393 8.18 11.7693 8.29ZM9.6393 9.79C9.8293 9.76 10.0593 10.16 10.1393 10.68C10.2293 11.21 10.1493 11.66 9.9593 11.69C9.7693 11.72 9.5493 11.32 9.4593 10.8C9.3693 10.27 9.4593 9.82 9.6393 9.79Z" fill="#1974BF"/>
</svg>
