<svg width="30" height="30" viewBox="0 0 30 30" fill="none" xmlns="http://www.w3.org/2000/svg">
<path fill-rule="evenodd" clip-rule="evenodd" d="M10.1295 24.85L29.0795 10.89V10.47V10.44V10.41V10.38V10.36L29.0695 10.33L29.0595 10.3V10.27L29.0495 10.25L29.0395 10.22L29.0295 10.2L29.0195 10.17L29.0095 10.15L28.9995 10.13L28.9895 10.11L28.9695 10.08L28.9595 10.06L28.9395 10.04L28.9295 10.03L28.9095 10.01L28.8895 9.98996L28.8795 9.97996L28.8595 9.95996L28.8395 9.94996L28.8195 9.93996L28.7995 9.92996L28.7795 9.91996L28.7595 9.90996H28.7395L28.7195 9.89996H28.6995H28.6795L28.6495 9.88996H26.2695H26.2395H26.2195H26.1895L26.1595 9.87996L26.1395 9.86996L26.1095 9.85996L26.0795 9.84996L26.0595 9.83996L26.0395 9.81996L26.0095 9.80996L25.9895 9.78996L25.9695 9.76996L25.9495 9.74996L25.9195 9.72996L25.8995 9.69996L25.8895 9.67996L25.8695 9.64996L25.8495 9.62996L25.8295 9.59996L25.8195 9.56996L25.8095 9.53996L25.7895 9.50996L25.7795 9.47996L25.7695 9.44996L25.7595 9.40996L25.7495 9.37996L25.7395 9.34996V9.30996L25.7295 9.26996V9.23996V9.19996V9.15996V6.07996C25.7295 6.07996 15.2395 13.62 9.79953 17.55H9.85953V18.59C9.85953 18.78 9.79953 18.95 9.70953 19.08C9.59953 19.22 9.44953 19.31 9.28953 19.31H7.36953C7.08953 19.28 6.76953 19.35 6.76953 19.74V22.7V22.74L6.77953 22.78V22.81L6.78953 22.85V22.88L6.79953 22.92L6.80953 22.95L6.81953 22.99L6.82953 23.02L6.83953 23.05L6.84953 23.08L6.86953 23.11L6.87953 23.14L6.89953 23.17L6.91953 23.19L6.92953 23.22L6.94953 23.24L6.96953 23.27L6.98953 23.29L7.00953 23.31L7.03953 23.33L7.05953 23.35L7.07953 23.36L7.10953 23.38L7.12953 23.39L7.15953 23.4L7.17953 23.41L7.20953 23.42L7.23953 23.43H7.25953H7.28953H7.31953H9.69953H9.71953L9.74953 23.44H9.76953L9.78953 23.45H9.80953L9.82953 23.46L9.84953 23.47L9.86953 23.48L9.88953 23.49L9.90953 23.5L9.91953 23.52L9.93953 23.53L9.95953 23.55L9.97953 23.57L9.98953 23.58L10.0095 23.6L10.0195 23.62L10.0295 23.64L10.0495 23.67L10.0595 23.69L10.0695 23.71L10.0795 23.74L10.0895 23.76L10.0995 23.79L10.1095 23.81V23.84L10.1195 23.87V23.89L10.1295 23.92V23.95V23.98V24.01V24.85Z" fill="#1974BF"/>
<path fill-rule="evenodd" clip-rule="evenodd" d="M10.0596 17.02L28.1996 4.05998L28.1896 3.47998H23.0596L1.80957 17.02H10.0596Z" fill="#1974BF"/>
<path fill-rule="evenodd" clip-rule="evenodd" d="M10.1504 18.97L29.1004 5.42997L29.1204 5.41997L29.1404 5.39997L29.1504 5.38997L29.1704 5.36997L29.1904 5.34997L29.2004 5.32997L29.2104 5.30997L29.2304 5.28997L29.2404 5.26997L29.2504 5.24997L29.2604 5.21997L29.2704 5.19997L29.2804 5.16997L29.2904 5.14997L29.3004 5.11997L29.3104 5.09997V5.06997L29.3204 5.03997V5.00997V4.97997L29.3304 4.94997V4.91997V4.02997L10.3704 17.57V18.46V18.49V18.52V18.55V18.58L10.3604 18.61V18.63L10.3504 18.66L10.3404 18.69L10.3304 18.71L10.3204 18.74L10.3104 18.76L10.3004 18.79L10.2904 18.81L10.2804 18.83L10.2604 18.85L10.2504 18.87L10.2304 18.89L10.2204 18.91L10.2004 18.93L10.1804 18.94L10.1704 18.96L10.1504 18.97Z" fill="#FEFEFE"/>
<path fill-rule="evenodd" clip-rule="evenodd" d="M1.25 25.33H9.5V24.46C9.5 24.14 9.31 23.87 9.07 23.87H6.69C6.39 23.87 6.14 23.53 6.14 23.12V19.73C6.14 19.31 6.39 18.97 6.69 18.97H9.07C9.31 18.97 9.5 18.71 9.5 18.38V17.46H1.25V18.38C1.25 18.71 1.44 18.97 1.68 18.97H4.06C4.36 18.97 4.61 19.31 4.61 19.73V23.12C4.61 23.53 4.36 23.87 4.06 23.87H1.68C1.44 23.87 1.25 24.14 1.25 24.46V25.33Z" fill="#1974BF"/>
<path fill-rule="evenodd" clip-rule="evenodd" d="M10.1295 24.85L29.0795 10.89V10.47V10.44V10.41V10.38V10.36L29.0695 10.33L29.0595 10.3V10.27L29.0495 10.25L29.0395 10.22L29.0295 10.2L29.0195 10.17L29.0095 10.15L28.9995 10.13L28.9895 10.11L28.9695 10.08L28.9595 10.06L28.9395 10.04L28.9295 10.03L28.9095 10.01L28.8895 9.98996L28.8795 9.97996L28.8595 9.95996L28.8395 9.94996L28.8195 9.93996L28.7995 9.92996L28.7795 9.91996L28.7595 9.90996H28.7395L28.7195 9.89996H28.6995H28.6795L28.6495 9.88996H26.2695H26.2395H26.2195H26.1895L26.1595 9.87996L26.1395 9.86996L26.1095 9.85996L26.0795 9.84996L26.0595 9.83996L26.0395 9.81996L26.0095 9.80996L25.9895 9.78996L25.9695 9.76996L25.9495 9.74996L25.9195 9.72996L25.8995 9.69996L25.8895 9.67996L25.8695 9.64996L25.8495 9.62996L25.8295 9.59996L25.8195 9.56996L25.8095 9.53996L25.7895 9.50996L25.7795 9.47996L25.7695 9.44996L25.7595 9.40996L25.7495 9.37996L25.7395 9.34996V9.30996L25.7295 9.26996V9.23996V9.19996V9.15996V6.07996C25.7295 6.07996 15.2395 13.62 9.79953 17.55H9.85953V18.59C9.85953 18.78 9.79953 18.95 9.70953 19.08C9.59953 19.22 9.44953 19.31 9.28953 19.31H7.36953C7.08953 19.28 6.76953 19.35 6.76953 19.74V22.7V22.74L6.77953 22.78V22.81L6.78953 22.85V22.88L6.79953 22.92L6.80953 22.95L6.81953 22.99L6.82953 23.02L6.83953 23.05L6.84953 23.08L6.86953 23.11L6.87953 23.14L6.89953 23.17L6.91953 23.19L6.92953 23.22L6.94953 23.24L6.96953 23.27L6.98953 23.29L7.00953 23.31L7.03953 23.33L7.05953 23.35L7.07953 23.36L7.10953 23.38L7.12953 23.39L7.15953 23.4L7.17953 23.41L7.20953 23.42L7.23953 23.43H7.25953H7.28953H7.31953H9.69953H9.71953L9.74953 23.44H9.76953L9.78953 23.45H9.80953L9.82953 23.46L9.84953 23.47L9.86953 23.48L9.88953 23.49L9.90953 23.5L9.91953 23.52L9.93953 23.53L9.95953 23.55L9.97953 23.57L9.98953 23.58L10.0095 23.6L10.0195 23.62L10.0295 23.64L10.0495 23.67L10.0595 23.69L10.0695 23.71L10.0795 23.74L10.0895 23.76L10.0995 23.79L10.1095 23.81V23.84L10.1195 23.87V23.89L10.1295 23.92V23.95V23.98V24.01V24.85Z" fill="#1974BF"/>
<path fill-rule="evenodd" clip-rule="evenodd" d="M10.0596 17.02L28.1996 4.05998L28.1896 3.47998H23.0596L1.80957 17.02H10.0596Z" fill="#1974BF"/>
<path fill-rule="evenodd" clip-rule="evenodd" d="M10.1504 18.97L29.1004 5.42997L29.1204 5.41997L29.1404 5.39997L29.1504 5.38997L29.1704 5.36997L29.1904 5.34997L29.2004 5.32997L29.2104 5.30997L29.2304 5.28997L29.2404 5.26997L29.2504 5.24997L29.2604 5.21997L29.2704 5.19997L29.2804 5.16997L29.2904 5.14997L29.3004 5.11997L29.3104 5.09997V5.06997L29.3204 5.03997V5.00997V4.97997L29.3304 4.94997V4.91997V4.02997L10.3704 17.57V18.46V18.49V18.52V18.55V18.58L10.3604 18.61V18.63L10.3504 18.66L10.3404 18.69L10.3304 18.71L10.3204 18.74L10.3104 18.76L10.3004 18.79L10.2904 18.81L10.2804 18.83L10.2604 18.85L10.2504 18.87L10.2304 18.89L10.2204 18.91L10.2004 18.93L10.1804 18.94L10.1704 18.96L10.1504 18.97Z" fill="#FEFEFE"/>
<path fill-rule="evenodd" clip-rule="evenodd" d="M1.25 25.33H9.5V24.46C9.5 24.14 9.31 23.87 9.07 23.87H6.69C6.39 23.87 6.14 23.53 6.14 23.12V19.73C6.14 19.31 6.39 18.97 6.69 18.97H9.07C9.31 18.97 9.5 18.71 9.5 18.38V17.46H1.25V18.38C1.25 18.71 1.44 18.97 1.68 18.97H4.06C4.36 18.97 4.61 19.31 4.61 19.73V23.12C4.61 23.53 4.36 23.87 4.06 23.87H1.68C1.44 23.87 1.25 24.14 1.25 24.46V25.33Z" fill="#1974BF"/>
</svg>
