<svg width="30" height="30" viewBox="0 0 30 30" fill="none" xmlns="http://www.w3.org/2000/svg">
<path fill-rule="evenodd" clip-rule="evenodd" d="M6.44984 7.78004L8.76984 7.45004C8.87984 7.43004 8.97984 7.47004 9.06984 7.55004C9.14984 7.62004 9.18984 7.71004 9.18984 7.82004L9.22984 27.91C9.22984 28.07 9.11984 28.21 8.94984 28.26L6.61984 28.95C6.49984 28.99 6.36984 28.97 6.26984 28.9C6.15984 28.82 6.09984 28.72 6.09984 28.6L6.08984 8.14004C6.08984 7.95004 6.24984 7.81004 6.44984 7.78004Z" fill="#1974BF"/>
<path fill-rule="evenodd" clip-rule="evenodd" d="M10.3 7.18001C11.04 7.07001 11.77 6.96001 12.51 6.86001C12.62 6.84001 12.72 6.88001 12.8 6.95001C12.88 7.02001 12.92 7.11001 12.92 7.21001C12.93 13.75 12.94 20.28 12.95 26.81C12.95 26.97 12.84 27.1 12.68 27.15C11.94 27.37 11.2 27.6 10.46 27.82C10.34 27.86 10.22 27.84 10.12 27.77C10.02 27.7 9.96996 27.6 9.96996 27.48C9.95996 20.83 9.95996 14.18 9.95996 7.53001C9.95996 7.35001 10.11 7.20001 10.3 7.18001Z" fill="#1974BF"/>
<path fill-rule="evenodd" clip-rule="evenodd" d="M13.9198 6.62997C14.6298 6.51997 15.3298 6.41997 16.0298 6.31997C16.1298 6.29997 16.2298 6.33997 16.2998 6.40997C16.3798 6.47997 16.4198 6.55997 16.4198 6.65997C16.4298 13.03 16.4398 19.39 16.4398 25.76C16.4398 25.91 16.3498 26.04 16.1898 26.09C15.4898 26.31 14.7798 26.53 14.0698 26.75C13.9598 26.78 13.8498 26.76 13.7498 26.7C13.6598 26.63 13.6098 26.53 13.6098 26.41C13.5998 19.93 13.5998 13.45 13.5898 6.96997C13.5898 6.78997 13.7398 6.64997 13.9198 6.62997Z" fill="#1974BF"/>
<path fill-rule="evenodd" clip-rule="evenodd" d="M17.3496 6.11999C18.0196 6.01999 18.6796 5.91999 19.3496 5.81999C19.4496 5.80999 19.5396 5.83999 19.6096 5.90999C19.6796 5.97999 19.7196 6.05999 19.7196 6.15999C19.7296 12.36 19.7396 18.55 19.7396 24.75C19.7396 24.9 19.6496 25.03 19.5096 25.08C18.8296 25.29 18.1596 25.5 17.4896 25.72C17.3796 25.75 17.2796 25.73 17.1896 25.67C17.0896 25.6 17.0496 25.5 17.0496 25.39C17.0396 19.08 17.0396 12.77 17.0396 6.45999C17.0296 6.27999 17.1696 6.14999 17.3496 6.11999Z" fill="#1974BF"/>
<path fill-rule="evenodd" clip-rule="evenodd" d="M20.5898 5.65007C21.2298 5.56007 21.8598 5.46007 22.4998 5.37007C22.5898 5.35007 22.6698 5.39007 22.7398 5.45007C22.8098 5.52007 22.8498 5.60007 22.8498 5.69007C22.8498 11.7301 22.8598 17.7601 22.8598 23.7901C22.8598 23.9301 22.7798 24.0601 22.6398 24.1001C21.9998 24.3101 21.3698 24.5201 20.7298 24.7301C20.6298 24.7601 20.5298 24.7401 20.4398 24.6801C20.3498 24.6101 20.3098 24.5201 20.3098 24.4101C20.2998 18.2701 20.2998 12.1301 20.2998 5.98007C20.2998 5.81007 20.4298 5.68007 20.5898 5.65007Z" fill="#1974BF"/>
<path fill-rule="evenodd" clip-rule="evenodd" d="M23.6804 5.22003C24.2804 5.13003 24.8804 5.04003 25.4804 4.95003C25.5704 4.93003 25.6504 4.97003 25.7104 5.03003C25.7804 5.09003 25.8104 5.17003 25.8104 5.27003C25.8204 11.13 25.8204 17 25.8304 22.86C25.8304 23 25.7404 23.12 25.6104 23.17C25.0104 23.37 24.4104 23.57 23.8104 23.77C23.7104 23.8 23.6204 23.79 23.5304 23.72C23.4504 23.66 23.4104 23.57 23.4104 23.47C23.4104 17.49 23.4004 11.52 23.4004 5.55003C23.4004 5.38003 23.5204 5.25003 23.6804 5.22003Z" fill="#1974BF"/>
<path fill-rule="evenodd" clip-rule="evenodd" d="M26.6204 4.83L28.3204 4.56C28.4004 4.55 28.4804 4.58 28.5404 4.64C28.6004 4.7 28.6304 4.78 28.6304 4.87L28.6404 21.96C28.6404 22.1 28.5604 22.22 28.4404 22.26L26.7404 22.85C26.6504 22.88 26.5604 22.87 26.4804 22.8C26.4104 22.74 26.3704 22.66 26.3704 22.55L26.3604 5.14C26.3604 4.98 26.4704 4.85 26.6204 4.83Z" fill="#1974BF"/>
<path fill-rule="evenodd" clip-rule="evenodd" d="M2.67031 5.45998C2.58031 5.47998 2.58031 5.66998 2.59031 8.73998C2.59031 11.81 2.61031 17.75 2.63031 20.78C2.64031 23.82 2.66031 23.94 2.74031 24.06C2.83031 24.18 2.98031 24.28 3.26031 24.32C3.53031 24.36 3.93031 24.33 4.13031 24.31C4.33031 24.3 4.33031 24.3 4.33031 24.39C4.33031 24.49 4.33031 24.67 4.39031 24.83C4.44031 24.98 4.56031 25.11 4.76031 25.17C4.96031 25.23 5.24031 25.23 5.38031 25.23C5.52031 25.23 5.52031 25.23 5.54031 22.28C5.56031 19.34 5.59031 13.44 5.61031 10.48C5.62031 7.51998 5.62031 7.48998 5.82031 7.41998C6.01031 7.34998 6.40031 7.24998 10.1803 6.68998C13.9703 6.12998 21.1503 5.11998 24.7403 4.61998C28.3303 4.10998 28.3303 4.10998 28.1203 4.07998C27.9203 4.04998 27.5003 3.98998 27.2903 3.95999C27.0903 3.92999 27.0603 3.77998 27.0903 3.59998C27.1203 3.43998 27.1503 2.96999 27.1403 2.50998C27.1303 2.44999 27.1303 2.38998 27.1303 2.33998L24.7503 2.62999C24.6703 2.63999 24.6103 2.58999 24.6103 2.50998V2.38999C24.6103 2.30999 24.6703 2.23998 24.7503 2.22998L27.1303 1.92998C27.1503 1.83998 27.2103 1.91998 27.3603 1.89998C27.5803 1.86998 28.0303 1.80998 28.2603 1.77998C28.4803 1.74998 28.4803 1.74998 28.2603 1.63998C28.0503 1.52998 27.6203 1.30998 27.2303 1.16998C26.8403 1.01998 26.4903 0.939985 26.0803 0.899985C25.6703 0.869985 25.2003 0.869985 21.5303 1.20998C17.8603 1.54998 11.0003 2.22998 7.54031 2.61998C4.08031 3.00998 4.02031 3.11999 3.82031 3.40999C3.62031 3.69999 3.27031 4.15998 3.09031 4.42998C2.91031 4.68998 2.89031 4.74998 2.98031 4.93998C3.07031 5.11998 3.28031 5.42998 3.36031 5.65998C3.44031 5.89998 3.41031 6.04998 3.35031 6.05998C3.30031 6.06998 3.21031 5.92998 3.08031 5.76998C2.95031 5.61998 2.76031 5.44998 2.67031 5.45998ZM6.20031 4.65998L9.10031 4.28998C9.18031 4.28998 9.25031 4.33998 9.25031 4.40998V4.53998C9.25031 4.61998 9.18031 4.68998 9.10031 4.69998L6.20031 5.05998C6.12031 5.06998 6.06031 5.00998 6.06031 4.93998V4.80998C6.06031 4.73998 6.12031 4.66998 6.20031 4.65998ZM10.8403 4.04999C11.8103 3.92999 12.7703 3.80998 13.7403 3.68999C13.8203 3.67999 13.8903 3.72998 13.8903 3.80998C13.8903 3.84998 13.8903 3.88999 13.8903 3.92999C13.8903 4.00998 13.8203 4.07999 13.7403 4.08999C12.7703 4.20999 11.8103 4.32998 10.8403 4.44998C10.7603 4.45998 10.6903 4.40998 10.6903 4.32998C10.6903 4.28998 10.6903 4.24998 10.6903 4.20999C10.6903 4.12999 10.7603 4.05999 10.8403 4.04999ZM15.4803 3.43999C16.4403 3.31999 17.4103 3.19998 18.3803 3.07998C18.4603 3.06998 18.5303 3.12999 18.5303 3.19999C18.5303 3.23998 18.5303 3.28998 18.5303 3.32998C18.5303 3.39998 18.4603 3.46999 18.3803 3.47998C17.4103 3.59998 16.4403 3.71999 15.4803 3.83998C15.4003 3.84998 15.3303 3.79998 15.3303 3.71999C15.3303 3.67999 15.3303 3.63998 15.3303 3.59998C15.3303 3.51998 15.4003 3.44999 15.4803 3.43999ZM20.1103 2.83998C21.0803 2.71998 22.0503 2.59999 23.0203 2.47998C23.1003 2.46999 23.1603 2.51998 23.1603 2.58998C23.1603 2.63998 23.1603 2.67999 23.1603 2.71999C23.1603 2.79999 23.1003 2.86999 23.0203 2.87999C22.0503 2.99998 21.0803 3.11999 20.1103 3.23998C20.0303 3.24998 19.9703 3.18998 19.9703 3.11998C19.9703 3.07998 19.9703 3.02998 19.9703 2.98998C19.9703 2.91999 20.0303 2.84998 20.1103 2.83998ZM4.06031 7.98998C4.61031 7.98998 5.06031 8.52998 5.06031 9.18998C5.06031 9.84998 4.61031 10.39 4.06031 10.39C3.52031 10.39 3.07031 9.84998 3.07031 9.18998C3.07031 8.52998 3.52031 7.98998 4.06031 7.98998Z" fill="#1974BF"/>
<path fill-rule="evenodd" clip-rule="evenodd" d="M4.75023 25.85C5.30023 25.85 5.75023 26.38 5.75023 27.05C5.75023 27.59 5.45023 28.05 5.04023 28.19C5.08023 28.16 5.12023 28.12 5.15023 28.08C5.34023 27.84 5.46023 27.52 5.46023 27.17C5.46023 26.82 5.34023 26.5 5.15023 26.27C4.98023 26.06 4.75023 25.92 4.49023 25.89C4.57023 25.86 4.66023 25.85 4.75023 25.85Z" fill="#1974BF"/>
<path d="M4.23023 28.44C4.777 28.44 5.22023 27.9028 5.22023 27.24C5.22023 26.5773 4.777 26.04 4.23023 26.04C3.68347 26.04 3.24023 26.5773 3.24023 27.24C3.24023 27.9028 3.68347 28.44 4.23023 28.44Z" fill="#1974BF"/>
</svg>
