<svg width="30" height="31" viewBox="0 0 30 31" fill="none" xmlns="http://www.w3.org/2000/svg">
<path d="M27.4695 15.09C27.7495 15.05 28.0095 15.06 28.2495 15.13C28.6495 15.25 28.9695 15.52 29.2195 15.91C29.4395 16.25 29.5895 16.69 29.6595 17.21C29.7895 18.11 29.6995 19.28 29.3495 20.57C28.9395 22.08 28.2396 23.51 27.4395 24.59C26.5995 25.73 25.6395 26.5 24.7495 26.64C24.4695 26.68 24.2095 26.67 23.9695 26.6C23.5695 26.48 23.2395 26.21 22.9995 25.83C22.7795 25.48 22.6295 25.04 22.5495 24.52C22.4195 23.62 22.5096 22.45 22.8696 21.16C23.2796 19.65 23.9796 18.22 24.7796 17.14C25.6095 16.01 26.5795 15.23 27.4695 15.09ZM27.9695 16.14C27.8695 16.11 27.7496 16.1 27.6196 16.12C26.9896 16.22 26.2495 16.85 25.5695 17.78C24.8395 18.76 24.2095 20.06 23.8295 21.45C23.5195 22.59 23.4296 23.6 23.5396 24.37C23.5996 24.73 23.6895 25.03 23.8295 25.25C23.9395 25.43 24.0795 25.55 24.2395 25.59C24.3495 25.62 24.4595 25.63 24.5995 25.61C25.2295 25.51 25.9695 24.88 26.6495 23.96C27.3695 22.98 28.0095 21.67 28.3895 20.28C28.6995 19.14 28.7895 18.13 28.6695 17.37C28.6195 17 28.5195 16.7 28.3895 16.48C28.2695 16.3 28.1395 16.19 27.9695 16.14Z" fill="#1974BF"/>
<path d="M18.9203 26.09C18.1603 26.62 17.3903 26.95 16.6503 27.09C15.8403 27.23 15.0703 27.15 14.3703 26.82C12.7603 26.08 11.8203 24.27 11.5803 21.93C11.3703 19.84 11.7403 17.26 12.7203 14.71C12.8103 14.5 12.8803 14.32 12.9403 14.17C13.9503 11.8 15.3403 9.87 16.8203 8.66C18.4603 7.31 20.2403 6.81 21.8103 7.47C21.8703 7.5 21.9103 7.51 21.9203 7.52C22.6003 7.83 23.1803 8.35 23.6403 9.06C24.0603 9.7 24.3703 10.5 24.5503 11.41L24.1903 11.49L23.8803 11.2C23.3603 10.71 22.8403 10.22 22.4803 9.94C21.3803 9.08 19.2203 9.61 18.1803 10.47C16.9803 11.46 15.8203 13.07 14.9603 15.1C14.8803 15.28 14.8203 15.44 14.7703 15.57C13.9203 17.77 13.6003 19.95 13.7703 21.7C13.9303 23.21 14.4303 24.33 15.2603 24.71C15.8503 24.99 17.7603 26.16 18.2103 26.07C18.3103 26.05 18.6803 26.03 18.8203 26L18.8503 25.99L18.9203 26.09Z" fill="#1974BF"/>
<path d="M19.9202 26.59C18.8102 27.67 17.6702 28.39 16.5802 28.75C15.4802 29.11 14.4202 29.1 13.5002 28.68C11.7802 27.9 10.7502 25.87 10.4802 23.22C10.2202 20.6 10.6902 17.36 11.9602 14.13C12.0102 14 12.0702 13.85 12.1302 13.71C13.4202 10.62 15.2102 8.12995 17.1002 6.58995C19.0102 5.01995 21.0202 4.41995 22.6902 5.13995C22.7202 5.14995 22.7402 5.15995 22.7602 5.16995C23.7702 5.62995 24.5602 6.53995 25.0902 7.78995C25.6202 9.02995 25.8802 10.61 25.8402 12.41H25.5702C25.6102 10.64 25.3502 9.10995 24.8402 7.90995C24.3402 6.71995 23.6002 5.86995 22.6502 5.43995C22.6302 5.42995 22.6102 5.41995 22.5902 5.40995C21.0102 4.72995 19.1002 5.30995 17.2702 6.80995C15.4202 8.32995 13.6502 10.78 12.3802 13.82C12.3302 13.96 12.2702 14.1 12.2202 14.24C10.9602 17.43 10.4902 20.62 10.7602 23.19C11.0202 25.74 11.9902 27.68 13.6102 28.42C14.4702 28.81 15.4602 28.82 16.5002 28.48C17.5502 28.13 18.6502 27.43 19.7302 26.38L19.9202 26.59Z" fill="#1974BF"/>
<path fill-rule="evenodd" clip-rule="evenodd" d="M23.2396 5.42998C20.7296 4.33998 18.2096 3.24998 16.9596 2.69998C15.6996 2.15998 15.6996 2.15998 15.2496 2.21998C14.7996 2.27998 13.8896 2.38998 12.8996 2.76998C11.9196 3.14998 10.8596 3.79998 9.95963 4.55998C9.05963 5.32998 8.31963 6.22998 7.65963 7.19998C6.99963 8.17998 6.41963 9.23997 5.94963 10.48C5.47963 11.72 5.11963 13.15 4.91963 14.47C4.71963 15.8 4.68963 17.02 4.76963 18.17C4.84963 19.32 5.02963 20.42 5.32963 21.37C5.62963 22.33 6.03963 23.15 6.23963 23.56C6.44963 23.97 6.44963 23.97 7.53963 24.72C8.63963 25.46 10.8396 26.94 13.0396 28.43C13.1196 28.43 13.2096 28.42 12.8296 28.07C12.4596 27.72 11.6396 27.02 11.1596 25.85C10.6796 24.68 10.5596 23.04 10.5696 21.58C10.5896 20.12 10.7396 18.83 11.1796 17.28C11.6096 15.72 12.3196 13.91 13.0396 12.43C13.7596 10.96 14.4896 9.82998 15.2996 8.84998C16.0996 7.85998 16.9696 7.02998 17.7296 6.44998C18.4896 5.86998 19.1296 5.54998 19.6996 5.33998C20.2796 5.13998 20.7896 5.05998 21.3696 5.09998C21.9496 5.12998 22.5896 5.27998 23.2396 5.42998Z" fill="#1974BF"/>
<path fill-rule="evenodd" clip-rule="evenodd" d="M20.9195 10.2101C20.0595 10.6001 18.5395 11.4301 17.7795 11.8501C17.0195 12.2601 17.0195 12.2601 16.5595 13.3201C16.0995 14.3701 15.1695 16.4801 14.7095 17.5401C14.2395 18.5901 14.2395 18.5901 14.4295 19.5501C14.6195 20.5001 14.9995 22.4201 15.1895 23.3701C15.3795 24.3301 15.3795 24.3301 15.8495 24.5801C16.3195 24.8301 17.2595 25.3401 17.7295 25.5901C18.2095 25.8401 18.2095 25.8401 18.3895 25.8001C18.5795 25.7601 18.9495 25.6801 19.0995 25.6401C19.2595 25.6101 19.1995 25.6101 18.9395 25.5401C18.6895 25.4601 18.2395 25.3001 18.0195 25.2201C17.7995 25.1401 17.7995 25.1401 17.5995 24.2301C17.3995 23.3101 16.9995 21.4901 16.7895 20.5301C16.5795 19.5701 16.5595 19.4601 16.9595 18.4201C17.3495 17.3701 18.1695 15.3801 18.5695 14.3901C18.9795 13.3901 18.9795 13.3901 19.6495 13.0201C20.3095 12.6401 21.6495 11.8901 22.3195 11.5101C22.9895 11.1301 22.9895 11.1301 22.9895 11.1301C22.9895 11.1301 22.9895 11.1301 23.0995 11.1801C23.2195 11.2301 23.4595 11.3201 23.6895 11.4101C23.1795 10.9301 22.6695 10.4401 22.3195 10.1701C21.9695 9.89006 21.7795 9.83006 20.9195 10.2101Z" fill="#1974BF"/>
<path fill-rule="evenodd" clip-rule="evenodd" d="M8.34988 2.16L10.3799 3.17C10.0999 3.37 9.91988 3.51 9.33988 4.01C8.74988 4.5 7.69988 5.67 7.03988 6.65C6.37988 7.62 5.79988 8.68 5.32988 9.92C4.85988 11.16 4.49988 12.59 4.29988 13.92C4.10988 15.24 4.10988 17 4.14988 17.61C4.18988 18.22 4.28988 19.2 4.28988 19.26L1.64988 17.65C-1.32012 13.42 3.60988 1.63 8.34988 2.16Z" fill="#1974BF"/>
<path fill-rule="evenodd" clip-rule="evenodd" d="M27.6398 14.3399C27.0098 13.9799 25.5798 13.1999 24.7998 12.7899C24.0198 12.3699 23.8798 12.3199 23.6698 12.3199C23.4498 12.3199 23.1498 12.3699 22.6698 12.5599C22.1898 12.7499 21.5298 13.0699 20.9498 13.5299C20.3598 13.9899 19.8598 14.5799 19.3898 15.2099C18.9198 15.8399 18.4798 16.4999 18.1798 17.2299C17.8798 17.9599 17.7198 18.7599 17.6398 19.5099C17.5698 20.2699 17.5698 20.9699 17.6298 21.6299C17.6998 22.2799 17.8398 22.8899 17.9798 23.3299C18.1198 23.7599 18.2598 24.0299 18.3498 24.1699C18.4298 24.3199 18.4598 24.3299 19.1998 24.8199C19.9398 25.3099 21.3898 26.2699 22.2298 26.7499C23.0798 27.2399 23.3098 27.2399 23.5098 27.2199C23.7198 27.2099 23.8798 27.1799 23.7798 27.1299C23.6898 27.0899 23.3298 27.0199 22.9998 26.7499C22.6698 26.4899 22.3698 26.0299 22.1498 25.4399C21.9398 24.8499 21.8098 24.1299 21.8698 23.2199C21.9298 22.2999 22.1798 21.1799 22.4898 20.2299C22.8098 19.2799 23.1998 18.5099 23.6398 17.8099C24.0798 17.0999 24.5698 16.4699 25.0498 15.9999C25.5298 15.5299 25.9998 15.2099 26.3898 15.0099C26.7898 14.7999 27.1098 14.6999 27.3598 14.6399C27.5998 14.5899 27.7698 14.5899 27.9298 14.6199C28.0998 14.6499 28.2698 14.6999 27.6398 14.3399Z" fill="#1974BF"/>
</svg>
