<svg width="121" height="121" fill="none" xmlns="http://www.w3.org/2000/svg"><path opacity="0.967" fill-rule="evenodd" clip-rule="evenodd" d="M96.0078 4.13284C97.1321 4.04403 98.2259 4.16122 99.2891 4.4844C100.174 10.8795 97.6738 15.4888 91.7891 18.3125C78.5077 23.9375 65.2266 29.5625 51.9453 35.1875C51.4138 35.5527 51.1405 36.0603 51.125 36.711C51.1116 39.774 50.9556 42.8209 50.6563 45.8516C49.6191 48.1082 47.8613 49.202 45.3828 49.1328C45.3828 50.3828 45.3828 51.6329 45.3828 52.8828C47.8613 52.8137 49.6191 53.9075 50.6563 56.1641C50.9373 56.9202 51.0545 57.7014 51.0078 58.5078C69.9141 58.4687 88.8205 58.5078 107.727 58.625C113.105 60.0578 116.074 63.5342 116.633 69.0547C116.648 69.7871 116.531 70.4903 116.281 71.1641C115.381 71.7118 114.405 72.0634 113.352 72.2188C113.229 72.3503 113.151 72.5066 113.117 72.6875C114.158 75.043 114.275 77.4257 113.469 79.836C112.559 81.4478 111.192 82.4242 109.367 82.7656C106.086 83.7031 102.805 84.6406 99.5234 85.5781C97.0993 85.9869 95.1071 85.2446 93.5469 83.3516C92.8569 81.8434 92.3101 80.281 91.9063 78.6641C91.8092 78.557 91.692 78.4787 91.5547 78.4297C78.0756 82.4021 64.5598 86.2302 51.0078 89.9141C51.0078 93.8985 51.0078 97.8828 51.0078 101.867C53.9546 102.509 55.7907 104.306 56.5156 107.258C56.672 110.07 56.672 112.883 56.5156 115.695C56.428 115.91 56.3108 116.105 56.1641 116.281C47.5899 116.553 38.9961 116.671 30.3828 116.633C21.7696 116.671 13.1758 116.553 4.60157 116.281C4.4549 116.105 4.33771 115.91 4.25001 115.695C4.09375 112.883 4.09375 110.07 4.25001 107.258C4.97497 104.306 6.8109 102.509 9.75782 101.867C9.71875 86.867 9.75782 71.867 9.87501 56.8672C10.7647 54.2183 12.6006 52.8903 15.3828 52.8828C15.3828 51.6329 15.3828 50.3828 15.3828 49.1328C12.6006 49.1253 10.7647 47.7974 9.87501 45.1485C9.71875 40.3046 9.71875 35.461 9.87501 30.6172C11.8164 20.7852 17.7149 14.9648 27.5703 13.1563C50.4266 10.2213 73.2392 7.21353 96.0078 4.13284ZM94.6016 8.35159C94.948 8.29018 95.2604 8.3683 95.5391 8.58596C94.8629 10.8369 93.5347 12.5947 91.5547 13.8594C77.3867 19.9095 63.2462 26.0033 49.1328 32.1407C48.3624 32.9124 47.7765 33.811 47.375 34.836C47.297 37.7265 47.2187 40.6173 47.1406 43.5078C47.0455 44.2096 46.6939 44.7174 46.0859 45.0313C35.8653 45.4182 25.6311 45.4963 15.3828 45.2657C14.681 45.1705 14.1732 44.8189 13.8594 44.211C13.42 39.8453 13.42 35.4702 13.8594 31.086C15.8032 22.6584 21.0766 17.9318 29.6797 16.9063C51.3666 14.1468 73.0074 11.2952 94.6016 8.35159ZM19.1328 49.1328C26.6328 49.1328 34.1328 49.1328 41.6328 49.1328C41.6328 50.3828 41.6328 51.6329 41.6328 52.8828C34.1328 52.8828 26.6328 52.8828 19.1328 52.8828C19.1328 51.6329 19.1328 50.3828 19.1328 49.1328ZM15.3828 56.6328C25.3831 56.5937 35.3832 56.6328 45.3828 56.75C46.4375 56.8672 47.0234 57.4532 47.1406 58.5078C47.2578 72.8825 47.297 87.2577 47.2578 101.633C36.0078 101.633 24.7578 101.633 13.5078 101.633C13.4687 87.2577 13.5078 72.8825 13.625 58.5078C13.7845 57.4506 14.3704 56.8257 15.3828 56.6328ZM51.0078 62.2578C69.133 62.2187 87.2579 62.2578 105.383 62.375C109.117 62.7167 111.539 64.67 112.648 68.2344C92.1343 74.1353 71.6265 80.0338 51.125 85.9297C51.0078 78.0395 50.9687 70.1488 51.0078 62.2578ZM108.664 73.5078C108.898 73.4877 109.093 73.566 109.25 73.7422C109.784 75.0282 110.019 76.3564 109.953 77.7266C109.865 77.9413 109.748 78.1367 109.602 78.3125C106.056 79.5505 102.463 80.6443 98.8203 81.5938C98.0605 81.8249 97.4356 81.6294 96.9453 81.0078C96.2806 79.8046 95.9682 78.5546 96.0078 77.2578C100.253 76.0025 104.472 74.7524 108.664 73.5078ZM11.6328 105.383C24.133 105.344 36.6331 105.383 49.1328 105.5C51.2813 105.774 52.4921 106.984 52.7656 109.133C52.8826 110.38 52.9217 111.63 52.8828 112.883C37.8828 112.883 22.8828 112.883 7.88282 112.883C7.81537 111.227 7.93255 109.587 8.23438 107.961C8.89565 106.443 10.0285 105.583 11.6328 105.383Z" fill="#1974BF"/><path opacity="0.927" fill-rule="evenodd" clip-rule="evenodd" d="M104.445 92.2578C105.261 92.1838 106.042 92.301 106.789 92.6094C110.446 96.1323 113.063 100.312 114.641 105.148C115.442 110.147 113.606 113.78 109.133 116.047C103.53 117.801 99.3499 116.121 96.5938 111.008C95.7618 108.248 95.8401 105.514 96.8282 102.805C98.7074 98.7824 101.246 95.2667 104.445 92.2578ZM105.149 97.1797C107.39 99.3901 109.147 101.968 110.422 104.914C111.556 109.371 109.876 111.949 105.383 112.648C100.889 111.949 99.2097 109.371 100.344 104.914C101.626 102.115 103.227 99.5368 105.149 97.1797Z" fill="#1974BF"/></svg>