<svg width="141" height="128" fill="none" xmlns="http://www.w3.org/2000/svg"><g clip-path="url(#clip0_8725_913)"><path opacity="0.942" fill-rule="evenodd" clip-rule="evenodd" d="M140.863 24.0497C140.863 47.7477 140.863 71.4455 140.863 95.1435C140.2 96.3089 139.288 97.2659 138.129 98.0146C133.477 100.318 128.555 101.776 123.363 102.39C106.491 104.755 89.7198 104.208 73.0508 100.749C70.7979 100.15 68.6558 99.2841 66.625 98.1513C51.8296 105.911 37.1093 105.774 22.4648 97.7411C10.147 90.0204 2.94649 78.9461 0.863281 64.5185C0.863281 61.2372 0.863281 57.956 0.863281 54.6747C4.09228 34.8103 15.3944 22.0955 34.7695 16.5302C45.9556 14.0787 56.5743 15.5826 66.625 21.0419C68.6558 19.9091 70.7979 19.0431 73.0508 18.4443C89.7198 14.9852 106.491 14.4383 123.363 16.8036C128.194 17.4416 132.843 18.7177 137.309 20.6318C138.819 21.4589 140.004 22.598 140.863 24.0497ZM42.6992 19.9482C60.0838 19.9903 72.7987 27.6465 80.8438 42.9169C87.2523 58.5116 85.1559 72.8214 74.5547 85.8466C61.5648 99.0181 46.389 102.345 29.0273 95.8271C11.5656 86.9308 3.86379 72.6664 5.92188 53.0341C8.72581 39.2969 16.4276 29.4075 29.0273 23.3661C33.4472 21.5319 38.0046 20.3928 42.6992 19.9482ZM97.3867 19.9482C105.901 19.838 114.378 20.3392 122.816 21.4521C127.209 21.9577 131.402 23.1425 135.395 25.0068C135.629 25.1951 135.811 25.4229 135.941 25.6903C134.319 26.911 132.496 27.7769 130.473 28.288C121.211 30.4173 111.823 31.4656 102.309 31.4325C95.4418 31.3426 88.6058 30.8411 81.8008 29.9286C80.0456 29.6689 78.3139 29.3041 76.6055 28.8349C75.089 27.136 73.403 25.6321 71.5469 24.3232C71.3853 24.0544 71.4766 23.872 71.8203 23.7763C75.6058 22.5269 79.4793 21.661 83.4414 21.1786C88.1205 20.6293 92.7689 20.2191 97.3867 19.9482ZM135.941 31.1591C136.306 33.8875 136.488 36.7129 136.488 39.6357C136.443 42.4611 136.397 45.2868 136.352 48.1122C135.509 48.8759 134.552 49.4685 133.48 49.8896C127.354 51.9168 121.065 53.1019 114.613 53.4443C105.947 54.0245 97.2883 53.9791 88.6367 53.3075C87.7448 46.5741 85.3749 40.4218 81.5273 34.8505C88.3403 35.4934 95.1762 35.9035 102.035 36.081C110.199 36.0033 118.312 35.3197 126.371 34.0302C129.735 33.5309 132.925 32.5739 135.941 31.1591ZM135.668 53.8544C136.137 56.6735 136.411 59.5903 136.488 62.6044C136.132 65.2434 136.132 67.8867 136.488 70.5341C135.96 71.1641 135.322 71.6656 134.574 72.038C127.77 74.456 120.752 75.8232 113.52 76.1396C107.509 76.5369 101.493 76.6279 95.4727 76.413C92.3399 76.3643 89.2407 76.0455 86.1758 75.456C88.3141 69.827 89.3624 63.9935 89.3203 57.956C102.942 59.2039 116.477 58.5203 129.926 55.9052C131.975 55.5098 133.889 54.8262 135.668 53.8544ZM136.215 76.2763C136.533 81.8807 136.578 87.5318 136.352 93.2294C134.98 94.4853 133.384 95.3513 131.566 95.8271C121.919 98.2002 112.121 99.3394 102.172 99.245C93.7574 99.2464 85.4175 98.4718 77.1523 96.9208C75.1672 96.5388 73.2531 95.9463 71.4102 95.1435C74.0335 92.9314 76.5398 90.5615 78.9297 88.0341C80.8664 85.4611 82.6895 82.8177 84.3984 80.1044C99.0867 81.8596 113.716 81.4494 128.285 78.8739C131.085 78.3815 133.728 77.5155 136.215 76.2763Z" fill="#1974BF"/><path opacity="0.938" fill-rule="evenodd" clip-rule="evenodd" d="M36.9574 38.5416C43.4409 38.4188 49.9121 38.5556 56.3715 38.9518C60.166 40.4702 62.4902 43.2502 63.3441 47.2916C64.0045 51.0795 63.5487 54.7253 61.977 58.2291C60.5042 60.7204 58.3621 62.3154 55.5512 63.0143C50.3567 63.151 45.1614 63.1967 39.9652 63.151C39.9652 64.3358 39.9652 65.5209 39.9652 66.7057C47.3486 66.66 54.7314 66.7057 62.1137 66.8424C63.1358 67.2249 63.5913 67.9542 63.4809 69.0299C63.6069 69.9992 63.2424 70.7285 62.3871 71.2174C54.9138 71.3541 47.4396 71.3998 39.9652 71.3541C40.0106 73.9988 39.9652 76.6421 39.8285 79.2838C38.2448 81.1727 36.7862 81.0814 35.4535 79.0104C35.3168 76.46 35.2714 73.9077 35.3168 71.3541C32.7632 71.3995 30.2109 71.3541 27.6605 71.2174C26.2143 70.2576 25.9409 69.0272 26.8402 67.526C27.1588 67.2296 27.5234 67.0018 27.934 66.8424C30.3933 66.7057 32.8542 66.6603 35.3168 66.7057C35.3168 65.5209 35.3168 64.3358 35.3168 63.151C32.7632 63.1964 30.2109 63.151 27.6605 63.0143C26.2636 62.0939 25.9445 60.8634 26.7035 59.3229C26.9503 58.9945 27.2693 58.7664 27.6605 58.6393C30.2109 58.5026 32.7632 58.4572 35.3168 58.5026C35.2711 52.3951 35.3168 46.2884 35.4535 40.1822C35.8254 39.4924 36.3266 38.9455 36.9574 38.5416ZM39.9652 43.1901C39.9652 48.2943 39.9652 53.3983 39.9652 58.5026C45.1791 58.6289 50.3745 58.4922 55.5512 58.0924C58.0047 56.3295 59.1895 53.9143 59.1059 50.8463C59.1882 47.7756 58.0034 45.3603 55.5512 43.6002C50.3745 43.2004 45.1791 43.0637 39.9652 43.1901Z" fill="#1974BF"/></g><defs><clipPath id="clip0_8725_913"><rect width="140" height="128" fill="white" transform="translate(0.5)"/></clipPath></defs></svg>