<svg width="125" height="125" fill="none" xmlns="http://www.w3.org/2000/svg"><path opacity="0.937" fill-rule="evenodd" clip-rule="evenodd" d="M59.2036 7.20219C69.9155 6.70832 80.0879 8.78351 89.7212 13.4278C102.396 20.5718 110.004 31.3548 112.548 45.7764C113.181 49.9842 113.547 54.2159 113.647 58.4717C117.585 61.4009 119.986 65.3072 120.849 70.1905C121.012 76.1311 121.012 82.0721 120.849 88.0127C119.042 95.76 114.2 100.195 106.323 101.318C103.142 101.867 100.172 101.338 97.4116 99.7315C93.4675 106.203 87.7302 110.028 80.1997 111.206C79.2698 114.782 76.9912 116.857 73.3638 117.432C70.1087 117.595 66.8533 117.595 63.5982 117.432C59.2893 116.663 57.0108 114.1 56.7622 109.741C56.7781 106.188 58.4055 103.706 61.645 102.295C65.8638 101.902 70.0957 101.821 74.3403 102.051C77.0923 102.727 78.9639 104.396 79.9556 107.056C86.5684 105.811 91.4512 102.231 94.604 96.3135C94.3765 95.7532 94.1731 95.1834 93.9937 94.6045C93.8308 83.6182 93.8308 72.6319 93.9937 61.6455C94.4436 59.6023 95.5015 57.9746 97.1675 56.7627C97.26 36.1829 87.0469 24.8304 66.5279 22.7051C57.1961 21.7773 48.4885 23.6491 40.4048 28.3204C32.6292 33.8973 28.3567 41.5064 27.5874 51.1475C27.4246 53.0193 27.4246 54.8909 27.5874 56.7627C29.2522 57.972 30.3103 59.5994 30.7612 61.6455C30.9241 72.6319 30.9241 83.6182 30.7612 94.6045C29.2446 99.4121 25.9487 101.691 20.8736 101.44C13.4065 101.473 8.07609 98.1363 4.88234 91.4307C4.45742 90.3189 4.13188 89.1795 3.90578 88.0127C3.67292 81.6551 3.75432 75.3074 4.14992 68.9698C5.25414 64.6402 7.57348 61.1407 11.1079 58.4717C10.984 50.0992 12.4896 42.0425 15.6245 34.3018C22.2236 20.5462 33.0064 12.0419 47.9732 8.7891C51.7193 8.01679 55.4627 7.48783 59.2036 7.20219ZM59.4478 11.3526C69.8157 10.8461 79.5813 13.0027 88.7446 17.8223C101.31 25.7283 108.105 37.1624 109.13 52.1241C109.333 53.4336 109.292 54.7359 109.008 56.0303C106.59 55.0743 104.108 54.7488 101.562 55.0537C101.748 43.9988 97.8821 34.6807 89.9653 27.0996C81.8391 20.9601 72.6431 18.0711 62.3775 18.4327C54.3482 18.2225 46.7798 19.9722 39.6724 23.6817C30.8706 29.1075 25.6216 36.9607 23.9253 47.2412C23.5003 49.8279 23.2561 52.4319 23.1929 55.0537C20.6482 54.7486 18.1662 55.074 15.7466 56.0303C15.288 41.1219 20.9033 29.1184 32.5923 20.0196C40.7498 14.6441 49.7017 11.7551 59.4478 11.3526ZM20.3853 58.96C23.3492 58.5486 25.4243 59.688 26.6109 62.378C26.7737 72.876 26.7737 83.3741 26.6109 93.8721C25.5606 96.4129 23.6482 97.5523 20.8736 97.2901C14.1906 97.1849 9.91813 93.9297 8.05617 87.5245C7.57099 81.9087 7.57099 76.2935 8.05617 70.6787C9.75912 64.2144 13.8688 60.3081 20.3853 58.96ZM101.684 58.96C109.121 59.1155 114.045 62.6961 116.455 69.7022C116.697 70.6646 116.86 71.6411 116.943 72.6319C117.106 76.7823 117.106 80.9327 116.943 85.083C116.347 91.701 112.807 95.7293 106.323 97.168C104.513 97.3853 102.722 97.304 100.952 96.9239C99.5874 96.2925 98.6516 95.2752 98.1441 93.8721C97.9812 83.3741 97.9812 72.876 98.1441 62.378C98.8152 60.6892 99.9951 59.5501 101.684 58.96ZM63.354 106.079C66.773 106.038 70.1909 106.079 73.6079 106.201C75.6516 107.156 76.4246 108.742 75.9273 110.962C75.4292 112.274 74.4934 113.048 73.1196 113.281C69.688 113.508 66.27 113.427 62.8657 113.037C60.8496 111.616 60.4021 109.785 61.523 107.544C62.0391 106.904 62.6494 106.416 63.354 106.079Z" fill="#1974BF"/><path opacity="0.931" fill-rule="evenodd" clip-rule="evenodd" d="M57.7393 36.9872C60.8328 36.9464 63.9254 36.9872 67.0167 37.1093C70.2457 38.1479 71.8326 40.3859 71.7774 43.8232C72.7615 44.9264 73.9822 45.6588 75.4395 46.0204C79.8399 43.8527 83.1766 44.9106 85.4493 49.1942C86.3445 50.8219 87.2396 52.4494 88.1348 54.0771C88.9366 56.0976 88.7737 58.0507 87.6465 59.9364C86.6568 60.9262 85.6802 61.9027 84.7169 62.8661C84.554 63.924 84.554 64.9821 84.7169 66.0399C85.8438 67.0866 86.9019 68.226 87.8907 69.4579C88.8331 71.3014 88.9146 73.1732 88.1348 75.0732C86.7825 77.6569 85.2772 80.1388 83.6182 82.5194C80.9954 84.4889 78.2691 84.611 75.4395 82.8857C74.1927 83.3463 73.0533 83.9975 72.0215 84.8388C71.8179 86.7936 71.1668 88.5839 70.0684 90.2099C68.8653 91.3195 67.4412 91.9298 65.796 92.0409C63.5174 92.2038 61.2386 92.2038 58.96 92.0409C55.0587 91.3927 53.0648 89.0734 52.9786 85.0829C52.067 84.2401 51.0499 83.5485 49.9268 83.0077C48.4698 83.4655 46.9642 83.8317 45.4102 84.1064C43.2964 83.9853 41.5875 83.0902 40.2833 81.4208C38.8533 79.0492 37.5511 76.6078 36.377 74.0966C35.8091 70.8385 36.9485 68.3971 39.795 66.7724C40.2833 65.3075 40.2833 63.8427 39.795 62.3778C38.4818 61.4716 37.4236 60.3322 36.6212 58.9599C36.2508 57.5976 36.1693 56.214 36.377 54.8095C37.7862 51.7052 39.5357 48.8161 41.626 46.1425C43.3504 45.0976 45.2222 44.7721 47.2413 45.1659C47.9244 45.5893 48.6568 45.8742 49.4385 46.0204C50.8401 45.6259 52.0201 44.8935 52.9786 43.8232C53.0711 40.4535 54.658 38.1747 57.7393 36.9872ZM58.4717 41.1376C58.1817 41.3485 57.8968 41.5927 57.6172 41.87C57.482 43.6039 56.9937 45.2316 56.1524 46.7528C53.9488 49.1779 51.2225 50.2765 47.9737 50.0487C47.1505 49.6567 46.296 49.372 45.4102 49.1942C44.93 49.2045 44.4822 49.3266 44.0674 49.5605C42.8875 51.5544 41.7073 53.548 40.5274 55.5419C40.3345 56.307 40.4158 57.0395 40.7715 57.7392C42.2506 58.4858 43.3084 59.6252 43.9454 61.1571C45.3179 65.5258 44.1785 69.0251 40.5274 71.6552C40.3646 72.2248 40.3646 72.7946 40.5274 73.3642C41.6968 75.5004 42.9583 77.5756 44.3116 79.5898C44.6468 79.8034 45.013 79.9254 45.4102 79.956C46.6754 79.3036 48.0181 78.8969 49.4385 78.7353C51.5953 79.1217 53.5484 79.9762 55.2979 81.2987C56.7852 82.9101 57.5582 84.8224 57.6172 87.036C57.8206 87.2394 58.0242 87.443 58.2276 87.6464C60.8138 88.0358 63.418 88.1171 66.0401 87.8905C66.6504 87.6056 67.098 87.1581 67.3829 86.5478C67.4166 84.6549 68.0269 82.9867 69.2139 81.5429C70.9998 80.0805 73.0345 79.1447 75.3174 78.7353C76.907 79.0373 78.4534 79.4035 79.9561 79.8339C80.3922 79.6422 80.7584 79.3576 81.0547 78.9794C81.8882 77.3932 82.7835 75.8471 83.7403 74.3407C84.3882 73.4774 84.5511 72.5822 84.2286 71.6552C83.2603 70.9315 82.3651 70.1178 81.543 69.2138C81.0809 68.4525 80.7554 67.6388 80.5665 66.7724C79.9368 63.8041 80.5472 61.1593 82.3975 58.8378C84.0672 58.3112 84.6775 57.2126 84.2286 55.5419C83.0486 53.548 81.8685 51.5544 80.6885 49.5605C80.2737 49.3266 79.826 49.2045 79.3458 49.1942C78.4022 49.4416 77.4664 49.7265 76.5381 50.0487C75.7244 50.2116 74.9105 50.2116 74.0967 50.0487C72.574 49.4501 71.1092 48.7177 69.7022 47.8515C68.1287 46.4721 67.3558 44.7223 67.3829 42.6025C67.2103 42.2165 67.0069 41.8503 66.7725 41.5038C64.0306 41.1483 61.2637 41.0263 58.4717 41.1376Z" fill="#1974BF"/><path opacity="0.93" fill-rule="evenodd" clip-rule="evenodd" d="M60.9127 52.124C67.8837 52.0058 72.4003 55.2609 74.4625 61.8896C75.39 68.2949 72.9894 72.9741 67.2604 75.9277C61.2389 77.933 56.234 76.5087 52.2457 71.6552C49.1669 66.7187 49.2484 61.8359 52.4899 57.0068C54.6871 54.2712 57.4947 52.6435 60.9127 52.124ZM61.1568 56.2743C58.0917 56.9369 55.9352 58.7272 54.6871 61.6454C53.4537 67.0312 55.4476 70.6528 60.6686 72.5097C66.462 72.903 69.7985 70.2175 70.6783 64.4531C69.8771 58.9728 66.7032 56.2465 61.1568 56.2743Z" fill="#1974BF"/></svg>