<svg width="289" height="74" fill="none" xmlns="http://www.w3.org/2000/svg"><path d="M9.3816 47.5755H18.3461V69.8226H9.3816V47.5755ZM0 43.7109H27.7281V51.7184H0V43.7109ZM53.788 53.6682V59.8653H34.156V53.6682H53.788ZM40.3061 56.7669L38.7077 66.4806L35.3026 62.7205H55.0735V69.8229H29.8473L31.7582 56.7669L29.8473 43.7109H54.8995V50.8134H35.3022L38.7074 47.0532L40.3061 56.7669ZM73.9409 43.7109C76.3035 43.7109 78.3246 44.0996 80.004 44.877C81.6834 45.6545 82.9633 46.7569 83.8437 48.1845C84.7237 49.6121 85.1639 51.2889 85.1639 53.2155C85.1639 55.1418 84.7237 56.819 83.8437 58.2465C82.9633 59.6738 81.6837 60.7766 80.004 61.554C78.3246 62.3314 76.3035 62.7201 73.9409 62.7201H62.9262V55.7221H73.3502C74.2306 55.7221 74.9139 55.5017 75.4004 55.0606C75.8868 54.6196 76.1303 54.0045 76.1303 53.2155C76.1303 52.4033 75.8872 51.7823 75.4004 51.3529C74.9139 50.9234 74.2306 50.7086 73.3502 50.7086H63.6905L67.721 46.6701V69.8226H58.7564V43.7109H73.9409ZM127.972 43.7109V69.8226H119.459V47.088L121.092 47.2968L112.336 69.8226H103.476L94.7195 47.4012L96.3526 47.1576V69.8226H87.8398V43.7109H101.704L109.487 64.9835H106.394L114.108 43.7109H127.972Z" fill="#FF0000"/><path d="M192.717 53.6681V59.8652H173.085V53.6681H192.717ZM179.235 56.7669L177.637 66.4806L174.232 62.7204H194.003V69.8229H168.776L170.687 56.7669L168.776 43.7109H193.829V50.8133H174.231L177.636 47.0531L179.235 56.7669ZM216.588 57.1499L217.283 55.5484C219.252 55.618 220.897 55.9315 222.217 56.4885C223.537 57.0456 224.528 57.8173 225.188 58.8039C225.848 59.7904 226.178 60.9681 226.178 62.3377C226.178 63.7537 225.859 65.0301 225.222 66.1674C224.585 67.3047 223.618 68.1985 222.321 68.8483C221.024 69.4981 219.402 69.8232 217.456 69.8232H196.991L198.971 56.4193L196.991 43.7116H216.727C219.136 43.7116 221.024 44.2742 222.39 45.4003C223.757 46.526 224.441 48.0868 224.441 50.083C224.441 51.2203 224.186 52.288 223.676 53.2861C223.167 54.2842 222.338 55.1256 221.192 55.8102C220.045 56.4948 218.51 56.9412 216.588 57.1499ZM205.747 67.873L202.342 63.8693H214.607C215.371 63.8693 215.974 63.6662 216.414 63.2599C216.854 62.854 217.074 62.3025 217.074 61.6063C217.074 60.9797 216.86 60.4458 216.431 60.0048C216.002 59.5637 215.371 59.3433 214.537 59.3433H204.252V53.4942H213.217C213.819 53.4942 214.323 53.3086 214.728 52.9371C215.134 52.5656 215.336 52.0901 215.336 51.5095C215.336 50.9757 215.151 50.5346 214.78 50.1867C214.41 49.8387 213.888 49.6644 213.217 49.6644H202.376L205.746 45.6604L207.518 56.4186L205.747 67.873ZM244.385 43.7109C246.748 43.7109 248.769 44.0996 250.449 44.877C252.128 45.6544 253.408 46.7569 254.288 48.1845C255.168 49.612 255.608 51.2888 255.608 53.2155C255.608 55.1418 255.168 56.8189 254.288 58.2465C253.408 59.6737 252.128 60.7765 250.449 61.554C248.769 62.3314 246.748 62.7201 244.385 62.7201H233.371V55.722H243.795C244.675 55.722 245.358 55.5016 245.845 55.0606C246.331 54.6195 246.575 54.0045 246.575 53.2155C246.575 52.4033 246.332 51.7822 245.845 51.3528C245.358 50.9233 244.675 50.7086 243.795 50.7086H234.135L238.166 46.6701V69.8225H229.201V43.7109H244.385ZM273.156 70.4491C269.982 70.4491 267.208 69.8805 264.834 68.7432C262.459 67.6059 260.612 66.0103 259.292 63.9561C257.971 61.9019 257.311 59.5057 257.311 56.7669C257.311 54.028 257.971 51.6315 259.292 49.5773C260.612 47.523 262.459 45.9275 264.834 44.7902C267.208 43.6529 269.982 43.0842 273.156 43.0842C276.329 43.0842 279.103 43.6529 281.478 44.7902C283.852 45.9275 285.699 47.5234 287.02 49.5773C288.34 51.6315 289 54.028 289 56.7669C289 59.5057 288.34 61.9022 287.02 63.9561C285.7 66.0103 283.852 67.6059 281.478 68.7432C279.103 69.8805 276.329 70.4491 273.156 70.4491ZM273.156 62.4414C274.568 62.4414 275.785 62.215 276.804 61.7624C277.823 61.3097 278.605 60.6599 279.149 59.8125C279.694 58.9655 279.966 57.9498 279.966 56.7662C279.966 55.5825 279.694 54.5668 279.149 53.7198C278.605 52.8728 277.823 52.2226 276.804 51.7699C275.784 51.3173 274.568 51.0909 273.156 51.0909C271.742 51.0909 270.526 51.3173 269.507 51.7699C268.488 52.2226 267.706 52.8724 267.162 53.7198C266.617 54.5668 266.345 55.5825 266.345 56.7662C266.345 57.9498 266.617 58.9652 267.162 59.8125C267.706 60.6595 268.488 61.3097 269.507 61.7624C270.526 62.215 271.742 62.4414 273.156 62.4414Z" fill="#1973BE"/><path d="M139.508 2.2334H158.102C158.308 2.2334 158.497 2.3592 158.633 2.56123C158.771 2.76498 158.855 3.04439 158.855 3.34987C158.855 3.65592 158.771 3.93561 158.634 4.13793C158.497 4.3411 158.308 4.46691 158.102 4.46691H139.508C139.3 4.46691 139.112 4.3411 138.975 4.13907C138.839 3.93618 138.754 3.65621 138.754 3.35044C138.754 3.0441 138.839 2.76412 138.976 2.56181C139.112 2.3592 139.3 2.2334 139.508 2.2334ZM158.102 2.86385H139.508C139.418 2.86385 139.336 2.91858 139.276 3.00713C139.216 3.09396 139.18 3.21604 139.18 3.35015C139.18 3.48484 139.216 3.60692 139.275 3.69375C139.336 3.78201 139.418 3.83675 139.508 3.83675H158.102C158.192 3.83675 158.274 3.7823 158.333 3.69489C158.393 3.60663 158.43 3.48455 158.43 3.35073C158.43 3.21604 158.393 3.09396 158.334 3.00713C158.274 2.91858 158.192 2.86385 158.102 2.86385Z" fill="#1973BE"/><path d="M144.765 6.26123H152.444C153.05 6.26123 153.601 6.50953 153.999 6.9091C154.398 7.30867 154.646 7.86112 154.646 8.4675V19.494C154.646 20.0998 154.398 20.6519 153.998 21.0518C153.6 21.452 153.05 21.7003 152.443 21.7003H144.765C144.161 21.7003 143.61 21.4523 143.211 21.0527C142.811 20.6516 142.563 20.0998 142.563 19.4943V8.46781C142.563 7.86239 142.811 7.31059 143.21 6.91101C143.61 6.50985 144.161 6.26123 144.765 6.26123ZM152.444 6.96335H144.765C144.352 6.96335 143.976 7.1325 143.705 7.40378C143.433 7.67665 143.264 8.05293 143.264 8.46718V19.4937C143.264 19.908 143.433 20.2842 143.704 20.5558C143.976 20.8287 144.352 20.9978 144.765 20.9978H152.443C152.856 20.9978 153.231 20.8287 153.504 20.5558C153.776 20.2846 153.945 19.908 153.945 19.4937V8.46718C153.945 8.05388 153.776 7.67793 153.504 7.40505C153.231 7.13218 152.857 6.96335 152.444 6.96335Z" fill="#1973BE"/><path d="M146.062 8.49341H151.347C151.847 8.49341 152.303 8.69862 152.633 9.02893C152.962 9.35893 153.167 9.81563 153.167 10.317V18.957C153.167 19.4583 152.962 19.915 152.633 20.245C152.303 20.575 151.847 20.7806 151.347 20.7806H146.062C145.562 20.7806 145.106 20.5754 144.777 20.245C144.447 19.915 144.242 19.4583 144.242 18.957V10.317C144.242 9.815 144.447 9.35893 144.777 9.02893C145.106 8.69894 145.562 8.49341 146.062 8.49341ZM151.347 9.19553H146.062C145.755 9.19553 145.475 9.32191 145.272 9.52521C145.069 9.72851 144.943 10.009 144.943 10.317V18.957C144.943 19.2649 145.069 19.5455 145.272 19.7488C145.475 19.9521 145.755 20.0784 146.062 20.0784H151.347C151.654 20.0784 151.934 19.9521 152.137 19.7488C152.34 19.5455 152.466 19.2649 152.466 18.957V10.317C152.466 10.009 152.34 9.72851 152.137 9.52521C151.934 9.32191 151.654 9.19553 151.347 9.19553Z" fill="#1973BE"/><path d="M147.339 8.49341H150.734V20.7802H146.988V8.49341H147.339ZM150.033 9.19553H147.689V20.0781H150.033V9.19553Z" fill="#1973BE"/><path d="M146.722 0.00031958H150.646C150.937 0.00031958 151.19 0.166596 151.363 0.433403C151.507 0.656487 151.597 0.957123 151.597 1.28074V2.12009H145.771V1.28074C145.771 0.956804 145.861 0.656485 146.004 0.434678C146.178 0.165637 146.431 0.00031958 146.722 0.00031958ZM150.646 0.702444H146.722C146.683 0.702444 146.636 0.744888 146.592 0.812866C146.518 0.928079 146.472 1.0934 146.472 1.28074V1.41797H150.896V1.28074C150.896 1.09308 150.85 0.928081 150.777 0.814464C150.733 0.745209 150.685 0.702444 150.646 0.702444Z" fill="#1973BE"/><path d="M128.43 28.9075H169.492V31.8529H128.072V28.9075H128.43ZM168.776 29.625H128.788V31.1354H168.776V29.625Z" fill="#1973BE"/><path d="M128.43 32.6951H169.492V35.6405H128.072V32.6951H128.43ZM168.776 33.4126H128.788V34.923H168.776V33.4126Z" fill="#FF0000"/><path d="M134.675 29.082C135.71 27.3606 137.676 25.9236 140.195 24.9233C142.685 23.9348 145.722 23.366 148.935 23.366C152.148 23.366 155.186 23.9348 157.675 24.9233C160.194 25.9236 162.16 27.3606 163.195 29.082L162.583 29.4522C161.63 27.8665 159.787 26.5306 157.412 25.5877C155.008 24.6327 152.062 24.0835 148.935 24.0835C145.809 24.0835 142.863 24.6327 140.458 25.5877C138.083 26.5309 136.241 27.8668 135.288 29.4522L134.675 29.082Z" fill="#1973BE"/><path d="M133.273 34.9229H164.776L163.585 38.772C153.676 38.7857 143.768 38.8056 133.86 38.8314L132.807 34.9229H133.273ZM163.806 35.6404H133.74L134.407 38.1155L163.058 38.0581L163.806 35.6404Z" fill="#FF0000"/><path d="M148.782 39.5552C153.498 39.5552 157.77 41.4713 160.86 44.5687C163.951 47.6655 165.864 51.9452 165.864 56.671C165.864 61.3969 163.951 65.6766 160.86 68.7737C157.77 71.8707 153.498 73.7872 148.782 73.7872C144.065 73.7872 139.794 71.8711 136.703 68.7737C133.613 65.6766 131.7 61.3969 131.7 56.671C131.7 51.9452 133.613 47.6655 136.703 44.5687C139.794 41.4716 144.065 39.5552 148.782 39.5552ZM160.354 45.0759C157.393 42.1086 153.301 40.2727 148.782 40.2727C144.263 40.2727 140.171 42.1086 137.21 45.0759C134.248 48.0428 132.416 52.1428 132.416 56.671C132.416 61.1992 134.248 65.2992 137.21 68.2665C140.171 71.2338 144.263 73.0697 148.782 73.0697C153.301 73.0697 157.393 71.2338 160.354 68.2665C163.315 65.2992 165.148 61.1992 165.148 56.671C165.148 52.1428 163.315 48.0428 160.354 45.0759Z" fill="#FF0000"/><path d="M148.782 42.8096C152.602 42.8096 156.061 44.3617 158.564 46.8698C161.067 49.3778 162.616 52.8435 162.616 56.6711C162.616 60.4984 161.067 63.9647 158.564 66.4728C156.061 68.9809 152.602 70.533 148.782 70.533C144.962 70.533 141.503 68.9809 138.999 66.4728C136.496 63.9647 134.947 60.4984 134.947 56.6711C134.947 52.8435 136.496 49.3778 138.999 46.8698C141.503 44.3617 144.962 42.8096 148.782 42.8096ZM158.057 47.3769C155.684 44.9987 152.404 43.5271 148.782 43.5271C145.159 43.5271 141.879 44.9987 139.506 47.3769C137.132 49.7552 135.663 53.0418 135.663 56.6711C135.663 60.3008 137.132 63.5874 139.506 65.9656C141.879 68.3439 145.159 69.8155 148.782 69.8155C152.404 69.8155 155.684 68.3439 158.057 65.9656C160.431 63.5874 161.9 60.3008 161.9 56.6711C161.9 53.0418 160.431 49.7552 158.057 47.3769Z" fill="#FF0000"/><path fill-rule="evenodd" clip-rule="evenodd" d="M148.782 43.4431C156.018 43.4431 161.886 49.3208 161.886 56.5729C161.886 63.8251 156.019 69.7031 148.782 69.7031C141.545 69.7031 135.678 63.8251 135.678 56.5729C135.678 49.3211 141.545 43.4431 148.782 43.4431ZM148.782 51.7647C151.524 51.7647 153.746 53.9174 153.746 56.5733C153.746 59.2288 151.524 61.3814 148.782 61.3814C146.04 61.3814 143.818 59.2288 143.818 56.5733C143.818 53.9177 146.04 51.7647 148.782 51.7647Z" fill="#FF0000"/><path d="M134.556 38.4734L134.545 48.4822H133.831L133.842 38.4734H134.556Z" fill="#FF0000"/><path d="M163.744 38.4133L163.798 48.5963L163.084 48.5992L163.03 38.4163L163.744 38.4133Z" fill="#FF0000"/><path d="M139.378 27.4497H142.737V29.5941H139.02V27.4497H139.378ZM142.021 28.1672H139.736V28.8766H142.021V28.1672Z" fill="#1973BE"/><path d="M139.238 34.9363H142.597V37.0804H138.88V34.9363H139.238ZM141.881 35.6538H139.596V36.3625H141.881V35.6538Z" fill="#FF0000"/><path d="M155.198 27.4497H158.557V29.5941H154.84V27.4497H155.198ZM157.841 28.1672H155.556V28.8766H157.841V28.1672Z" fill="#1973BE"/><path d="M155.057 34.9363H158.417V37.0804H154.699V34.9363H155.057ZM157.701 35.6538H155.415V36.3625H157.701V35.6538Z" fill="#FF0000"/><path d="M165.147 27.0552H168.481V29.5147H164.792V27.0552H165.147ZM167.771 27.8781H165.502V28.6918H167.771V27.8781Z" fill="#1973BE"/><path d="M165.058 34.9363H168.418V37.0804H164.7V34.9363H165.058ZM167.702 35.6538H165.416V36.3625H167.702V35.6538Z" fill="#FF0000"/><path d="M129.634 27.4497H132.994V29.5941H129.276V27.4497H129.634ZM132.278 28.1672H129.992V28.8766H132.278V28.1672Z" fill="#1973BE"/><path d="M129.495 34.9363H132.854V37.0804H129.137V34.9363H129.495ZM132.138 35.6538H129.852V36.3625H132.138V35.6538Z" fill="#FF0000"/><path d="M154.518 41.6318C154.798 41.6318 155.053 41.7462 155.238 41.9301C155.423 42.1139 155.538 42.3695 155.538 42.6498C155.538 42.9302 155.423 43.1857 155.238 43.3696C155.053 43.5534 154.798 43.6678 154.518 43.6678C154.238 43.6678 153.983 43.5534 153.798 43.3696C153.613 43.1857 153.498 42.9302 153.498 42.6498C153.498 42.3695 153.613 42.1143 153.798 41.9301C153.983 41.7462 154.238 41.6318 154.518 41.6318ZM154.734 42.437C154.68 42.3829 154.603 42.3486 154.518 42.3486C154.433 42.3486 154.356 42.3825 154.302 42.437C154.248 42.4904 154.214 42.5661 154.214 42.6495C154.214 42.7333 154.248 42.8089 154.302 42.862C154.356 42.9161 154.433 42.9504 154.518 42.9504C154.603 42.9504 154.68 42.9161 154.734 42.862C154.788 42.8086 154.822 42.733 154.822 42.6495C154.822 42.5661 154.788 42.4904 154.734 42.437Z" fill="#FF0000"/><path d="M163.783 49.2708C164.085 49.2708 164.36 49.394 164.559 49.5921C164.758 49.791 164.882 50.066 164.882 50.3681C164.882 50.6702 164.758 50.9452 164.559 51.1436C164.36 51.3418 164.085 51.465 163.783 51.465C163.482 51.465 163.208 51.3417 163.008 51.144C162.809 50.9448 162.685 50.6702 162.685 50.3681C162.685 50.066 162.809 49.7913 163.008 49.5921C163.207 49.394 163.482 49.2708 163.783 49.2708ZM164.016 50.1387C163.957 50.0804 163.875 50.0435 163.783 50.0435C163.692 50.0435 163.609 50.0804 163.55 50.1387C163.492 50.1963 163.456 50.2778 163.456 50.3681C163.456 50.4583 163.492 50.5402 163.55 50.5978C163.608 50.6558 163.692 50.6926 163.783 50.6926C163.875 50.6926 163.957 50.6557 164.016 50.5974C164.074 50.5398 164.11 50.4583 164.11 50.3684C164.11 50.2782 164.074 50.196 164.016 50.1387Z" fill="#FF0000"/><path d="M163.731 61.8032C164.033 61.8032 164.307 61.9265 164.507 62.1243C164.706 62.3231 164.83 62.5981 164.83 62.9002C164.83 63.2023 164.706 63.477 164.507 63.6761C164.307 63.8739 164.033 63.9972 163.731 63.9972C163.43 63.9972 163.155 63.8742 162.956 63.6758C162.757 63.4777 162.633 63.2023 162.633 62.9002C162.633 62.5981 162.757 62.3231 162.956 62.1246C163.155 61.9262 163.43 61.8032 163.731 61.8032ZM163.964 62.6705C163.906 62.6122 163.823 62.5756 163.731 62.5756C163.64 62.5756 163.557 62.6125 163.498 62.6708C163.441 62.7284 163.404 62.8099 163.404 62.8998C163.404 62.9901 163.441 63.0716 163.498 63.1289C163.557 63.1872 163.64 63.224 163.731 63.224C163.823 63.224 163.906 63.1875 163.964 63.1292C164.022 63.0716 164.059 62.9898 164.059 62.8995C164.059 62.8092 164.022 62.7277 163.964 62.6705Z" fill="#FF0000"/><path d="M154.878 70.5571C155.18 70.5571 155.455 70.6804 155.653 70.8785C155.853 71.0773 155.977 71.3524 155.977 71.6545C155.977 71.9565 155.853 72.2319 155.653 72.43C155.455 72.6281 155.18 72.7514 154.878 72.7514C154.577 72.7514 154.302 72.6281 154.103 72.4304C153.904 72.2312 153.779 71.9565 153.779 71.6545C153.779 71.3524 153.903 71.0777 154.103 70.8785C154.302 70.6801 154.576 70.5571 154.878 70.5571ZM155.111 71.4251C155.053 71.3668 154.97 71.3299 154.878 71.3299C154.786 71.3299 154.704 71.3664 154.645 71.4251C154.587 71.4827 154.551 71.5642 154.551 71.6545C154.551 71.7447 154.587 71.8266 154.645 71.8842C154.704 71.9421 154.787 71.979 154.878 71.979C154.97 71.979 155.052 71.9421 155.111 71.8838C155.169 71.8262 155.205 71.7447 155.205 71.6548C155.205 71.5645 155.169 71.4827 155.111 71.4251Z" fill="#FF0000"/><path d="M142.44 70.5098C142.741 70.5098 143.016 70.6331 143.215 70.8312C143.415 71.0293 143.539 71.3047 143.539 71.6067C143.539 71.9088 143.415 72.1839 143.215 72.3823C143.016 72.5804 142.741 72.7037 142.44 72.7037C142.138 72.7037 141.864 72.5804 141.664 72.3827C141.465 72.1838 141.341 71.9088 141.341 71.6067C141.341 71.3047 141.465 71.03 141.664 70.8308C141.864 70.6331 142.138 70.5098 142.44 70.5098ZM142.673 71.3774C142.614 71.3191 142.532 71.2822 142.44 71.2822C142.348 71.2822 142.265 71.3187 142.206 71.377C142.149 71.4346 142.112 71.5161 142.112 71.6067C142.112 71.6967 142.149 71.7789 142.206 71.8361C142.265 71.8944 142.348 71.9309 142.44 71.9309C142.532 71.9309 142.614 71.8941 142.673 71.8358C142.731 71.7781 142.767 71.6967 142.767 71.6067C142.767 71.5165 142.731 71.4346 142.673 71.3774Z" fill="#FF0000"/><path d="M133.68 61.688C133.981 61.688 134.256 61.8113 134.455 62.009C134.654 62.2082 134.779 62.4829 134.779 62.785C134.779 63.087 134.654 63.3617 134.455 63.5609C134.256 63.7586 133.981 63.8819 133.68 63.8819C133.378 63.8819 133.103 63.7586 132.904 63.5605C132.705 63.3624 132.581 63.087 132.581 62.785C132.581 62.4829 132.705 62.2075 132.904 62.0094C133.103 61.8113 133.378 61.688 133.68 61.688ZM133.913 62.5552C133.854 62.4973 133.772 62.4604 133.68 62.4604C133.588 62.4604 133.506 62.4973 133.447 62.5556C133.389 62.6132 133.353 62.6947 133.353 62.7846C133.353 62.8745 133.389 62.956 133.447 63.0136C133.506 63.0719 133.588 63.1088 133.68 63.1088C133.772 63.1088 133.854 63.0723 133.913 63.014C133.97 62.9564 134.007 62.8745 134.007 62.7846C134.007 62.694 133.971 62.6129 133.913 62.5552Z" fill="#FF0000"/><path d="M133.649 49.2112C133.95 49.2112 134.225 49.3341 134.424 49.5326C134.623 49.7317 134.747 50.0064 134.747 50.3085C134.747 50.6106 134.623 50.8856 134.424 51.0841C134.225 51.2825 133.95 51.4055 133.649 51.4055C133.347 51.4055 133.073 51.2822 132.873 51.0844C132.674 50.8853 132.55 50.6106 132.55 50.3085C132.55 50.0064 132.674 49.7317 132.873 49.5326C133.071 49.3345 133.347 49.2112 133.649 49.2112ZM133.881 50.0788C133.823 50.0205 133.74 49.9836 133.649 49.9836C133.557 49.9836 133.474 50.0205 133.415 50.0788C133.358 50.1364 133.321 50.2179 133.321 50.3085C133.321 50.3984 133.358 50.4806 133.415 50.5382C133.474 50.5965 133.557 50.6327 133.649 50.6327C133.74 50.6327 133.823 50.5962 133.881 50.5375C133.939 50.4799 133.975 50.3984 133.975 50.3085C133.975 50.2179 133.939 50.1364 133.881 50.0788Z" fill="#FF0000"/><path d="M142.869 41.7148C143.149 41.7148 143.404 41.8293 143.589 42.0131C143.774 42.1979 143.889 42.4528 143.889 42.7332C143.889 43.0135 143.774 43.2684 143.589 43.4532C143.404 43.6367 143.149 43.7512 142.869 43.7512C142.589 43.7512 142.334 43.6367 142.15 43.4529C141.965 43.2691 141.85 43.0135 141.85 42.7332C141.85 42.4528 141.965 42.1979 142.15 42.0131C142.334 41.8293 142.589 41.7148 142.869 41.7148ZM143.085 42.52C143.031 42.4659 142.954 42.4316 142.869 42.4316C142.784 42.4316 142.708 42.4659 142.653 42.52C142.599 42.5734 142.566 42.6494 142.566 42.7332C142.566 42.8166 142.599 42.8922 142.653 42.9457C142.707 42.9998 142.784 43.034 142.869 43.034C142.954 43.034 143.031 42.9998 143.085 42.946C143.139 42.8926 143.173 42.8169 143.173 42.7332C143.173 42.6494 143.139 42.5734 143.085 42.52Z" fill="#FF0000"/><path d="M144.787 24.2821C144.604 24.344 144.405 24.2457 144.344 24.0628C144.282 23.8799 144.38 23.6805 144.563 23.6189C144.771 23.5484 144.946 23.4137 145.068 23.2423C145.19 23.07 145.261 22.8587 145.261 22.6343C145.261 22.4377 145.207 22.2504 145.111 22.0911C145.013 21.9306 144.873 21.7959 144.703 21.7088C144.532 21.621 144.464 21.4101 144.552 21.2384C144.639 21.0667 144.85 20.9984 145.021 21.0861C145.311 21.2349 145.546 21.4599 145.708 21.7263C145.87 21.997 145.962 22.3101 145.962 22.6343C145.962 23.0064 145.843 23.3588 145.638 23.6482C145.432 23.9371 145.137 24.1633 144.787 24.2821Z" fill="#1973BE"/><path d="M153.006 23.5716C153.188 23.6335 153.286 23.8327 153.224 24.0155C153.163 24.1984 152.964 24.2967 152.781 24.2351C152.431 24.1164 152.136 23.8901 151.931 23.6003C151.725 23.3118 151.606 22.9592 151.606 22.5867C151.606 22.2628 151.698 21.9497 151.861 21.6803C152.022 21.4119 152.258 21.1876 152.547 21.0385C152.719 20.9508 152.929 21.0191 153.017 21.1908C153.104 21.3625 153.036 21.5734 152.865 21.6612C152.695 21.7486 152.556 21.883 152.458 22.0438C152.361 22.2025 152.307 22.3901 152.307 22.5867C152.307 22.8111 152.378 23.0227 152.501 23.1944C152.623 23.3661 152.798 23.5011 153.006 23.5716Z" fill="#1973BE"/><path d="M145.06 4.15845H153.05V6.97364H144.71V4.15845H145.06ZM152.349 4.86057H145.41V6.27152H152.349V4.86057Z" fill="#1973BE"/><path d="M179.599 33.7886C178.855 33.7886 178.202 33.6466 177.642 33.3623C177.082 33.0784 176.645 32.6824 176.331 32.1748C176.017 31.6672 175.859 31.0801 175.859 30.4135C175.859 29.7391 176.017 29.1502 176.331 28.6463C176.645 28.1424 177.082 27.7486 177.642 27.4647C178.202 27.1804 178.855 27.0384 179.599 27.0384C180.343 27.0384 180.995 27.1804 181.555 27.4647C182.115 27.7486 182.553 28.1427 182.867 28.6463C183.181 29.1502 183.338 29.7391 183.338 30.4135C183.338 31.0801 183.181 31.6672 182.867 32.1748C182.553 32.6824 182.115 33.0784 181.555 33.3623C180.995 33.6466 180.343 33.7886 179.599 33.7886ZM179.599 32.6296C180.076 32.6296 180.486 32.5386 180.829 32.3567C181.172 32.1748 181.438 31.9193 181.626 31.5895C181.814 31.2598 181.908 30.8679 181.908 30.4135C181.908 29.9587 181.814 29.5669 181.626 29.2374C181.438 28.908 181.172 28.6522 180.829 28.4703C180.486 28.2884 180.076 28.1978 179.599 28.1978C179.13 28.1978 178.721 28.2884 178.374 28.4703C178.027 28.6522 177.76 28.908 177.572 29.2374C177.384 29.5669 177.29 29.9591 177.29 30.4135C177.29 30.8679 177.384 31.2601 177.572 31.5895C177.76 31.919 178.027 32.1748 178.374 32.3567C178.721 32.5386 179.13 32.6296 179.599 32.6296ZM188.13 33.7886C187.313 33.7886 186.614 33.62 186.032 33.2828C185.45 32.9457 185.006 32.4591 184.699 31.8225C184.392 31.1862 184.238 30.4209 184.238 29.5273C184.238 28.1941 184.571 27.1408 185.236 26.3681C185.9 25.5954 186.851 25.1562 188.086 25.0501C188.585 25.0046 188.999 24.9669 189.327 24.9366C189.656 24.9063 189.925 24.8741 190.135 24.8401C190.344 24.8057 190.523 24.7698 190.672 24.7321C190.82 24.694 190.962 24.6489 191.1 24.5957V25.8572C190.962 25.9178 190.778 25.9729 190.547 26.0221C190.315 26.0712 190.023 26.1112 189.669 26.1415C189.314 26.1718 188.881 26.2021 188.368 26.2321C187.399 26.2853 186.67 26.5881 186.178 27.1412C185.687 27.6943 185.441 28.4821 185.441 29.5047V29.8685L185.365 29.7776C185.524 29.3306 185.753 28.952 186.054 28.6411C186.353 28.3305 186.713 28.0917 187.132 27.9253C187.551 27.7586 188.01 27.6754 188.509 27.6754C189.137 27.6754 189.687 27.8004 190.156 28.0507C190.626 28.3006 190.993 28.6511 191.257 29.1018C191.52 29.5524 191.652 30.0771 191.652 30.6756C191.652 31.3045 191.506 31.8517 191.213 32.3175C190.92 32.7834 190.51 33.1449 189.983 33.4026C189.456 33.6603 188.838 33.7886 188.13 33.7886ZM188.162 32.6296C188.581 32.6296 188.944 32.5501 189.251 32.3911C189.559 32.2317 189.797 32.0066 189.967 31.7149C190.137 31.4232 190.222 31.0842 190.222 30.6978C190.222 30.3115 190.137 29.9743 189.967 29.6866C189.797 29.3986 189.559 29.1753 189.251 29.016C188.944 28.857 188.581 28.7775 188.162 28.7775C187.598 28.7775 187.102 28.9365 186.672 29.2548C186.242 29.5731 185.922 30.0238 185.713 30.6072C185.835 31.2283 186.115 31.7208 186.553 32.0846C186.99 32.448 187.526 32.6296 188.162 32.6296ZM196.216 33.7886C195.471 33.7886 194.819 33.6466 194.259 33.3623C193.699 33.0784 193.262 32.6824 192.948 32.1748C192.633 31.6672 192.476 31.0801 192.476 30.4135C192.476 29.7391 192.633 29.1502 192.948 28.6463C193.262 28.1424 193.699 27.7486 194.259 27.4647C194.819 27.1804 195.471 27.0384 196.216 27.0384C196.96 27.0384 197.612 27.1804 198.172 27.4647C198.732 27.7486 199.169 28.1427 199.484 28.6463C199.798 29.1502 199.955 29.7391 199.955 30.4135C199.955 31.0801 199.798 31.6672 199.484 32.1748C199.169 32.6824 198.732 33.0784 198.172 33.3623C197.612 33.6466 196.96 33.7886 196.216 33.7886ZM196.216 32.6296C196.693 32.6296 197.103 32.5386 197.446 32.3567C197.789 32.1748 198.055 31.9193 198.243 31.5895C198.431 31.2598 198.524 30.8679 198.524 30.4135C198.524 29.9587 198.431 29.5669 198.243 29.2374C198.055 28.908 197.789 28.6522 197.446 28.4703C197.103 28.2884 196.693 28.1978 196.216 28.1978C195.746 28.1978 195.337 28.2884 194.991 28.4703C194.644 28.6522 194.376 28.908 194.189 29.2374C194.001 29.5669 193.907 29.9591 193.907 30.4135C193.907 30.8679 194.001 31.2601 194.189 31.5895C194.376 31.919 194.644 32.1748 194.991 32.3567C195.337 32.5386 195.746 32.6296 196.216 32.6296ZM201.104 27.1977H202.513V29.4363L202.448 29.6637V30.9592L202.513 31.357V35.5048H201.104V27.1977ZM201.971 30.4139C202.108 29.7321 202.336 29.1391 202.654 28.6352C202.972 28.1313 203.364 27.7394 203.83 27.4591C204.296 27.1789 204.815 27.0388 205.386 27.0388C205.985 27.0388 206.517 27.1807 206.979 27.465C207.441 27.749 207.803 28.1431 208.063 28.6466C208.323 29.1506 208.453 29.7395 208.453 30.4139C208.453 31.0805 208.323 31.6676 208.063 32.1752C207.803 32.6828 207.442 33.0788 206.979 33.3627C206.517 33.647 205.985 33.789 205.386 33.789C204.815 33.789 204.298 33.6488 203.836 33.3686C203.373 33.0884 202.981 32.6946 202.66 32.187C202.338 31.6794 202.108 31.0882 201.971 30.4139ZM207.022 30.4139C207.022 29.982 206.937 29.6012 206.768 29.2718C206.598 28.9424 206.365 28.6847 206.068 28.4991C205.772 28.3135 205.433 28.2207 205.05 28.2207C204.667 28.2207 204.307 28.3135 203.971 28.4991C203.635 28.6847 203.341 28.9424 203.088 29.2718C202.835 29.6012 202.629 29.982 202.47 30.4139C202.629 30.8457 202.835 31.2265 203.088 31.5559C203.341 31.8857 203.635 32.143 203.971 32.3286C204.307 32.5142 204.667 32.607 205.05 32.607C205.433 32.607 205.772 32.5142 206.068 32.3286C206.365 32.143 206.598 31.8853 206.768 31.5559C206.937 31.2265 207.022 30.8457 207.022 30.4139ZM210.805 35.6638C210.444 35.6638 210.117 35.6165 209.824 35.5218C209.531 35.4268 209.259 35.2963 209.006 35.1295V34.0045C209.28 34.1864 209.542 34.3188 209.791 34.4023C210.041 34.4855 210.321 34.5273 210.631 34.5273C210.928 34.5273 211.191 34.457 211.422 34.3169C211.654 34.1768 211.845 33.9324 211.997 33.5838L214.761 27.1974H216.257L213.081 34.0836C212.907 34.4626 212.703 34.7676 212.468 34.9987C212.233 35.2297 211.977 35.3983 211.699 35.5044C211.421 35.6105 211.123 35.6638 210.805 35.6638ZM211.51 33.4252L208.691 27.1977H210.241L212.908 33.4252H211.51ZM224.506 32.4935V35.2549H223.281V33.63H217.146V35.2549H215.921V32.4935H217.504L217.894 32.5164H222.371L222.717 32.4935H224.506ZM217.287 27.1981H223.368V33.1982H221.959V27.6529L222.609 28.3346H218.024L218.631 27.8348C218.667 28.1682 218.69 28.488 218.701 28.7949C218.712 29.1018 218.717 29.3875 218.717 29.653C218.717 30.7592 218.575 31.6265 218.289 32.2554C218.004 32.8843 217.605 33.1985 217.092 33.1985L216.517 32.6872C217.11 32.2325 217.406 31.1267 217.406 29.3691C217.406 29.0282 217.395 28.674 217.373 28.3065C217.352 27.939 217.323 27.5693 217.287 27.1981ZM228.744 33.789C228 33.789 227.348 33.647 226.788 33.3627C226.228 33.0788 225.79 32.6828 225.476 32.1752C225.162 31.6676 225.005 31.0805 225.005 30.4139C225.005 29.7395 225.162 29.1506 225.476 28.6466C225.79 28.1427 226.228 27.749 226.788 27.465C227.348 27.1807 228 27.0388 228.744 27.0388C229.488 27.0388 230.141 27.1807 230.701 27.465C231.261 27.749 231.698 28.1431 232.012 28.6466C232.327 29.1506 232.484 29.7395 232.484 30.4139C232.484 31.0805 232.327 31.6676 232.012 32.1752C231.698 32.6828 231.261 33.0788 230.701 33.3627C230.141 33.647 229.488 33.789 228.744 33.789ZM228.744 32.6299C229.221 32.6299 229.631 32.539 229.975 32.3571C230.318 32.1752 230.583 31.9197 230.771 31.5899C230.959 31.2601 231.053 30.8682 231.053 30.4139C231.053 29.9591 230.959 29.5672 230.771 29.2378C230.583 28.9084 230.318 28.6526 229.975 28.4707C229.632 28.2888 229.221 28.1982 228.744 28.1982C228.275 28.1982 227.866 28.2888 227.52 28.4707C227.173 28.6526 226.905 28.9084 226.718 29.2378C226.53 29.5672 226.436 29.9595 226.436 30.4139C226.436 30.8682 226.53 31.2605 226.718 31.5899C226.906 31.9193 227.173 32.1752 227.52 32.3571C227.866 32.539 228.275 32.6299 228.744 32.6299ZM233.492 33.63L233.806 30.4142L233.492 27.1981H237.936C238.529 27.1981 238.993 27.3419 239.329 27.6299C239.665 27.9179 239.833 28.3154 239.833 28.823C239.833 29.2925 239.665 29.6696 239.329 29.9536C238.993 30.2379 238.526 30.4065 237.926 30.4593L238.034 30.1865C238.742 30.2016 239.284 30.3532 239.66 30.6412C240.036 30.9292 240.223 31.3344 240.223 31.8572C240.223 32.4103 240.033 32.844 239.654 33.1582C239.275 33.4729 238.749 33.63 238.077 33.63H233.492ZM234.858 33.2666L234.316 32.6074H237.719C238.102 32.6074 238.379 32.5297 238.548 32.3745C238.718 32.2192 238.803 32.0014 238.803 31.7212C238.803 31.4709 238.707 31.2627 238.516 31.096C238.324 30.9292 238.005 30.8461 237.557 30.8461H234.62V29.8915H237.351C237.719 29.8915 237.989 29.8138 238.158 29.6585C238.328 29.5033 238.413 29.3007 238.413 29.0504C238.413 28.8078 238.339 28.6093 238.191 28.4536C238.043 28.2984 237.795 28.2207 237.449 28.2207H234.327L234.858 27.573L235.162 30.4139L234.858 33.2666ZM247.085 33.63L246.846 31.2435L247.128 30.4142L246.846 29.5961L247.085 27.1985H248.537L248.212 30.4146L248.537 33.6304L247.085 33.63ZM247.519 30.4142C247.381 31.0882 247.154 31.6794 246.835 32.187C246.518 32.6946 246.126 33.0887 245.659 33.3686C245.193 33.6488 244.675 33.789 244.104 33.789C243.504 33.789 242.973 33.647 242.51 33.3627C242.048 33.0788 241.686 32.6828 241.426 32.1752C241.166 31.6676 241.036 31.0805 241.036 30.4139C241.036 29.7395 241.166 29.1506 241.426 28.6466C241.686 28.1427 242.047 27.749 242.51 27.465C242.972 27.1807 243.504 27.0388 244.104 27.0388C244.674 27.0388 245.193 27.1789 245.659 27.4591C246.125 27.7394 246.519 28.1313 246.841 28.6352C247.162 29.1391 247.388 29.7321 247.519 30.4142ZM242.467 30.4142C242.467 30.8461 242.552 31.2269 242.722 31.5563C242.892 31.8861 243.125 32.1434 243.421 32.329C243.718 32.5146 244.057 32.6074 244.44 32.6074C244.83 32.6074 245.192 32.5146 245.524 32.329C245.857 32.1434 246.151 31.8857 246.408 31.5563C246.664 31.2269 246.868 30.8461 247.02 30.4142C246.869 29.9824 246.664 29.6016 246.408 29.2722C246.151 28.9428 245.856 28.6851 245.524 28.4995C245.192 28.3139 244.831 28.2211 244.44 28.2211C244.057 28.2211 243.718 28.3139 243.421 28.4995C243.125 28.6851 242.892 28.9428 242.722 29.2722C242.552 29.6016 242.467 29.9824 242.467 30.4142ZM249.892 27.1981H251.29V33.63H249.892V27.1981ZM255.106 27.1981H256.504V33.63H255.106V27.1981ZM250.684 29.8005H255.691V30.937H250.684V29.8005ZM258 33.63V27.1981H259.387V32.8913L258.965 32.7889L263.159 27.1981H264.98V33.63H263.593V27.8573L264.027 27.9708L259.778 33.63H258ZM269.826 33.789C269.11 33.789 268.475 33.647 267.918 33.3627C267.362 33.0788 266.924 32.6828 266.607 32.1752C266.288 31.6676 266.129 31.0768 266.129 30.4024C266.129 29.7358 266.279 29.1506 266.579 28.6466C266.879 28.1427 267.295 27.749 267.826 27.465C268.357 27.1807 268.966 27.0388 269.652 27.0388C270.339 27.0388 270.933 27.2 271.435 27.5216C271.938 27.8436 272.326 28.2962 272.601 28.8796C272.875 29.463 273.013 30.1484 273.013 30.9363H267.235V29.8112H272.308L271.603 30.2316C271.582 29.8072 271.486 29.4437 271.316 29.1406C271.146 28.8374 270.919 28.6045 270.633 28.4418C270.348 28.2788 270.01 28.1974 269.62 28.1974C269.208 28.1974 268.848 28.2843 268.541 28.4585C268.234 28.6326 267.994 28.877 267.82 29.1916C267.647 29.5062 267.56 29.8793 267.56 30.3107C267.56 30.788 267.663 31.201 267.869 31.5496C268.075 31.8983 268.368 32.1652 268.747 32.3508C269.127 32.5364 269.576 32.6292 270.096 32.6292C270.566 32.6292 271.046 32.5515 271.538 32.3963C272.03 32.241 272.463 32.0232 272.839 31.743V32.8111C272.463 33.1139 272.006 33.3527 271.468 33.5268C270.929 33.701 270.382 33.789 269.826 33.789Z" fill="#434242"/><path d="M34.4346 33.7564V27.2165H35.8508V33.0057L35.4191 32.9015L39.7014 27.2165H41.5603V33.7564H40.1441V27.8865L40.5869 28.0019L36.2495 33.756L34.4346 33.7564ZM43.087 27.2165H44.5143V33.7564H43.087V27.2165ZM48.4093 27.2165H49.8366V33.7564H48.4093V27.2165ZM43.8949 29.8626H49.0069V31.0181H43.8949V29.8626ZM50.589 33.7567L53.2115 29.5739L54.2182 30.5214L52.2709 33.7567H50.589ZM61.1004 33.7567L59.1642 30.5214L60.1602 29.5739L62.7827 33.7567H61.1004ZM57.394 32.4627L56.9734 32.3009L60.9456 27.2169H62.5832L57.2609 33.7567H56.1101L50.7879 27.2169H52.4254L56.3976 32.3009L55.977 32.4627V27.2169H57.3936L57.394 32.4627ZM66.6219 33.9188C65.8916 33.9188 65.2425 33.7743 64.6746 33.4856C64.1067 33.1965 63.6603 32.7943 63.3356 32.2782C63.0109 31.762 62.8489 31.1611 62.8489 30.4754C62.8489 29.7976 63.002 29.2023 63.3081 28.6902C63.6142 28.1778 64.0384 27.7775 64.5805 27.4884C65.1227 27.1997 65.7439 27.0552 66.4448 27.0552C67.1454 27.0552 67.7523 27.2191 68.2648 27.5463C68.7773 27.8735 69.1739 28.3339 69.4543 28.927C69.7347 29.5201 69.8749 30.2174 69.8749 31.0185H63.9772V29.8745H69.1557L68.4365 30.3021C68.4143 29.8708 68.3167 29.501 68.1432 29.1929C67.9698 28.8848 67.7377 28.6477 67.4462 28.4822C67.1547 28.3164 66.81 28.2338 66.4116 28.2338C65.991 28.2338 65.6241 28.3224 65.3108 28.4998C64.9972 28.6768 64.7518 28.9255 64.5752 29.2452C64.3981 29.5649 64.3094 29.9444 64.3094 30.3836C64.3094 30.8687 64.4146 31.2888 64.6249 31.6429C64.8352 31.9973 65.1338 32.2685 65.5211 32.4574C65.9084 32.6464 66.3676 32.7405 66.8987 32.7405C67.3783 32.7405 67.8686 32.6617 68.3703 32.5037C68.8721 32.3461 69.3144 32.1243 69.6982 31.8393V32.9254C69.3144 33.2335 68.8481 33.4763 68.2984 33.6533C67.7488 33.8307 67.1898 33.9188 66.6219 33.9188ZM71.0586 27.2169H72.4859V33.7567H71.0586V27.2169ZM76.3808 27.2169H77.8081V33.7567H76.3808V27.2169ZM71.8665 29.8629H76.9784V31.0185H71.8665V29.8629ZM82.7541 33.9188C82.0239 33.9188 81.3748 33.7743 80.8065 33.4856C80.2386 33.1965 79.7923 32.7943 79.4675 32.2782C79.1432 31.762 78.9808 31.1611 78.9808 30.4754C78.9808 29.7976 79.1339 29.2023 79.44 28.6902C79.7461 28.1778 80.1703 27.7775 80.7124 27.4884C81.2546 27.1997 81.8762 27.0552 82.5768 27.0552C83.2774 27.0552 83.8843 27.2191 84.3971 27.5463C84.9096 27.8735 85.3062 28.3339 85.5866 28.927C85.8669 29.5201 86.0071 30.2174 86.0071 31.0185H80.1095V29.8745H85.2879L84.5687 30.3021C84.5466 29.8708 84.4489 29.501 84.2755 29.1929C84.1021 28.8848 83.8699 28.6477 83.5785 28.4822C83.2874 28.3164 82.9422 28.2338 82.5438 28.2338C82.1233 28.2338 81.7564 28.3224 81.4431 28.4998C81.1298 28.6768 80.8841 28.9255 80.7074 29.2452C80.5304 29.5649 80.4417 29.9444 80.4417 30.3836C80.4417 30.8687 80.5468 31.2888 80.7571 31.6429C80.9674 31.9973 81.2661 32.2685 81.6534 32.4574C82.0407 32.6464 82.4999 32.7405 83.031 32.7405C83.5105 32.7405 84.0008 32.6617 84.5026 32.5037C85.004 32.3461 85.4467 32.1243 85.8301 31.8393V32.9254C85.4464 33.2335 84.98 33.4763 84.4303 33.6533C83.8807 33.8307 83.3221 33.9188 82.7541 33.9188ZM87.1909 27.2169H88.6293V29.4932L88.5631 29.7244V31.0416L88.6293 31.4461V35.6637H87.1909V27.2169ZM88.076 30.487C88.2162 29.7938 88.4487 29.1911 88.773 28.6787C89.0978 28.1663 89.498 27.7678 89.9736 27.4828C90.4492 27.1978 90.9785 27.0552 91.5615 27.0552C92.1737 27.0552 92.7159 27.1997 93.188 27.4884C93.66 27.7775 94.0291 28.1778 94.2945 28.6902C94.5602 29.2023 94.6929 29.8013 94.6929 30.487C94.6929 31.1648 94.5602 31.7617 94.2945 32.2782C94.0291 32.7943 93.66 33.1965 93.188 33.4856C92.7159 33.7747 92.1737 33.9188 91.5615 33.9188C90.9785 33.9188 90.4514 33.7762 89.9793 33.4912C89.5072 33.2062 89.1071 32.8055 88.7788 32.2894C88.4504 31.7732 88.2162 31.1723 88.076 30.487ZM93.2323 30.487C93.2323 30.0478 93.1458 29.6609 92.9723 29.3259C92.7989 28.9909 92.561 28.7291 92.2585 28.5401C91.9559 28.3515 91.6094 28.257 91.2185 28.257C90.8276 28.257 90.4603 28.3515 90.1174 28.5401C89.7744 28.7291 89.4736 28.9909 89.2158 29.3259C88.9576 29.6609 88.7473 30.0482 88.5849 30.487C88.7473 30.9262 88.9576 31.3131 89.2158 31.6481C89.474 31.9835 89.7748 32.2453 90.1174 32.4339C90.4603 32.6225 90.8273 32.717 91.2185 32.717C91.6094 32.717 91.9559 32.6229 92.2585 32.4339C92.561 32.2453 92.7989 31.9835 92.9723 31.6481C93.1458 31.3131 93.2323 30.9258 93.2323 30.487ZM95.8877 27.2169H97.315V33.7567H95.8877V27.2169ZM101.21 27.2169H102.637V33.7567H101.21V27.2169ZM96.6956 29.8629H101.808V31.0185H96.6956V29.8629ZM107.627 33.9188C106.868 33.9188 106.202 33.7743 105.63 33.4856C105.059 33.1965 104.612 32.7943 104.291 32.2782C103.97 31.762 103.81 31.1648 103.81 30.487C103.81 29.8013 103.97 29.2023 104.291 28.6902C104.612 28.1778 105.058 27.7775 105.63 27.4884C106.202 27.1997 106.868 27.0552 107.627 27.0552C108.387 27.0552 109.053 27.1997 109.625 27.4884C110.196 27.7775 110.642 28.1778 110.964 28.6902C111.284 29.2023 111.445 29.8013 111.445 30.487C111.445 31.1648 111.284 31.7617 110.964 32.2782C110.643 32.7943 110.196 33.1965 109.625 33.4856C109.053 33.7747 108.387 33.9188 107.627 33.9188ZM107.627 32.7401C108.114 32.7401 108.533 32.6479 108.883 32.4627C109.234 32.2778 109.505 32.0179 109.696 31.6829C109.888 31.3478 109.984 30.949 109.984 30.487C109.984 30.025 109.889 29.6261 109.696 29.2911C109.505 28.9561 109.234 28.6962 108.883 28.511C108.533 28.3261 108.114 28.2338 107.627 28.2338C107.148 28.2338 106.731 28.3261 106.377 28.511C106.023 28.6958 105.75 28.9558 105.558 29.2911C105.367 29.6261 105.271 30.025 105.271 30.487C105.271 30.9494 105.367 31.3478 105.558 31.6829C105.75 32.0179 106.023 32.2778 106.377 32.4627C106.731 32.6475 107.148 32.7401 107.627 32.7401ZM116.036 33.9188C115.306 33.9188 114.657 33.7743 114.089 33.4856C113.521 33.1965 113.075 32.7943 112.75 32.2782C112.426 31.762 112.264 31.1611 112.264 30.4754C112.264 29.7976 112.417 29.2023 112.723 28.6902C113.029 28.1778 113.453 27.7775 113.995 27.4884C114.537 27.1997 115.159 27.0552 115.859 27.0552C116.56 27.0552 117.167 27.2191 117.68 27.5463C118.192 27.8735 118.589 28.3339 118.869 28.927C119.15 29.5201 119.29 30.2174 119.29 31.0185H113.392V29.8745H118.571L117.851 30.3021C117.829 29.8708 117.732 29.501 117.558 29.1929C117.385 28.8848 117.153 28.6477 116.861 28.4822C116.57 28.3164 116.225 28.2338 115.827 28.2338C115.406 28.2338 115.039 28.3224 114.725 28.4998C114.412 28.6768 114.166 28.9255 113.99 29.2452C113.813 29.5649 113.724 29.9444 113.724 30.3836C113.724 30.8687 113.829 31.2888 114.039 31.6429C114.25 31.9973 114.548 32.2685 114.936 32.4574C115.323 32.6464 115.782 32.7405 116.313 32.7405C116.793 32.7405 117.283 32.6617 117.785 32.5037C118.287 32.3461 118.729 32.1243 119.112 31.8393V32.9254C118.729 33.2335 118.262 33.4763 117.713 33.6533C117.163 33.8307 116.604 33.9188 116.036 33.9188Z" fill="#434242"/></svg>