<svg width="30" height="31" fill="none" xmlns="http://www.w3.org/2000/svg"><path d="M6.86922 18.8028C8.33513 18.3438 8.93169 16.1735 8.20166 13.9553C7.47163 11.737 5.69147 10.3108 4.22556 10.7698C2.75965 11.2288 2.16309 13.3991 2.89312 15.6173C3.62315 17.8356 5.40331 19.2618 6.86922 18.8028Z" fill="#1974BF"/><path d="M12.3274 27.1366C13.7665 26.4809 14.1353 24.169 13.151 21.9728C12.1668 19.7767 10.2022 18.5279 8.76305 19.1837C7.32389 19.8394 6.95513 22.1513 7.93938 24.3474C8.92364 26.5436 10.8882 27.7923 12.3274 27.1366Z" fill="#1974BF"/><path d="M5.14266 26.2211C6.50849 25.6643 6.9278 23.5281 6.07923 21.4498C5.23066 19.3714 3.43554 18.1378 2.06972 18.6946C0.703897 19.2513 0.284582 21.3875 1.13315 23.4659C1.98172 25.5443 3.77684 26.7778 5.14266 26.2211Z" fill="#1974BF"/><path fill-rule="evenodd" clip-rule="evenodd" d="M23.4202 2.19996C22.9502 2.02996 22.7102 2.12996 19.4202 3.51996C16.1402 4.91996 9.80016 7.59996 6.64016 8.93996C3.47016 10.28 3.47016 10.28 3.66016 10.23C3.85016 10.18 4.23016 10.08 4.61016 10.06C4.99016 10.03 5.36016 10.1 5.78016 10.3C6.20016 10.51 6.68016 10.85 7.07016 11.23C7.46016 11.61 7.76016 12.02 8.02016 12.5C8.29016 12.98 8.52016 13.52 8.67016 14.03C8.82016 14.54 8.89016 15.01 8.93016 15.44C8.97016 15.87 8.99016 16.27 8.97016 16.62C8.95016 16.97 8.91016 17.27 8.84016 17.53C8.78016 17.8 8.70016 18.04 8.60016 18.22C8.50016 18.4 8.37016 18.53 8.31016 18.6C8.25016 18.66 8.25016 18.66 11.1002 16.75C13.9602 14.84 19.6802 11.01 25.3902 7.17996C25.5902 6.74996 25.8002 6.31996 25.7702 5.66996C25.7502 5.01996 25.5102 4.13996 25.0402 3.47996C24.9702 3.37996 24.8902 3.27996 24.8102 3.18996L8.76016 11.83L8.59016 11.5L24.5302 2.90996C24.1502 2.55996 23.7302 2.31996 23.4202 2.19996Z" fill="#1974BF"/><path fill-rule="evenodd" clip-rule="evenodd" d="M25.9004 7.22997C25.5304 7.27997 25.3904 7.41997 25.2404 7.55997C19.9204 11.17 14.6104 14.79 11.9604 16.59C9.31045 18.4 9.32045 18.39 9.51045 18.39C9.70045 18.39 10.0604 18.4 10.4704 18.54C10.8804 18.68 11.3404 18.95 11.7004 19.22C12.0604 19.48 12.3204 19.75 12.5704 20.06C12.8304 20.36 13.0904 20.72 13.3204 21.11C13.5504 21.5 13.7404 21.94 13.8804 22.36C14.0304 22.79 14.1104 23.2 14.1904 23.66C14.2704 24.11 14.3904 24.61 14.3104 25.1C14.1404 26.11 14.0504 26.53 13.4004 27.17C11.8604 28.67 15.4304 25.47 15.4604 25.45C18.0204 23.19 23.1404 18.67 25.8904 16.17C28.6404 13.67 29.0204 13.19 29.2204 12.43C29.4204 11.67 29.4304 10.62 29.1004 9.71997C29.0404 9.52997 28.9604 9.35997 28.8704 9.18997L14.0004 21.04L13.7704 20.74L28.6704 8.85997C28.3304 8.33997 27.9004 7.90997 27.4804 7.63997C26.8504 7.23997 26.2704 7.18997 25.9004 7.22997Z" fill="#1974BF"/><path fill-rule="evenodd" clip-rule="evenodd" d="M3.19048 17.2899C2.55048 17.6499 1.91048 18.0099 1.58048 18.1899C1.26048 18.3699 1.26048 18.3699 1.38048 18.3199C1.51048 18.2699 1.76048 18.1599 1.98048 18.0999C2.21048 18.0299 2.41048 17.9999 2.60048 17.9999C2.79048 17.9899 2.98048 17.9999 3.19048 18.0399C3.40048 18.0799 3.63048 18.1499 3.82048 18.2199C4.00048 18.2899 4.14048 18.3499 4.10048 18.2999C4.07048 18.2499 3.86048 18.0899 3.71048 17.9499C3.57048 17.8099 3.48048 17.6899 3.41048 17.5899C3.33048 17.4799 3.26048 17.3899 3.19048 17.2899Z" fill="#1974BF"/><path fill-rule="evenodd" clip-rule="evenodd" d="M7.03082 23.6499C7.01082 23.7199 7.02082 24.0799 6.97082 24.4499C6.92082 24.8099 6.81082 25.1699 6.70082 25.4399C6.59082 25.7199 6.47082 25.9099 6.33082 26.1199C6.18082 26.3199 6.01082 26.5399 5.93082 26.6499C5.84082 26.7599 5.84082 26.7599 6.09082 26.5699C6.34082 26.3799 6.84082 26.0099 7.16082 25.7699C7.48082 25.5299 7.62082 25.4399 7.69082 25.3899C7.76082 25.3499 7.76082 25.3499 7.70082 25.2499C7.64082 25.1599 7.52082 24.9699 7.42082 24.7599C7.32082 24.5399 7.24082 24.2899 7.17082 24.0599C7.11082 23.8199 7.05082 23.5799 7.03082 23.6499Z" fill="#1974BF"/><path fill-rule="evenodd" clip-rule="evenodd" d="M5.03058 19.1299C5.11058 19.2399 5.33058 19.4999 5.51058 19.7199C5.69058 19.9499 5.82058 20.1399 5.95058 20.3699C6.08058 20.5999 6.20058 20.8599 6.30058 21.0799C6.40058 21.2999 6.48058 21.4699 6.56058 21.6899C6.64058 21.9099 6.72058 22.1699 6.77058 22.2699C6.82058 22.3599 6.83058 22.2899 6.83058 22.0299C6.83058 21.7699 6.81058 21.3199 6.85058 20.9699C6.89058 20.6299 6.97058 20.3999 7.08058 20.1699C7.19058 19.9399 7.32058 19.6999 7.43058 19.5299C7.53058 19.3599 7.62058 19.2499 7.62058 19.2099C7.62058 19.1799 7.53058 19.2199 7.39058 19.2899C7.24058 19.3599 7.04058 19.4499 6.77058 19.4799C6.50058 19.5099 6.17058 19.4799 5.92058 19.4399C5.68058 19.3899 5.53058 19.3199 5.40058 19.2599C5.28058 19.1999 5.18058 19.1399 5.10058 19.0899C5.01058 19.0499 4.95058 19.0199 5.03058 19.1299Z" fill="#1974BF"/></svg>