<svg width="30" height="30" fill="none" xmlns="http://www.w3.org/2000/svg"><path d="M22.5 0.402792V0.805584L25.9923 0.814064C27.9115 0.818304 29.4192 0.826784 29.3462 0.835264C29.2731 0.839504 27.8115 0.924303 26.0962 1.01758C24.3846 1.11086 22.8731 1.19566 22.7423 1.21262L22.5 1.23806V2.1242V3.01034L25.7423 3.01458C27.5231 3.01882 28.9538 3.0273 28.9231 3.03578C28.8923 3.04426 27.6885 3.16722 26.25 3.30713C24.8115 3.44705 23.5769 3.57425 23.5115 3.58697L23.3846 3.60817V11.7573C23.3808 16.4381 23.3654 20.093 23.3462 20.3431C23.2192 21.8992 22.2769 23.133 20.9038 23.5358C20.4731 23.663 19.7577 23.663 19.3269 23.5358C17.9615 23.133 17.0192 21.9076 16.8846 20.3643C16.8615 20.1057 16.8462 18.6768 16.8462 17.0741V14.2461H17.3077H17.7692V13.1437V12.0456L17.3192 12.0329L16.8654 12.0202L16.8385 11.5326C16.7731 10.2394 16.4731 9.01406 15.9192 7.77176C15.4615 6.74994 14.9231 5.9274 14.1654 5.10062C13.0846 3.92192 11.7731 3.07818 10.2962 2.61179C9.70385 2.42099 8.72692 2.24716 8.26154 2.24716H8.07692V1.75957V1.27197H7.07692H6.07692V1.75957V2.24716H4.42308H2.76923V1.75957V1.27197H1.38462H0V5.40589V9.53981H0.384615H0.769231L0.773077 5.66877L0.776923 1.80197L0.965385 5.66029C1.06538 7.78024 1.15 9.52285 1.15 9.52709C1.15385 9.53557 1.51923 9.53981 1.96154 9.53981H2.76923L2.77308 5.96556C2.77692 4.00248 2.78846 2.44219 2.79231 2.50155C2.8 2.56091 2.90385 3.93464 3.01923 5.55429C3.13846 7.17393 3.23846 8.52647 3.25 8.55191C3.26154 8.59431 3.58077 8.60703 4.67308 8.60703H6.07692V9.07342V9.53981H7.07692H8.07692V9.07342C8.07692 8.53495 8.04615 8.56463 8.49231 8.67063C9.74615 8.95894 10.7308 10.0274 11.0154 11.3969C11.05 11.5622 11.0769 11.7742 11.0769 11.8675V12.0414H10.6731H10.2692V13.1437V14.2461H10.6692H11.0692L11.0885 17.5617C11.1077 21.0173 11.1115 21.102 11.2923 22.09C11.5346 23.434 12.1308 24.8883 12.8962 26.0203C13.2923 26.6055 14.1731 27.5764 14.6923 28.0004C16.7692 29.7006 19.2577 30.3408 21.7885 29.8278C24.2346 29.3317 26.4538 27.6527 27.7731 25.308C28.2692 24.4261 28.7269 23.1923 28.9231 22.1959C29.1192 21.1868 29.1154 21.4497 29.1154 11.9057V3.01034H29.5577H30V1.50517V1.90735e-06H26.25H22.5V0.402792ZM7.58846 3.05698C8.00385 3.17146 8.30385 3.59545 8.33846 4.11696C8.37308 4.67663 8.14231 5.13877 7.72308 5.34653C7.51923 5.44829 7.50769 5.44829 6.19231 5.44829H4.86538L4.66923 5.33381C4.29231 5.11334 4.1 4.7487 4.1 4.23991C4.1 3.98128 4.11923 3.87952 4.2 3.68873C4.25769 3.56153 4.32692 3.42585 4.35385 3.39193C4.43846 3.28169 4.66539 3.10786 4.78846 3.06122C4.94615 3.00186 7.37308 2.99762 7.58846 3.05698ZM25.8769 5.89772C26.0077 5.9698 26.1654 6.097 26.2308 6.1818C26.4615 6.48707 26.4654 6.54643 26.4538 8.99286C26.4423 11.1807 26.4423 11.2188 26.3577 11.3884C26.2577 11.5962 26.0154 11.8463 25.8192 11.9396C25.5923 12.0541 25.0692 12.0414 24.8423 11.9226C24.6269 11.8039 24.4423 11.6131 24.3346 11.3884C24.25 11.2146 24.25 11.1934 24.25 8.88262V6.55067L24.3538 6.35139C24.5692 5.9486 24.8692 5.77476 25.35 5.77052C25.6038 5.76628 25.6731 5.78324 25.8769 5.89772ZM13.6385 16.2177C13.8692 16.3406 14.0115 16.5102 14.1308 16.7901C14.2077 16.9724 14.2115 17.0445 14.2115 18.592C14.2115 20.1396 14.2077 20.2117 14.1308 20.394C14.0115 20.6781 13.8692 20.8434 13.6231 20.9749C13.4385 21.0724 13.3538 21.0936 13.0962 21.0936C12.5962 21.0936 12.2615 20.8646 12.0615 20.394C11.9846 20.2117 11.9808 20.1396 11.9808 18.592V16.9809L12.0962 16.7265C12.2308 16.4381 12.4115 16.2601 12.7 16.1456C12.9769 16.0396 13.3577 16.065 13.6385 16.2177Z" fill="#1974BF"/></svg>