<svg width="30" height="31" fill="none" xmlns="http://www.w3.org/2000/svg"><path fill-rule="evenodd" clip-rule="evenodd" d="M7.21092 15.63C7.54092 15.53 8.09092 15.39 8.36092 15.32C8.64092 15.26 8.64092 15.26 9.06092 15.45C9.49092 15.65 10.3509 16.03 10.7709 16.23C11.2009 16.42 11.2009 16.42 11.4509 17.08C11.6909 17.74 12.1909 19.05 12.4309 19.76C12.6809 20.47 12.6809 20.57 12.6809 20.73C12.6809 20.88 12.6809 21.1 12.4809 21.56C12.2809 22.02 11.8809 22.73 11.6809 23.09C11.4809 23.45 11.4809 23.45 11.1909 23.53C10.9109 23.62 10.3409 23.78 10.0409 23.87C9.74092 23.95 9.71092 23.95 9.58092 23.93C9.46092 23.91 9.24092 23.86 9.14092 23.84C9.03092 23.82 9.03092 23.82 9.17092 23.79C9.31092 23.76 9.59092 23.7 9.91092 23.33C10.2409 22.97 10.6109 22.29 10.7909 21.84C10.9709 21.39 10.9709 21.16 10.7409 20.39C10.5009 19.61 10.0309 18.28 9.78092 17.58C9.52092 16.88 9.48092 16.81 9.12092 16.61C8.76092 16.42 8.09092 16.1 7.63092 15.96C7.16092 15.82 6.89092 15.86 6.82092 15.83C6.75092 15.81 6.87092 15.74 7.21092 15.63Z" fill="#1974BF"/><path fill-rule="evenodd" clip-rule="evenodd" d="M21.7002 12.75L22.8802 13.26C23.3102 13.44 23.3102 13.44 23.5502 14.06C23.8002 14.69 24.2902 15.94 24.5402 16.61C24.7802 17.28 24.7802 17.38 24.7802 17.53C24.7802 17.67 24.7802 17.87 24.5802 18.31C24.3802 18.75 23.9802 19.43 23.7802 19.77C23.5802 20.11 23.5802 20.11 23.3002 20.19C23.0102 20.27 22.4402 20.43 22.1402 20.5C21.8402 20.58 21.8102 20.58 21.6902 20.56C21.5602 20.54 21.3502 20.5 21.2402 20.48C21.1302 20.46 21.1302 20.46 21.2702 20.43C21.4102 20.4 21.6902 20.35 22.0202 20C22.3402 19.65 22.7102 19.01 22.8902 18.58C23.0802 18.15 23.0802 17.94 22.8402 17.2C22.6102 16.46 22.1402 15.21 21.8802 14.54C21.8102 14.35 21.7502 14.21 21.7002 14.1V12.75Z" fill="#1974BF"/><path d="M7.56047 16.5599C8.04047 16.5599 8.56047 16.9299 9.01047 17.5399C9.45047 18.1199 9.84047 18.9299 10.0705 19.8199C10.2005 20.3599 10.2705 20.8699 10.2705 21.3199C10.2705 21.7899 10.2005 22.1999 10.0605 22.5099C9.91047 22.8399 9.69047 23.0599 9.40047 23.1299C9.33047 23.1499 9.26047 23.1599 9.19047 23.1599C8.71047 23.1599 8.20047 22.7899 7.74047 22.1799C7.30047 21.5899 6.92047 20.7799 6.69047 19.8899C6.55047 19.3499 6.48047 18.8399 6.48047 18.3999C6.48047 17.9199 6.56047 17.5199 6.70047 17.2099C6.84047 16.8799 7.06047 16.6599 7.35047 16.5799C7.42047 16.5599 7.49047 16.5599 7.56047 16.5599ZM8.80047 17.6999C8.39047 17.1599 7.95047 16.8299 7.56047 16.8299C7.51047 16.8299 7.46047 16.8299 7.42047 16.8499C7.22047 16.8999 7.06047 17.0599 6.94047 17.3199C6.82047 17.5899 6.76047 17.9599 6.76047 18.3999C6.76047 18.8199 6.82047 19.3099 6.95047 19.8199C7.17047 20.6799 7.54047 21.4599 7.96047 22.0199C8.36047 22.5499 8.80047 22.8899 9.19047 22.8899C9.24047 22.8899 9.29047 22.8799 9.33047 22.8699C9.54047 22.8199 9.70047 22.6499 9.81047 22.3999C9.93047 22.1299 10.0005 21.7599 10.0005 21.3199C10.0005 20.8899 9.93047 20.4099 9.80047 19.8899C9.58047 19.0399 9.21047 18.2599 8.80047 17.6999Z" fill="#1974BF"/><path fill-rule="evenodd" clip-rule="evenodd" d="M19.6801 9.5C20.7701 9.79 21.4501 10.2 21.4501 10.65C21.4501 11.55 18.7401 12.27 15.4101 12.27C12.0701 12.27 9.37012 11.55 9.37012 10.65C9.37012 10.21 10.0001 9.82 11.0301 9.53V10.33C11.0301 10.45 11.1001 10.56 11.2101 10.6C12.5101 11.08 13.6601 11.27 15.0701 11.27C16.6101 11.27 18.0101 11.03 19.4701 10.62C19.6001 10.58 19.6801 10.47 19.6801 10.34V9.5Z" fill="#1974BF"/><path fill-rule="evenodd" clip-rule="evenodd" d="M21.4504 11.22C21.4504 11.22 21.3804 13.22 21.3804 13.89C21.3804 14.56 18.8204 15.46 15.4804 15.46C12.1504 15.46 9.44039 14.5 9.44039 13.84C9.44039 13.17 9.40039 11.28 9.40039 11.28C10.9604 13.03 19.5604 13.28 21.4504 11.22Z" fill="#1974BF"/><path fill-rule="evenodd" clip-rule="evenodd" d="M19.2409 3.06993V10.0199C19.2409 10.1499 19.1609 10.2599 19.0309 10.2899C16.8809 10.8899 13.9709 11.1299 11.6509 10.2999C11.5409 10.2599 11.4609 10.1599 11.4609 10.0299V3.04993C11.7009 3.21993 12.0709 3.35993 12.5509 3.45993C13.2809 3.60993 14.2709 3.69993 15.3609 3.69993C16.4609 3.69993 17.4509 3.60993 18.1809 3.45993C18.6409 3.35993 19.0109 3.22993 19.2409 3.06993Z" fill="#1974BF"/><path fill-rule="evenodd" clip-rule="evenodd" d="M15.3609 1.56995C17.5209 1.56995 19.2609 1.92995 19.2609 2.36995C19.2609 2.81995 17.5209 3.17995 15.3609 3.17995C13.2109 3.17995 11.4609 2.81995 11.4609 2.36995C11.4609 1.92995 13.2109 1.56995 15.3609 1.56995ZM15.3609 2.08995C15.6509 2.08995 15.8909 2.13995 15.8909 2.18995C15.8909 2.24995 15.6509 2.28995 15.3609 2.28995C15.0709 2.28995 14.8409 2.24995 14.8409 2.18995C14.8409 2.13995 15.0709 2.08995 15.3609 2.08995Z" fill="#1974BF"/><path fill-rule="evenodd" clip-rule="evenodd" d="M9.61006 14.9C9.54006 14.95 9.53006 15.07 9.53006 15.12C9.52006 15.18 9.52006 15.18 9.86006 15.33C10.1901 15.47 10.8701 15.77 11.2001 15.92C11.5401 16.06 11.5401 16.06 11.8401 16.83C12.1301 17.6 12.7201 19.14 12.9901 19.95C13.2701 20.76 13.2201 20.84 13.0201 21.26C12.8101 21.69 12.4401 22.46 12.2101 22.92C11.9801 23.38 11.8901 23.54 11.8101 23.64C11.7301 23.75 11.6501 23.8 11.4601 23.87C11.2701 23.93 10.9701 23.99 10.8201 24.03C10.6701 24.06 10.6701 24.06 10.6801 24.23C10.6901 24.39 10.7101 24.73 10.7401 24.96C10.7701 25.2 10.8001 25.33 10.9501 25.5C11.1101 25.66 11.3901 25.85 11.8001 26.01C12.2101 26.18 12.7401 26.33 13.3501 26.43C13.9601 26.53 14.6401 26.58 15.2801 26.59C15.9201 26.59 16.5201 26.55 17.0501 26.47C17.5801 26.39 18.0301 26.28 18.4301 26.14C18.8201 26 19.1601 25.83 19.3801 25.7C19.5901 25.57 19.7001 25.47 19.7601 25.39C19.8301 25.31 19.8601 25.25 19.9001 24.62C19.9301 23.98 19.9601 22.76 19.9601 22.12C19.9501 21.47 19.9101 21.39 19.8801 21.3C19.8501 21.2 19.8401 21.09 19.8601 20.96C19.8901 20.83 19.9401 20.67 20.0501 20.53C20.1601 20.39 20.3301 20.25 20.5501 20.18C20.7701 20.11 21.0401 20.09 21.2901 19.95C21.5401 19.8 21.7701 19.52 21.9901 19.19C22.2001 18.85 22.4001 18.46 22.4901 18.18C22.5701 17.91 22.5401 17.74 22.3401 17.2C22.1501 16.66 21.7901 15.74 21.6101 15.28C21.4301 14.81 21.4101 14.79 20.9601 14.96C20.5101 15.13 19.6201 15.5 18.5201 15.71C17.4201 15.92 16.1201 15.98 15.1301 15.96C14.1501 15.94 13.4801 15.86 12.8501 15.75C12.2201 15.65 11.6301 15.52 11.1501 15.37C10.6601 15.21 10.2901 15.03 10.0401 14.93C9.79006 14.84 9.67006 14.84 9.61006 14.9Z" fill="#1974BF"/><path fill-rule="evenodd" clip-rule="evenodd" d="M12.45 26.5899C12.7 26.6199 13.27 26.7999 13.9 26.8999C14.53 26.9999 15.23 27.0099 15.83 26.9799C16.44 26.9599 16.95 26.8999 17.35 26.8199C17.75 26.7399 18.03 26.6399 18.21 26.5799C18.39 26.5199 18.47 26.4999 18.37 26.6699C18.28 26.8499 18.03 27.2199 17.9 27.4099C17.77 27.5999 17.77 27.5999 17.77 27.7599C17.77 27.9199 17.77 28.2399 17.77 28.3999C17.77 28.5599 17.77 28.5599 17.53 28.6599C17.29 28.7599 16.82 28.9599 16.32 29.0699C15.82 29.1799 15.3 29.1999 14.82 29.1599C14.34 29.1099 13.9 28.9899 13.59 28.8699C13.27 28.7599 13.08 28.6399 12.98 28.5799C12.88 28.5199 12.88 28.5199 12.88 28.3399C12.88 28.1699 12.88 27.8299 12.88 27.6599C12.88 27.4899 12.88 27.4899 12.79 27.3699C12.7 27.2499 12.52 27.0199 12.39 26.8399C12.27 26.6699 12.2 26.5499 12.45 26.5899Z" fill="#1974BF"/></svg>