<svg width="30" height="30" fill="none" xmlns="http://www.w3.org/2000/svg"><path fill-rule="evenodd" clip-rule="evenodd" d="M9.94969 7.65002H14.0097C15.1197 7.65002 16.0197 8.55002 16.0197 9.66002V23.49C15.4697 23.62 14.8997 23.73 14.2997 23.82C13.7097 23.9 13.0997 23.95 12.4697 23.96C11.8597 23.97 11.2297 23.95 10.5697 23.9C9.71969 23.82 8.82969 23.69 7.92969 23.52V9.66002C7.92969 8.55002 8.83969 7.65002 9.94969 7.65002ZM16.0197 23.92V28.42C13.7397 29.46 10.6497 29.46 7.92969 28.42V23.95C8.81969 24.11 9.68969 24.24 10.5297 24.31C11.1997 24.37 11.8497 24.39 12.4797 24.38C13.1297 24.36 13.7597 24.31 14.3597 24.23C14.9397 24.15 15.4897 24.04 16.0197 23.92Z" fill="#1974BF"/><path d="M11.9804 6.35999C12.1626 6.35999 12.3104 6.2212 12.3104 6.04999C12.3104 5.87878 12.1626 5.73999 11.9804 5.73999C11.7981 5.73999 11.6504 5.87878 11.6504 6.04999C11.6504 6.2212 11.7981 6.35999 11.9804 6.35999Z" fill="#1974BF"/><path d="M11.9799 4.76001C12.3499 4.76001 12.6899 4.90001 12.9299 5.13001C13.1799 5.37001 13.3299 5.70001 13.3299 6.05001C13.3299 6.41001 13.1799 6.74001 12.9299 6.97001C12.6899 7.21001 12.3499 7.35001 11.9799 7.35001C11.6099 7.35001 11.2699 7.21001 11.0199 6.97001C10.7799 6.74001 10.6299 6.41001 10.6299 6.05001C10.6299 5.70001 10.7799 5.37001 11.0199 5.13001C11.2699 4.90001 11.6099 4.76001 11.9799 4.76001ZM12.7499 5.32001C12.5499 5.13001 12.2799 5.02001 11.9799 5.02001C11.6799 5.02001 11.3999 5.13001 11.2099 5.32001C11.0099 5.51001 10.8899 5.77001 10.8899 6.05001C10.8899 6.34001 11.0099 6.60001 11.2099 6.79001C11.3999 6.98001 11.6799 7.09001 11.9799 7.09001C12.2799 7.09001 12.5499 6.98001 12.7499 6.79001C12.9499 6.60001 13.0699 6.34001 13.0699 6.05001C13.0699 5.77001 12.9499 5.51001 12.7499 5.32001Z" fill="#1974BF"/><path fill-rule="evenodd" clip-rule="evenodd" d="M11.7004 5.64996C11.7204 5.74996 11.7204 5.73996 11.7404 5.72996C11.7604 5.70996 11.7804 5.68996 11.8204 5.66996C11.8604 5.65996 11.9104 5.64996 11.9404 5.63996C11.9704 5.63996 11.9704 5.63996 11.9104 5.55996C11.8404 5.47996 11.7204 5.31996 11.6604 5.23996C11.6004 5.15996 11.6004 5.15996 11.6204 5.25996C11.6404 5.35996 11.6804 5.55996 11.7004 5.64996Z" fill="#1974BF"/><path d="M10.5302 5.05005H10.2402V6.60005H10.5302V5.05005Z" fill="#1974BF"/><path fill-rule="evenodd" clip-rule="evenodd" d="M9.02977 5.13H10.0698H10.0798V6.54H10.0698H9.02977C8.87977 6.54 8.75977 6.43 8.75977 6.31V5.36C8.75977 5.24 8.87977 5.13 9.02977 5.13Z" fill="#1974BF"/><path fill-rule="evenodd" clip-rule="evenodd" d="M10.2705 3.97C10.2505 4.11 10.2505 4.34 10.2605 4.47C10.2705 4.61 10.3005 4.65 10.3505 4.73C10.3905 4.81 10.4605 4.93 10.5405 4.99C10.6105 5.06 10.6905 5.06 10.9105 4.98C11.1305 4.9 11.5005 4.73 11.8505 4.57C12.2005 4.41 12.5305 4.26 12.7005 4.17C12.8705 4.07 12.8705 4.04 12.8905 3.96C12.9005 3.87 12.9305 3.73 12.9505 3.65C12.9705 3.57 12.9805 3.55 13.6805 3.22C14.3805 2.89 15.7605 2.25 16.6605 1.87C17.5605 1.5 17.9905 1.39 18.3205 1.34C18.6505 1.28 18.8805 1.28 19.0005 1.26C19.1105 1.24 19.1005 1.2 19.0405 1.13C18.9805 1.06 18.8605 0.970002 18.6905 0.920002C18.5305 0.870002 18.3105 0.870002 18.0105 0.930002C17.7005 0.980002 17.3105 1.09 16.1205 1.54C14.9405 1.98 12.9505 2.76 11.8605 3.18C10.7705 3.61 10.5705 3.69 10.4505 3.75C10.3305 3.81 10.2905 3.84 10.2705 3.97Z" fill="#1974BF"/><path d="M8.38003 6.24999C7.32003 6.34999 6.25003 6.44999 5.32003 6.70999C4.85003 6.83999 4.41003 7.00999 4.01003 7.22999C3.64003 7.42999 3.30003 7.66999 3.01003 7.95999C2.72003 8.24999 2.47003 8.58999 2.27003 8.95999H2.26003C2.06003 9.33999 1.90003 9.75998 1.80003 10.19C1.71003 10.62 1.67003 11.06 1.70003 11.54C1.74003 12.02 1.86003 12.53 2.08003 13.09C2.31003 13.68 2.65003 14.31 3.08003 14.97C3.52003 15.63 4.05003 16.32 4.66003 17.01C5.26003 17.69 5.95003 18.37 6.74003 18.99C7.52003 19.6 8.42003 20.14 9.46003 20.55C10.52 20.97 11.72 21.25 12.94 21.38C14.12 21.5 15.31 21.46 16.39 21.25C18.57 20.83 20.31 19.67 22.05 18.5L22.54 19.24C20.73 20.45 18.91 21.67 16.56 22.13C15.4 22.35 14.12 22.39 12.85 22.26C11.55 22.13 10.26 21.83 9.13003 21.38C8.01003 20.94 7.05003 20.35 6.20003 19.69C5.35003 19.04 4.63003 18.32 3.99003 17.59C3.36003 16.88 2.80003 16.15 2.34003 15.45C1.87003 14.74 1.50003 14.05 1.26003 13.42C1.00003 12.77 0.860029 12.17 0.820029 11.61C0.770029 11.04 0.820029 10.51 0.940029 9.99999C1.05003 9.47999 1.24003 8.98999 1.48003 8.53999C1.72003 8.08999 2.03003 7.67999 2.39003 7.31999C2.74003 6.97999 3.14003 6.68999 3.58003 6.44999C4.04003 6.19999 4.55003 5.99999 5.08003 5.84999C6.09003 5.56999 7.20003 5.46999 8.30003 5.35999L8.38003 6.24999Z" fill="#1974BF"/><path fill-rule="evenodd" clip-rule="evenodd" d="M22.3004 20.33C21.6604 20.09 21.0504 19.54 20.8604 18.5L25.7104 13.33C25.8204 13.87 26.1904 14.61 26.7604 15.34C27.3304 16.07 27.9604 16.62 28.4604 16.86C26.4103 18.02 24.3504 19.18 22.3004 20.33Z" fill="#1974BF"/><path fill-rule="evenodd" clip-rule="evenodd" d="M26.1202 12.8101C26.4902 12.5301 27.4502 13.1501 28.2602 14.1901C29.0702 15.2401 29.4302 16.3301 29.0602 16.6101C28.6902 16.9001 27.7402 16.2801 26.9202 15.2301C26.1102 14.1801 25.7502 13.1001 26.1202 12.8101ZM26.4702 13.1701C26.7602 12.9401 27.5202 13.4301 28.1702 14.2701C28.8202 15.1001 29.1102 15.9601 28.8102 16.1901C28.5202 16.4201 27.7502 15.9301 27.1102 15.0901C26.4602 14.2601 26.1702 13.4001 26.4702 13.1701Z" fill="#1974BF"/><path fill-rule="evenodd" clip-rule="evenodd" d="M12.8801 4.41996C12.7901 4.45996 12.6801 4.57996 12.6201 4.63996C12.5601 4.69996 12.5601 4.69996 12.6001 4.71996C12.6401 4.72996 12.7201 4.76996 12.8101 4.80996C12.9001 4.85996 13.0001 4.91996 13.0701 4.98996C13.1501 5.04996 13.2001 5.11996 13.2301 5.14996C13.2601 5.18996 13.2601 5.18996 13.5101 5.18996C13.7501 5.18996 14.2501 5.18996 14.7501 5.23996C15.2501 5.27996 15.7501 5.36996 16.2801 5.48996C16.8201 5.60996 17.4101 5.76996 17.9001 5.93996C18.3901 6.10996 18.7801 6.29996 19.0801 6.43996C19.3801 6.58996 19.5801 6.69996 19.7001 6.73996C19.8301 6.78996 19.8801 6.76996 19.9001 6.71996C19.9201 6.66996 19.9201 6.58996 19.8601 6.50996C19.8001 6.43996 19.6701 6.35996 19.3701 6.17996C19.0801 6.00996 18.6101 5.72996 18.0601 5.49996C17.5101 5.26996 16.8701 5.07996 16.4201 4.97996C15.9701 4.86996 15.7101 4.82996 15.4301 4.81996C15.1601 4.79996 14.8501 4.79996 14.5001 4.75996C14.1501 4.71996 13.7401 4.63996 13.4901 4.57996C13.2401 4.51996 13.1501 4.47996 13.0801 4.43996C13.0101 4.40996 12.9601 4.36996 12.8801 4.41996Z" fill="#1974BF"/><path fill-rule="evenodd" clip-rule="evenodd" d="M9.50977 11.74C11.2398 11.95 12.9898 11.98 14.7098 11.74V20.19C13.1198 20.61 11.2198 20.65 9.50977 20.19C9.50977 17.38 9.50977 14.56 9.50977 11.74Z" fill="#FEFEFE"/><path fill-rule="evenodd" clip-rule="evenodd" d="M12.0198 19.25C11.5298 19.26 11.1498 19.08 10.8498 18.77C10.5498 18.45 10.3298 18 10.2298 17.59C10.1198 17.18 10.1298 16.8 10.1898 16.42C10.2498 16.04 10.3498 15.66 10.3998 15.34C10.4398 15.03 10.4198 14.78 10.5298 14.81C10.6398 14.84 10.8898 15.15 11.0498 15.58C11.2098 16.01 11.2898 16.56 11.3198 16.86C11.3598 17.17 11.3598 17.23 11.3998 17.01C11.4498 16.78 11.5298 16.27 11.5898 15.69C11.6398 15.12 11.6598 14.48 11.4998 14.02C11.3398 13.55 11.0198 13.26 11.1098 13.26C11.2098 13.27 11.7398 13.58 12.1398 13.91C12.5498 14.23 12.8398 14.58 13.0198 14.93C13.2098 15.28 13.2798 15.64 13.1798 16.01C13.0798 16.38 12.7998 16.76 12.6598 17.12C12.5098 17.48 12.4998 17.82 12.4998 17.94C12.4898 18.07 12.4898 17.97 12.5398 17.81C12.5898 17.65 12.6798 17.42 12.9098 17.25C13.1398 17.08 13.5098 16.96 13.7398 16.77C13.9798 16.59 14.0898 16.33 14.1798 16.42C14.2698 16.51 14.3498 16.95 14.2598 17.41C14.1798 17.86 13.9398 18.33 13.5298 18.67C13.1098 19.02 12.5098 19.23 12.0198 19.25ZM11.3098 18.7C11.1698 18.59 11.0298 18.46 10.9298 18.27C10.8298 18.08 10.7598 17.85 10.7198 17.57C10.6798 17.28 10.6598 16.96 10.6598 16.83C10.6498 16.69 10.6598 16.75 10.6998 16.87C10.7298 16.99 10.7898 17.17 10.9398 17.33C11.0798 17.49 11.2998 17.62 11.4198 17.69C11.5298 17.76 11.5298 17.76 11.5298 17.69C11.5298 17.63 11.5298 17.5 11.5598 17.38C11.5898 17.26 11.6498 17.15 11.7598 17.04C11.8798 16.93 12.0398 16.83 12.1498 16.68C12.2598 16.53 12.3198 16.34 12.3198 16.12C12.3198 15.9 12.2698 15.65 12.2998 15.67C12.3298 15.68 12.4498 15.95 12.4998 16.2C12.5398 16.45 12.5198 16.68 12.4598 16.92C12.3998 17.15 12.2898 17.4 12.2698 17.62C12.2598 17.84 12.3298 18.05 12.3898 18.19C12.4598 18.33 12.5298 18.41 12.5698 18.39C12.6098 18.38 12.6198 18.27 12.6498 18.14C12.6798 18.01 12.7198 17.87 12.8398 17.76C12.9498 17.65 13.1298 17.59 13.2698 17.53C13.4098 17.48 13.5098 17.45 13.5198 17.49C13.5298 17.53 13.4498 17.64 13.4098 17.78C13.3598 17.91 13.3598 18.06 13.3098 18.22C13.2598 18.37 13.1598 18.53 12.9698 18.65C12.7698 18.76 12.4798 18.84 12.2498 18.88C12.0298 18.93 11.8698 18.94 11.7198 18.91C11.5798 18.88 11.4498 18.81 11.3098 18.7Z" fill="#1974BF"/></svg>