<svg width="30" height="31" fill="none" xmlns="http://www.w3.org/2000/svg"><path fill-rule="evenodd" clip-rule="evenodd" d="M21.1402 18.0101C20.9302 17.6801 20.9602 17.0501 21.1402 16.5901C21.3302 16.1201 21.6902 15.8101 22.1102 15.6101C22.5302 15.4001 23.0102 15.3001 23.5002 15.3001C23.9802 15.3001 24.4702 15.4001 24.8802 15.7201C25.2802 16.0401 25.6202 16.5801 25.7602 17.1201C25.9002 17.6501 25.8402 18.1901 25.6902 18.7601C25.5402 19.3301 25.2802 19.9401 24.8602 20.5201C24.4402 21.0901 23.8602 21.6301 23.0402 21.9401C22.2202 22.2501 21.1702 22.3201 20.3302 22.2001C19.4902 22.0801 18.8502 21.7601 17.0702 20.5301C15.3002 19.3001 12.3902 17.1501 10.9302 16.0801C9.48019 15.0101 9.48019 15.0101 8.32019 15.0101C7.17019 15.0101 4.86019 15.0101 3.65019 15.0101C2.44019 15.0101 2.33019 15.0101 2.23019 15.0101C2.12019 15.0101 2.01019 15.0001 3.65019 16.3401C5.28019 17.6701 8.65019 20.3401 10.2902 21.7101C11.9302 23.0801 11.8502 23.1401 10.1002 21.8101C8.36019 20.4701 4.96019 17.7401 3.22019 16.3801C1.47019 15.0101 1.38019 15.0101 1.33019 15.0101C1.28019 15.0101 1.28019 15.0101 1.27019 15.4001C1.26019 15.7801 1.23019 16.5401 1.22019 16.9401C1.21019 17.3301 1.21019 17.3601 2.75019 18.6901C4.30019 20.0101 7.38019 22.6401 8.94019 23.9701C10.5002 25.3001 10.5302 25.3201 12.6702 25.2801C14.8202 25.2501 19.0802 25.1401 21.4202 25.0401C23.7702 24.9401 24.2002 24.8401 24.8002 24.5801C25.4002 24.3301 26.1702 23.9201 26.8202 23.3401C27.4702 22.7701 28.0102 22.0301 28.3802 20.9401C28.7502 19.8601 28.9502 18.4301 28.7602 17.1401C28.5602 15.8601 27.9702 14.7101 27.1202 13.8801C26.2602 13.0501 25.1402 12.5401 24.0402 12.3001C22.9302 12.0601 21.8402 12.1001 20.9102 12.4401C19.9802 12.7701 19.2202 13.4101 18.6702 14.1701C18.1202 14.9201 17.7902 15.7901 17.6902 16.6201C17.5802 17.4501 17.7102 18.2401 17.9902 18.8701C18.2702 19.4901 18.7002 19.9501 19.2402 20.2901C19.7802 20.6301 20.4202 20.8401 21.0702 20.9001C21.7202 20.9601 22.3802 20.8801 22.9102 20.6501C23.4402 20.4301 23.8502 20.0701 24.1602 19.6401C24.4702 19.2001 24.6702 18.6901 24.7502 18.2201C24.8302 17.7501 24.7802 17.3201 24.5502 16.9601C24.3202 16.6001 23.9102 16.3201 23.5002 16.2401C23.0902 16.1701 22.6802 16.3001 22.3902 16.5401C22.0902 16.7801 21.9202 17.1401 21.9102 17.4701C21.8902 17.8001 22.0402 18.1101 21.9102 18.2401C21.7702 18.3801 21.3402 18.3401 21.1402 18.0101Z" fill="#1974BF"/><path fill-rule="evenodd" clip-rule="evenodd" d="M24.4299 11.7401C24.1499 11.6901 23.2999 11.3601 22.1299 11.4201C20.9599 11.4901 19.4699 11.9601 18.4999 12.8401C17.5399 13.7101 17.0999 15.0001 16.8899 16.1401C16.6899 17.2801 16.7199 18.2801 17.1599 19.0901C17.5999 19.9101 18.4399 20.5301 18.6299 20.6801C18.8299 20.8301 18.3899 20.5001 16.7599 19.2801C15.1199 18.0601 12.2999 15.9501 10.6499 14.7001C9.00986 13.4501 8.54986 13.0601 8.20986 12.6001C7.86986 12.1401 7.63986 11.6201 7.55986 11.0301C7.46986 10.4401 7.51986 9.78006 7.65986 9.14006C7.78986 8.51006 8.01986 7.90006 8.44986 7.36006C8.86986 6.83006 9.48986 6.35006 10.0799 5.99006C10.6699 5.62006 11.2299 5.35006 11.9199 5.18006C12.6099 5.01006 13.4199 4.94006 13.9899 4.92006C14.5699 4.91006 14.9099 4.97006 15.0699 4.99006C15.2299 5.02006 15.2199 5.01006 16.6999 6.06006C18.1899 7.12006 21.1799 9.22006 22.8099 10.3901C24.4399 11.5601 24.7199 11.7901 24.4299 11.7401Z" fill="#1974BF"/></svg>