<svg width="30" height="31" fill="none" xmlns="http://www.w3.org/2000/svg"><path fill-rule="evenodd" clip-rule="evenodd" d="M14.3398 25.4101C14.3198 26.2101 14.2698 27.6801 14.2498 28.4201C14.2198 29.1501 14.2198 29.1501 14.6198 29.1501C15.0298 29.1401 15.8298 29.1401 16.2298 29.1401C16.6398 29.1401 16.6398 29.1401 16.6198 28.3101C16.6098 27.4901 16.5798 25.8401 16.5698 25.0201C16.5498 24.1901 16.5498 24.1901 16.4298 24.1901C16.3098 24.1901 16.0798 24.5301 15.8098 24.5401C15.5398 24.5501 15.2298 24.5701 14.9798 24.5901C14.7398 24.6201 14.5498 24.6501 14.4598 24.7301C14.3598 24.8201 14.3598 24.6101 14.3398 25.4101ZM15.5798 27.6001C15.8898 27.6801 16.0798 27.9901 15.9998 28.2801C15.9198 28.5601 15.6098 28.7301 15.2998 28.6401C14.9898 28.5501 14.8098 28.2401 14.8798 27.9601C14.9598 27.6701 15.2798 27.5101 15.5798 27.6001ZM15.6098 24.8701C15.9098 24.9601 16.0998 25.2701 16.0198 25.5501C15.9398 25.8401 15.6298 26.0001 15.3198 25.9101C15.0098 25.8301 14.8298 25.5201 14.9098 25.2301C14.9898 24.9501 15.2998 24.7801 15.6098 24.8701ZM15.5898 26.2301C15.8998 26.3201 16.0898 26.6301 16.0098 26.9201C15.9298 27.2001 15.6198 27.3601 15.3098 27.2801C14.9998 27.1901 14.8198 26.8801 14.8998 26.5901C14.9698 26.3101 15.2898 26.1501 15.5898 26.2301Z" fill="#1974BF"/><path fill-rule="evenodd" clip-rule="evenodd" d="M6.50977 5.72C8.99977 2.3 21.4698 2.73 24.3898 5.99V13.88H24.3598C23.5898 13.77 22.7998 13.68 21.9498 13.6C21.0998 13.52 20.1898 13.45 19.1798 13.41C18.1598 13.36 17.0398 13.33 15.8298 13.34C14.6198 13.35 13.3398 13.4 11.9998 13.49C10.6698 13.58 9.27977 13.73 7.86977 13.9C7.41977 13.95 6.96977 14.01 6.50977 14.07V5.72ZM15.2998 23.15C15.9998 23.15 16.5698 23.42 16.5698 23.74C16.5698 24.07 15.9998 24.33 15.2998 24.33C14.6098 24.33 14.0398 24.07 14.0398 23.74C14.0398 23.42 14.6098 23.15 15.2998 23.15ZM24.3898 14.16V22.5C18.8998 27.58 8.16977 24.8 6.50977 22.53V14.35C6.96977 14.29 7.43977 14.23 7.89977 14.17C9.30977 14 10.6898 13.86 12.0198 13.76C13.3598 13.67 14.6398 13.63 15.8298 13.62C17.0298 13.61 18.1498 13.64 19.1598 13.68C20.1798 13.73 21.0798 13.79 21.9198 13.87C22.7598 13.95 23.5498 14.05 24.3198 14.15L24.3898 14.16Z" fill="#1974BF"/><path d="M19.9095 3.61996C19.2195 3.41996 18.5095 3.22996 17.6095 3.11996C17.1595 3.05996 16.6595 3.01996 16.1495 2.99996C15.6095 2.97996 15.0595 2.97996 14.5295 2.99996C14.0895 3.00996 13.6595 3.03996 13.2695 3.07996C12.7595 3.11996 12.3295 3.17996 12.0095 3.22996C11.4895 3.29996 11.2195 3.36996 10.9795 3.42996V2.80996C11.2095 2.74996 11.4795 2.69996 11.9395 2.62996C12.2895 2.56996 12.7295 2.51996 13.2295 2.46996C14.1995 2.38996 15.1895 2.35996 16.1695 2.39996C16.6995 2.41996 17.2095 2.45996 17.6695 2.50996C18.5495 2.61996 19.2395 2.80996 19.9095 2.98996V3.61996Z" fill="#1974BF"/><path d="M15.6994 1.38H15.1894C15.0293 1.38 14.8994 1.50984 14.8994 1.67V1.72C14.8994 1.88017 15.0293 2.01 15.1894 2.01H15.6994C15.8596 2.01 15.9894 1.88017 15.9894 1.72V1.67C15.9894 1.50984 15.8596 1.38 15.6994 1.38Z" fill="#1974BF"/><path fill-rule="evenodd" clip-rule="evenodd" d="M10.7702 24.1C10.6902 24.12 10.6702 24.16 10.2302 25C9.78023 25.83 8.91023 27.48 8.47023 28.3C8.03023 29.12 8.03023 29.12 8.36023 29.12C8.69023 29.11 9.34023 29.1 9.66023 29.09C9.99023 29.08 9.99023 29.08 10.3702 28.34C10.7602 27.59 11.5302 26.11 11.9202 25.36C12.3102 24.62 12.3102 24.62 12.2102 24.55C12.1102 24.49 11.9102 24.35 11.7102 24.26C11.5202 24.17 11.3202 24.12 11.1502 24.1C10.9902 24.08 10.8502 24.08 10.7702 24.1Z" fill="#1974BF"/><path fill-rule="evenodd" clip-rule="evenodd" d="M20.0594 24.16C20.1394 24.18 20.1594 24.22 20.5994 25.06C21.0494 25.9 21.9194 27.54 22.3594 28.36C22.7994 29.19 22.7994 29.19 22.4694 29.18C22.1394 29.17 21.4894 29.16 21.1694 29.15C20.8394 29.14 20.8394 29.14 20.4594 28.4C20.0694 27.66 19.2994 26.17 18.9094 25.42C18.5194 24.68 18.5194 24.68 18.6194 24.62C18.7194 24.55 18.9194 24.42 19.1194 24.32C19.3094 24.23 19.5094 24.18 19.6794 24.16C19.8394 24.14 19.9794 24.14 20.0594 24.16Z" fill="#1974BF"/><path fill-rule="evenodd" clip-rule="evenodd" d="M8.90978 25.37C8.45978 26.17 7.64978 27.64 7.24978 28.37C6.83978 29.1 6.83978 29.1 6.99978 29.1C7.16978 29.1 7.48978 29.1 7.64978 29.09C7.80978 29.09 7.80978 29.09 8.24978 28.27C8.68978 27.44 9.56978 25.79 10.0098 24.97C10.4498 24.15 10.4498 24.15 10.3998 24.15C10.3598 24.15 10.2598 24.15 10.1498 24.15C10.0298 24.16 9.89978 24.18 9.78978 24.21C9.67978 24.23 9.57978 24.26 9.49978 24.34C9.41978 24.43 9.34978 24.56 8.90978 25.37ZM8.22978 27.4C8.28978 27.44 8.20978 27.7 8.02978 27.98C7.85978 28.25 7.66978 28.44 7.59978 28.4C7.53978 28.36 7.62978 28.1 7.79978 27.83C7.96978 27.55 8.15978 27.36 8.22978 27.4ZM9.60978 24.88C9.67978 24.92 9.58978 25.18 9.41978 25.46C9.23978 25.73 9.04978 25.92 8.98978 25.88C8.91978 25.84 9.00978 25.58 9.17978 25.3C9.34978 25.03 9.54978 24.84 9.60978 24.88ZM8.91978 26.14C8.97978 26.18 8.89978 26.44 8.71978 26.72C8.54978 26.99 8.35978 27.18 8.28978 27.14C8.22978 27.1 8.31978 26.84 8.48978 26.57C8.65978 26.29 8.85978 26.1 8.91978 26.14Z" fill="#1974BF"/><path fill-rule="evenodd" clip-rule="evenodd" d="M21.9202 25.43C22.3702 26.23 23.1802 27.7 23.5802 28.43C23.9902 29.16 23.9902 29.16 23.8302 29.16C23.6602 29.16 23.3402 29.16 23.1802 29.15C23.0202 29.15 23.0202 29.15 22.5802 28.33C22.1402 27.5 21.2602 25.86 20.8202 25.03C20.3802 24.21 20.3802 24.21 20.4302 24.21C20.4702 24.21 20.5702 24.21 20.6802 24.22C20.8002 24.22 20.9302 24.24 21.0402 24.27C21.1502 24.29 21.2502 24.32 21.3302 24.41C21.4102 24.49 21.4802 24.63 21.9202 25.43ZM22.6002 27.46C22.5402 27.5 22.6202 27.76 22.8002 28.04C22.9702 28.31 23.1602 28.5 23.2302 28.46C23.2902 28.42 23.2002 28.16 23.0302 27.89C22.8602 27.61 22.6702 27.42 22.6002 27.46ZM21.2202 24.94C21.1502 24.98 21.2402 25.24 21.4102 25.52C21.5902 25.79 21.7802 25.98 21.8402 25.94C21.9102 25.9 21.8202 25.64 21.6502 25.37C21.4802 25.09 21.2802 24.9 21.2202 24.94ZM21.9102 26.2C21.8502 26.24 21.9302 26.5 22.1102 26.78C22.2802 27.05 22.4702 27.24 22.5402 27.2C22.6002 27.16 22.5102 26.9 22.3402 26.63C22.1702 26.35 21.9702 26.16 21.9102 26.2Z" fill="#1974BF"/></svg>