<svg width="30" height="30" fill="none" xmlns="http://www.w3.org/2000/svg"><path fill-rule="evenodd" clip-rule="evenodd" d="M17.5203 5.22998C21.0003 5.22998 23.8203 5.79998 23.8203 6.49998C23.8203 7.19998 21.0003 7.75998 17.5203 7.75998C15.7803 7.75998 14.2103 7.61998 13.0703 7.38998C13.0703 7.36998 13.0703 7.34998 13.0803 7.32998C13.1403 6.83998 13.1703 6.41998 13.1803 5.94998C13.1803 5.82998 13.1803 5.70998 13.1803 5.57998C14.3103 5.36998 15.8403 5.22998 17.5203 5.22998Z" fill="#1974BF"/><path fill-rule="evenodd" clip-rule="evenodd" d="M8.82035 7.13999C8.52035 6.85999 8.36035 6.53999 8.36035 6.21999C8.36035 5.74999 8.69035 5.30999 9.28035 4.92999C9.08035 5.64999 8.82035 6.36999 8.82035 7.13999Z" fill="#1974BF"/><path fill-rule="evenodd" clip-rule="evenodd" d="M17.4299 3.42999C22.3399 3.42999 26.3299 4.63999 26.3299 6.14999C26.3299 7.64999 22.3399 8.85999 17.4299 8.85999C15.7599 8.85999 14.2099 8.71999 12.8799 8.47999C12.9199 8.30999 12.9499 8.10999 12.9899 7.89999C14.2699 8.12999 15.7899 8.25999 17.4299 8.25999C21.9599 8.25999 25.6399 7.24999 25.6399 5.99999C25.6399 4.74999 21.9599 3.72999 17.4299 3.72999C15.8299 3.72999 14.3499 3.85999 13.0899 4.07999C13.0799 3.95999 13.0599 3.85999 13.0499 3.77999C14.3399 3.55999 15.8299 3.42999 17.4299 3.42999Z" fill="#1974BF"/><path fill-rule="evenodd" clip-rule="evenodd" d="M12.7907 8.9C12.8107 8.9 12.8407 8.91 12.8707 8.91C17.6507 9.8 24.2207 9.33 26.3807 7.06L26.3607 9.82C26.3607 9.82 26.2607 10.51 26.1107 10.77C26.0807 10.84 26.0207 10.92 25.9507 11C25.8707 11.09 25.7907 11.18 25.7107 11.26V11.27C25.5907 11.39 25.4707 11.52 25.3607 11.66C25.2807 11.75 25.2107 11.85 25.1407 11.95C25.0707 12.06 25.0107 12.17 24.9407 12.29C24.7607 12.61 24.6107 12.93 24.4607 13.25C24.2807 13.63 24.0607 14.09 23.7607 14.59C23.4607 15.09 23.0907 15.61 22.6107 16.1C22.3707 16.34 22.1107 16.58 21.8207 16.81C21.5307 17.05 21.2207 17.27 20.8907 17.48C19.9807 18.07 18.9807 18.54 17.9307 18.83C17.3107 18.99 16.6907 19.09 16.0607 19.13C15.3507 19.18 14.6407 19.15 13.9407 19.03C13.9707 18.86 13.9907 18.75 14.0007 18.67C14.0107 18.65 13.9907 18.72 14.0207 18.6C14.0407 18.49 14.1307 18.2 14.1307 17.97C14.1307 17.74 14.0707 17.46 13.9507 17.15C13.8307 16.83 13.6607 16.48 13.4807 16.12C13.3007 15.76 13.1107 15.41 12.9207 15.13C12.7407 14.86 12.5507 14.67 12.4307 14.46C12.3107 14.26 12.2507 14.04 12.2207 13.69C12.1807 13.35 12.1507 12.88 12.1407 12.55C12.1307 12.22 12.1307 12.03 12.1907 11.69C12.2407 11.35 12.3507 10.85 12.4707 10.37C12.5907 9.88 12.7507 9.3 12.7807 9.11C12.8007 8.92 12.7907 8.95 12.7907 8.9ZM26.3507 10.92V11.47C26.1907 11.65 26.0207 11.82 25.8707 12C25.7307 12.16 25.6307 12.33 25.5007 12.55C25.3807 12.78 25.2407 13.06 25.0607 13.45L25.0407 13.48C24.6707 14.26 24.1107 15.43 23.0807 16.49C22.5707 17.02 21.9407 17.52 21.2607 17.96C20.5607 18.41 19.8107 18.79 19.0707 19.07C17.7907 19.55 16.4407 19.77 15.0707 19.73C14.6307 19.71 14.2207 19.67 13.8307 19.6L13.8907 19.29C14.2707 19.35 14.6607 19.39 15.0907 19.41C16.4007 19.45 17.7007 19.24 18.9407 18.77C19.6507 18.5 20.3807 18.13 21.0607 17.69C21.7107 17.27 22.3207 16.79 22.8207 16.28C23.8107 15.25 24.3507 14.12 24.7207 13.35L24.7407 13.32C24.9207 12.93 25.0607 12.65 25.1907 12.41C25.3207 12.17 25.4407 11.99 25.5807 11.81C25.6907 11.68 25.8107 11.56 25.9207 11.43C26.0907 11.25 26.2607 11.08 26.3507 10.92ZM26.3507 11.87L26.2607 21.94C26.1807 22.67 25.9907 23.1 25.6107 23.44C22.4207 26.2 16.7607 26.47 12.5307 25.09C12.5607 25.02 12.5207 25.15 12.6107 24.84C12.7007 24.53 13.0307 23.3 13.2507 22.34C13.4707 21.38 13.6407 20.56 13.7807 19.86C14.2007 19.93 14.6307 19.97 15.0607 19.99C16.1207 20.02 17.1707 19.9 18.1907 19.63C18.5107 19.54 18.8507 19.44 19.1807 19.31C19.5507 19.17 19.9407 19 20.3107 18.8C20.6907 18.61 21.0707 18.4 21.4207 18.17C22.1007 17.74 22.7407 17.24 23.3007 16.66C23.8307 16.11 24.2307 15.54 24.5607 15.01C24.8707 14.48 25.1107 13.98 25.3007 13.59C25.3907 13.41 25.4707 13.22 25.5607 13.05C25.7207 12.73 25.8707 12.43 26.0907 12.16C26.1707 12.06 26.2607 11.97 26.3507 11.87Z" fill="#1974BF" fill-opacity="0.980392"/><path fill-rule="evenodd" clip-rule="evenodd" d="M11.6007 0.949995C11.2907 1.21 10.7607 1.85 10.3307 2.76C9.89067 3.67 9.56067 4.84 9.34067 5.86C9.13067 6.89 9.03067 7.77 8.92067 8.68C8.81067 9.59 8.67067 10.52 8.51067 11.25C8.35067 11.98 8.17067 12.51 7.96067 12.9C7.75067 13.3 7.51067 13.55 7.23067 13.79C6.95067 14.03 6.62067 14.25 6.34067 14.45C6.05067 14.65 5.81067 14.83 5.65067 14.98C5.48067 15.13 5.39067 15.24 5.34067 15.36C5.29067 15.48 5.28067 15.59 5.30067 15.66C5.31067 15.72 5.34067 15.73 6.43067 16.14C7.51067 16.54 9.64067 17.34 10.7107 17.73C11.7807 18.13 11.7807 18.13 11.8307 18.14C11.8907 18.15 12.0007 18.17 12.0807 18.19C12.1707 18.2 12.2407 18.21 12.4407 18.19C12.6407 18.16 12.9807 18.09 13.1807 18.03C13.3807 17.97 13.4307 17.9 13.4507 17.83C13.4707 17.76 13.4507 17.68 13.2507 17.26C13.0507 16.83 12.6707 16.06 12.3407 15.58C12.0207 15.1 11.7507 14.91 11.6007 14.34C11.4507 13.78 11.4207 12.84 11.4507 12.21C11.4707 11.58 11.5507 11.25 11.7707 10.42C12.0007 9.59 12.3807 8.27 12.5407 7C12.7107 5.74 12.6607 4.53 12.5507 3.53C12.4507 2.54 12.2807 1.76 12.1507 1.3C12.0207 0.839995 11.9207 0.699995 11.6007 0.949995ZM11.5607 2.08C11.7207 2.08 11.7707 2.48 11.6907 2.97C11.6107 3.47 11.4107 3.87 11.2507 3.87C11.1007 3.87 11.0407 3.47 11.1207 2.97C11.2007 2.48 11.4007 2.08 11.5607 2.08Z" fill="#1974BF"/><path fill-rule="evenodd" clip-rule="evenodd" d="M5.16034 15.93C5.12034 15.95 5.09034 16.02 4.97034 16.71C4.85034 17.41 4.64034 18.73 4.53034 19.39C4.42034 20.05 4.42034 20.05 5.56034 20.5C6.70034 20.96 8.98034 21.87 10.1103 22.33C11.2503 22.79 11.2503 22.79 11.4803 22.76C11.7003 22.73 12.1503 22.68 12.3703 22.65C12.6003 22.62 12.6003 22.62 12.7403 21.89C12.8803 21.15 13.1603 19.69 13.3003 18.95C13.4303 18.22 13.4303 18.22 13.2703 18.25C13.1003 18.29 12.7703 18.36 12.5903 18.4C12.4103 18.43 12.3803 18.44 12.2203 19.1C12.0603 19.76 11.7803 21.08 11.6203 21.73C11.4603 22.38 11.4203 22.37 11.5403 21.71C11.6703 21.05 11.9603 19.74 12.0903 19.09C12.2203 18.43 12.2003 18.43 11.0503 18.02C9.89034 17.61 7.60034 16.8 6.43034 16.37C5.25034 15.95 5.20034 15.91 5.16034 15.93Z" fill="#1974BF"/><path fill-rule="evenodd" clip-rule="evenodd" d="M4.43026 20.67C4.34026 20.95 4.22026 21.54 4.05026 22.11C3.89026 22.68 3.68026 23.22 3.40026 23.83C3.11026 24.44 2.75026 25.1 2.56026 25.43C2.37026 25.77 2.36026 25.77 2.68026 25.93C3.00026 26.09 3.65026 26.4 3.97026 26.56C4.30026 26.72 4.30026 26.72 4.51026 26.4C4.72026 26.07 5.14026 25.42 5.46026 24.75C5.79026 24.08 6.02026 23.39 6.18026 22.87C6.34026 22.35 6.42026 22.01 6.42026 22.09C6.41026 22.18 6.32026 22.69 6.20026 23.22C6.09026 23.75 5.95026 24.3 5.76026 24.81C5.58026 25.32 5.34026 25.79 5.16026 26.13C4.97026 26.47 4.84026 26.68 4.78026 26.79C4.73026 26.89 4.74026 26.89 5.08026 27.04C5.42026 27.19 6.08026 27.5 6.40026 27.65C6.73026 27.8 6.73026 27.8 6.86026 27.57C6.98026 27.35 7.23026 26.89 7.47026 26.37C7.70026 25.85 7.92026 25.26 8.03026 25.03C8.14026 24.8 8.14026 24.92 8.08026 25.2C8.03026 25.47 7.93026 25.89 7.78026 26.3C7.64026 26.71 7.46026 27.11 7.33026 27.39C7.21026 27.66 7.16026 27.81 7.16026 27.9C7.17026 27.99 7.23026 28.03 7.48026 28.15C7.73026 28.26 8.16026 28.45 8.44026 28.57C8.72026 28.68 8.84026 28.73 9.00026 28.58C9.16026 28.44 9.35026 28.1 9.61026 27.6C9.87026 27.1 10.2103 26.44 10.4403 25.8C10.6803 25.16 10.8103 24.56 10.8603 24.46C10.9003 24.36 10.8703 24.77 10.7503 25.3C10.6303 25.83 10.4403 26.48 10.2403 27.06C10.0503 27.65 9.85026 28.17 9.72026 28.49C9.59026 28.8 9.54026 28.92 9.58026 28.96C9.62026 29.01 9.76026 28.99 9.94026 28.92C10.1103 28.85 10.3103 28.72 10.4803 28.58C10.6503 28.45 10.7803 28.31 11.0103 27.8C11.2403 27.29 11.5603 26.41 11.8303 25.55C12.0903 24.69 12.2903 23.84 12.3903 23.41C12.4903 22.98 12.4903 22.96 12.2603 22.98C12.0403 23 11.5903 23.07 11.3303 23.08C11.0703 23.1 11.0103 23.07 10.0403 22.68C9.07026 22.29 7.20026 21.53 6.15026 21.09C5.10026 20.66 4.87026 20.55 4.73026 20.48C4.58026 20.41 4.52026 20.38 4.43026 20.67Z" fill="#1974BF"/><path d="M8.16047 9.76997C8.08047 9.92997 8.01047 10.1 7.96047 10.26C7.79047 10.73 7.69047 11.22 7.65047 11.71C7.60047 12.16 7.59047 12.61 7.59047 13.06L7.23047 13.52C7.23047 13.3 7.24047 12.61 7.25047 12.38C7.27047 11.9 7.31047 11.41 7.40047 10.94C7.46047 10.68 7.53047 10.42 7.62047 10.16C7.76047 9.74997 7.96047 9.35997 8.16047 8.96997V9.76997Z" fill="#1974BF"/></svg>