<svg width="30" height="30" fill="none" xmlns="http://www.w3.org/2000/svg"><path fill-rule="evenodd" clip-rule="evenodd" d="M4.51016 17.11C6.50016 17.11 8.12016 14 8.12016 10.17C8.12016 6.32997 6.50016 3.21997 4.51016 3.21997C2.52016 3.21997 0.910156 6.32997 0.910156 10.17C0.910156 14 2.52016 17.11 4.51016 17.11ZM2.99016 15.76C3.13016 15.76 3.25016 15.52 3.25016 15.23C3.25016 14.94 3.13016 14.7 2.99016 14.7C2.85016 14.7 2.73016 14.94 2.73016 15.23C2.73016 15.52 2.85016 15.76 2.99016 15.76ZM5.25016 16.12C5.40016 16.12 5.51016 15.88 5.51016 15.59C5.51016 15.3 5.40016 15.06 5.25016 15.06C5.11016 15.06 4.99016 15.3 4.99016 15.59C4.99016 15.88 5.11016 16.12 5.25016 16.12ZM7.15016 13.25C7.30016 13.25 7.41016 13.02 7.41016 12.72C7.41016 12.43 7.30016 12.19 7.15016 12.19C7.01016 12.19 6.89016 12.43 6.89016 12.72C6.89016 13.02 7.01016 13.25 7.15016 13.25ZM7.23016 8.74997C7.37016 8.74997 7.49016 8.51997 7.49016 8.21997C7.49016 7.92997 7.37016 7.68997 7.23016 7.68997C7.08016 7.68997 6.97016 7.92997 6.97016 8.21997C6.97016 8.51997 7.08016 8.74997 7.23016 8.74997ZM5.70016 5.59997C5.84016 5.59997 5.96016 5.35997 5.96016 5.06997C5.96016 4.77997 5.84016 4.53997 5.70016 4.53997C5.55016 4.53997 5.44016 4.77997 5.44016 5.06997C5.44016 5.35997 5.55016 5.59997 5.70016 5.59997ZM3.41016 5.54997C3.55016 5.54997 3.67016 5.30997 3.67016 5.01997C3.67016 4.71997 3.55016 4.48997 3.41016 4.48997C3.26016 4.48997 3.14016 4.71997 3.14016 5.01997C3.14016 5.30997 3.26016 5.54997 3.41016 5.54997ZM1.67016 8.33997C1.76016 8.33997 1.83016 8.09997 1.83016 7.80997C1.83016 7.51997 1.76016 7.27997 1.67016 7.27997C1.58016 7.27997 1.51016 7.51997 1.51016 7.80997C1.51016 8.09997 1.58016 8.33997 1.67016 8.33997ZM1.54016 12.69C1.64016 12.69 1.72016 12.45 1.72016 12.16C1.72016 11.87 1.64016 11.63 1.54016 11.63C1.43016 11.63 1.35016 11.87 1.35016 12.16C1.35016 12.45 1.43016 12.69 1.54016 12.69ZM4.51016 14.71C5.68016 14.71 6.62016 12.71 6.62016 10.25C6.62016 7.77997 5.68016 5.77997 4.51016 5.77997C2.79016 5.77997 2.00016 7.76997 2.00016 10.24C2.00016 12.71 2.79016 14.7 4.51016 14.71Z" fill="#1974BF"/><path fill-rule="evenodd" clip-rule="evenodd" d="M5.8297 17.0899C6.0697 17.0299 6.3597 16.9099 6.6997 16.6799C7.0397 16.4399 7.4297 16.0999 7.7597 15.6699C8.0897 15.2399 8.3597 14.7199 8.5997 14.1199C8.8397 13.5199 9.0397 12.8299 9.1697 12.0999C9.2897 11.3599 9.3297 10.5799 9.3297 9.87991C9.3297 9.16991 9.2897 8.54991 9.2097 7.97991C9.1197 7.40991 8.9997 6.90991 8.8197 6.41991C8.6297 5.92991 8.3797 5.45991 8.0997 5.01991C7.81971 4.58991 7.5097 4.18991 7.1097 3.90991C6.7097 3.62991 6.2197 3.46991 5.9797 3.38991C5.7297 3.30991 5.7297 3.31991 5.9797 3.51991C6.2297 3.71991 6.7397 4.12991 7.1297 4.68991C7.5197 5.24991 7.7897 5.96991 7.9797 6.56991C8.1697 7.17991 8.2597 7.67991 8.3297 8.26991C8.4097 8.85991 8.4597 9.53991 8.4697 10.1999C8.4897 10.8599 8.4697 11.4899 8.3697 12.1499C8.2597 12.7999 8.0697 13.4699 7.7997 14.1499C7.5297 14.8299 7.1897 15.5199 6.8097 16.0099C6.4397 16.4899 6.0497 16.7699 5.7797 16.9299C5.5097 17.0799 5.3597 17.1199 5.3797 17.1399C5.3997 17.1599 5.5897 17.1499 5.8297 17.0899Z" fill="#1974BF"/><path fill-rule="evenodd" clip-rule="evenodd" d="M10.6406 21.21C10.9506 21.53 11.3506 21.93 11.5206 21.97L14.9206 22.75C15.3006 22.84 15.8106 22.62 15.9006 22.55L22.4806 17.42C22.5906 17.34 22.6306 17.21 22.6006 17.08C22.6006 17.06 22.1306 16.57 21.7806 16.21C21.7706 16.23 21.7706 16.25 21.7606 16.28C21.7206 16.38 21.6506 16.48 21.5606 16.55L14.9806 21.68C14.9106 21.74 14.6406 21.86 14.3606 21.92C14.1706 21.96 13.9706 21.97 13.7806 21.93L10.6406 21.21Z" fill="#1974BF"/><path fill-rule="evenodd" clip-rule="evenodd" d="M11.6904 22.27C11.9904 22.59 12.3904 22.98 12.5704 23.03L15.9704 23.81C16.3504 23.89 16.8604 23.68 16.9504 23.61L23.5304 18.48C23.6304 18.4 23.6804 18.27 23.6504 18.14C23.6404 18.12 23.1704 17.63 22.8204 17.27C22.8204 17.29 22.8104 17.31 22.8104 17.34C22.7704 17.44 22.7004 17.54 22.6004 17.61L16.0204 22.74C15.9504 22.8 15.6904 22.92 15.4004 22.98C15.2204 23.02 15.0104 23.03 14.8304 22.99L11.6904 22.27Z" fill="#1974BF"/><path fill-rule="evenodd" clip-rule="evenodd" d="M16.9706 14.9099L11.0206 19.4899C11.1106 19.5999 11.2006 19.6999 11.2806 19.7899C11.8606 20.4499 11.9706 20.5199 12.0806 20.5499C12.1906 20.5799 12.3106 20.5799 12.6306 20.5199C12.9406 20.4699 13.4506 20.3599 14.0906 20.1499C14.7306 19.9499 15.5006 19.6499 16.2306 19.2399C16.9606 18.8399 17.6506 18.3299 18.2306 17.8499C18.8006 17.3599 19.2606 16.9099 19.4406 16.5499C19.6306 16.1899 19.5406 15.9299 19.4306 15.5999C19.3806 15.4799 19.3406 15.3599 19.2906 15.2299L17.2406 14.8399C17.1406 14.8199 17.0506 14.8499 16.9706 14.9099ZM10.6806 19.7399L10.1806 20.1299C10.0706 20.2099 10.0206 20.3399 10.0506 20.4699C10.0806 20.5999 10.1806 20.6999 10.3106 20.7299L13.7106 21.5099C14.0906 21.5999 14.6006 21.3799 14.6906 21.3099L21.2706 16.1799C21.3806 16.0999 21.4206 15.9699 21.3906 15.8399C21.3606 15.7099 21.2506 15.6099 21.1206 15.5899L19.7806 15.3299C19.7906 15.3699 19.8106 15.4199 19.8206 15.4599C19.8906 15.6499 19.9606 15.8199 19.9706 16.0299C19.9906 16.2499 19.9606 16.4799 19.8206 16.7399C19.7106 16.9599 19.5206 17.1899 19.2906 17.4399C19.0706 17.6699 18.8006 17.9199 18.5006 18.1699C18.1906 18.4299 17.8406 18.6999 17.4606 18.9699C17.1306 19.1999 16.7906 19.4199 16.4306 19.6099C16.0806 19.8099 15.7206 19.9799 15.3806 20.1299C14.9706 20.2999 14.5806 20.4399 14.2206 20.5599C13.9306 20.6499 13.6706 20.7299 13.4406 20.7799C13.1406 20.8599 12.8906 20.9099 12.7006 20.9399C12.5306 20.9699 12.4006 20.9899 12.2906 20.9899C12.1606 20.9999 12.0606 20.9799 11.9606 20.9499C11.8506 20.9199 11.7506 20.8799 11.5706 20.7199C11.4406 20.5999 11.2606 20.4099 10.9606 20.0699C10.8706 19.9699 10.7806 19.8599 10.6806 19.7399Z" fill="#1974BF"/><path fill-rule="evenodd" clip-rule="evenodd" d="M25.54 16.5299C27.57 16.1099 29.13 13.4799 29.13 10.2899C29.13 7.13995 27.6 4.51995 25.59 4.06995C26.18 4.41995 26.7 4.93995 27.13 5.59995C27.93 6.79995 28.42 8.45995 28.42 10.2799C28.42 12.0999 27.93 13.7599 27.13 14.9699C26.69 15.6399 26.14 16.1799 25.54 16.5299Z" fill="#1974BF"/><path fill-rule="evenodd" clip-rule="evenodd" d="M23.7105 16.5199C26.0105 16.5199 27.8705 13.7099 27.8705 10.2299C27.8705 6.74993 26.0105 3.92993 23.7105 3.92993C22.2705 3.92993 20.9905 5.04993 20.2505 6.74993C20.5105 6.74993 20.8005 6.75993 21.0705 6.76993L21.7605 6.77993C21.9905 6.78993 22.1205 6.78993 22.2105 6.77993C22.2505 6.77993 22.2805 6.76993 22.3305 6.74993C22.3705 6.72993 22.4305 6.70993 22.4905 6.67993C22.6705 6.58993 22.8905 6.48993 23.1405 6.40993C23.3005 6.35993 23.4605 6.31993 23.6005 6.29993C23.7905 6.25993 23.9605 6.23993 24.1005 6.22993C24.2405 6.22993 24.3605 6.21993 24.4705 6.22993C24.5905 6.23993 24.6905 6.25993 24.8005 6.28993C24.9005 6.31993 25.0105 6.35993 25.1205 6.42993C25.2305 6.48993 25.3305 6.57993 25.4305 6.68993C25.5305 6.79993 25.6305 6.92993 25.7305 7.07993C25.8205 7.21993 25.9105 7.37993 26.0005 7.55993C26.0905 7.74993 26.1805 7.95993 26.2605 8.19993C26.3305 8.40993 26.4005 8.62993 26.4505 8.85993C26.5105 9.11993 26.5505 9.38993 26.5805 9.65993C26.6005 9.91993 26.6105 10.1899 26.6105 10.4599C26.6005 10.7399 26.5805 11.0099 26.5405 11.2799C26.4905 11.5499 26.4305 11.8199 26.3405 12.0799C26.2505 12.3499 26.1405 12.6199 26.0005 12.8699C25.8705 13.1199 25.7205 13.3499 25.5605 13.5599C25.3905 13.7699 25.2005 13.9499 25.0205 14.0999C24.8505 14.2499 24.6805 14.3699 24.5305 14.4799C24.3705 14.5899 24.2405 14.6799 24.1105 14.7399C23.9405 14.8199 23.7905 14.8699 23.6105 14.8799C23.4505 14.8799 23.2805 14.8599 23.1105 14.7999C22.9605 14.7599 22.8105 14.6899 22.6305 14.6199C22.4105 14.5199 22.4505 14.5299 22.4405 14.5299C22.1705 14.4099 21.8905 14.2799 21.6505 14.2099C21.3705 14.1199 21.1005 14.0999 20.8705 14.0799H20.8505C20.7105 14.0699 20.5805 14.0599 20.4305 14.0999C21.1905 15.5699 22.3805 16.5199 23.7105 16.5199ZM22.5405 6.01993C22.6905 6.01993 22.8105 5.76993 22.8105 5.46993C22.8105 5.16993 22.6905 4.91993 22.5405 4.91993C22.3905 4.91993 22.2605 5.16993 22.2605 5.46993C22.2605 5.76993 22.3905 6.01993 22.5405 6.01993ZM22.1905 15.5699C22.3305 15.5699 22.4405 15.3799 22.4405 15.1399C22.4405 14.8999 22.3305 14.7099 22.1905 14.7099C22.0605 14.7099 21.9405 14.8999 21.9405 15.1399C21.9405 15.3799 22.0605 15.5699 22.1905 15.5699ZM24.8005 15.7899C24.9405 15.7899 25.0505 15.5999 25.0505 15.3599C25.0505 15.1199 24.9405 14.9299 24.8005 14.9299C24.6705 14.9299 24.5605 15.1199 24.5605 15.3599C24.5605 15.5999 24.6705 15.7899 24.8005 15.7899ZM26.7405 13.2399C26.9205 13.2399 27.0605 13.0399 27.0605 12.7799C27.0605 12.5299 26.9205 12.3199 26.7405 12.3199C26.5705 12.3199 26.4205 12.5299 26.4205 12.7799C26.4205 13.0399 26.5705 13.2399 26.7405 13.2399ZM27.1105 9.12993C27.2905 9.12993 27.4405 8.90993 27.4405 8.64993C27.4405 8.37993 27.2905 8.16993 27.1105 8.16993C26.9205 8.16993 26.7705 8.37993 26.7705 8.64993C26.7705 8.90993 26.9205 9.12993 27.1105 9.12993ZM25.2605 5.99993C25.4205 5.99993 25.5505 5.76993 25.5505 5.47993C25.5505 5.18993 25.4205 4.94993 25.2605 4.94993C25.1005 4.94993 24.9705 5.18993 24.9705 5.47993C24.9705 5.76993 25.1005 5.99993 25.2605 5.99993ZM20.0805 7.16993C19.7505 8.06993 19.5605 9.11993 19.5605 10.2299C19.5605 11.5199 19.8105 12.7099 20.2505 13.7099C20.4905 13.6299 20.6705 13.6399 20.8905 13.6599C21.1405 13.6799 21.4405 13.6999 21.7705 13.7999C22.1105 13.9099 22.4905 14.0899 22.8005 14.2299C23.1205 14.3699 23.3705 14.4599 23.5905 14.4499C23.8205 14.4399 24.0105 14.3299 24.2905 14.1299C24.5705 13.9399 24.9305 13.6699 25.2305 13.2899C25.5305 12.9099 25.7805 12.4399 25.9405 11.9499C26.1005 11.4599 26.1805 10.9599 26.1905 10.4499C26.2005 9.93993 26.1405 9.41993 26.0405 8.95993C25.9305 8.48993 25.7805 8.07993 25.6205 7.74993C25.4505 7.40993 25.2805 7.14993 25.1205 6.97993C24.9705 6.80993 24.8305 6.73993 24.6805 6.68993C24.5305 6.64993 24.3705 6.63993 24.1305 6.65993C23.8905 6.66993 23.5705 6.71993 23.2705 6.80993C22.9705 6.90993 22.6705 7.05993 22.4905 7.13993C22.3205 7.20993 22.2505 7.20993 21.7605 7.19993C21.3405 7.19993 20.6105 7.17993 20.0805 7.16993Z" fill="#1974BF"/><path fill-rule="evenodd" clip-rule="evenodd" d="M8.37015 15.84C8.43015 15.53 8.69015 15.13 8.90015 14.7C9.12015 14.28 9.28015 13.82 9.40015 13.39C9.52015 12.95 9.59015 12.54 9.64015 12.09C9.70015 11.64 9.73015 11.17 9.76015 10.65C9.78015 10.12 9.80015 9.55002 9.78015 9.04002C9.76015 8.53002 9.71015 8.09002 9.67015 7.76002C9.62015 7.43002 9.58015 7.22002 9.57015 7.11002C9.55015 7.00002 9.55015 7.00002 9.81015 7.06002C10.0702 7.13002 10.5902 7.25002 11.0402 7.45002C11.4802 7.65002 11.8502 7.93002 12.2202 8.23002C12.5902 8.53002 12.9602 8.85002 13.2202 9.07002C13.4802 9.28002 13.6402 9.40002 13.8302 9.45002C14.0302 9.49002 14.2702 9.47003 14.5602 9.31002C14.8502 9.15002 15.1902 8.85002 15.5502 8.58002C15.9102 8.31002 16.3102 8.06002 16.6202 7.88002C16.9302 7.70002 17.1602 7.59002 17.5502 7.47002C17.9402 7.36002 18.4902 7.26002 18.8202 7.20002C19.1602 7.15002 19.2802 7.15002 19.8102 7.16002C20.3302 7.17002 21.2602 7.19002 21.7602 7.20002C22.2502 7.21002 22.3202 7.21002 22.4902 7.14002C22.6702 7.06002 22.9702 6.91002 23.2702 6.81002C23.5702 6.72002 23.8902 6.67002 24.1302 6.66002C24.3702 6.64002 24.5302 6.65002 24.6802 6.69002C24.8302 6.74002 24.9702 6.81002 25.1202 6.98002C25.2802 7.15002 25.4502 7.41002 25.6202 7.75002C25.7802 8.08002 25.9302 8.49002 26.0402 8.96002C26.1402 9.42002 26.2002 9.94002 26.1902 10.45C26.1802 10.96 26.1002 11.46 25.9402 11.95C25.7802 12.44 25.5302 12.91 25.2302 13.29C24.9302 13.67 24.5702 13.94 24.2902 14.13C24.0102 14.33 23.8202 14.44 23.5902 14.45C23.3702 14.46 23.1202 14.37 22.8002 14.23C22.4902 14.09 22.1102 13.91 21.7702 13.8C21.4402 13.7 21.1402 13.68 20.8902 13.66C20.6302 13.64 20.4202 13.62 20.1102 13.76C19.8002 13.9 19.4002 14.2 19.2002 14.35C19.0002 14.5 19.0002 14.5 19.0802 14.69C19.1602 14.89 19.3102 15.27 19.4302 15.6C19.5402 15.93 19.6302 16.19 19.4402 16.55C19.2602 16.91 18.8002 17.36 18.2302 17.85C17.6502 18.33 16.9602 18.84 16.2302 19.24C15.5002 19.65 14.7302 19.95 14.0902 20.15C13.4502 20.36 12.9402 20.47 12.6302 20.52C12.3102 20.58 12.1902 20.58 12.0802 20.55C11.9702 20.52 11.8602 20.45 11.2802 19.79C10.7002 19.13 9.64015 17.87 9.05015 17.13C8.45015 16.38 8.31015 16.16 8.37015 15.84Z" fill="#1974BF"/><path fill-rule="evenodd" clip-rule="evenodd" d="M17.1804 24.2499L18.3604 23.2899L18.0804 22.9199L16.9004 23.8699L17.1804 24.2499Z" fill="#1974BF"/><path fill-rule="evenodd" clip-rule="evenodd" d="M22.8298 19.9L23.9998 18.94L23.7198 18.58L22.5498 19.52L22.8298 19.9Z" fill="#1974BF"/></svg>