<svg width="30" height="30" fill="none" xmlns="http://www.w3.org/2000/svg"><path d="M19.7064 1.89294C19.7211 1.53318 17.589 1.15406 14.9443 1.04616C12.2996 0.93825 10.1438 1.14241 10.1291 1.50217C10.1144 1.86192 12.2465 2.24104 14.8912 2.34895C17.5359 2.45685 19.6917 2.25269 19.7064 1.89294Z" fill="#1974BF"/><path fill-rule="evenodd" clip-rule="evenodd" d="M6.4668 14.0654C9.69357 14.0654 12.2998 16.8149 12.2998 20.2039C12.2998 23.593 9.69357 26.3424 6.4668 26.3424C3.24957 26.3424 0.633789 23.593 0.633789 20.2039C0.633789 16.8149 3.24957 14.0654 6.4668 14.0654ZM6.4668 14.7432C9.33079 14.7432 11.6602 17.1872 11.6602 20.2039C11.6602 23.2207 9.33079 25.6646 6.4668 25.6646C3.6028 25.6646 1.28296 23.2207 1.28296 20.2039C1.28296 17.1872 3.6028 14.7432 6.4668 14.7432Z" fill="#1974BF"/><path d="M29.1244 21.3472C29.5672 18.055 29.2206 15.2912 28.3502 15.1741C27.4799 15.0571 26.4154 17.6311 25.9726 20.9233C25.5298 24.2156 25.8765 26.9794 26.7468 27.0965C27.6172 27.2135 28.6817 24.6395 29.1244 21.3472Z" fill="#1974BF"/><path fill-rule="evenodd" clip-rule="evenodd" d="M6.01855 13.4066C6.40042 13.2634 6.78229 13.1488 7.13551 13.0438C7.94698 12.8052 8.63434 12.6429 9.18805 12.5569C9.74175 12.4615 10.1714 12.4233 10.6582 12.4137C11.1451 12.4042 11.6988 12.4137 12.0234 12.5665C12.348 12.7288 12.453 13.0343 12.7871 13.7789C13.1213 14.5236 13.6845 15.7073 14.4101 16.9102C15.1356 18.1226 16.033 19.3542 16.8349 20.347C17.6368 21.3399 18.3624 22.0941 18.7538 22.5332C19.1452 22.9628 19.212 23.0869 19.1452 23.1633C19.0784 23.2397 18.8684 23.2778 18.4769 23.2969C18.0855 23.3256 17.4936 23.3351 16.7108 23.4019C15.9184 23.4783 14.9256 23.612 14.1237 23.7647C13.3122 23.9175 12.3384 24.1561 11.9852 24.2802C11.6224 24.4043 11.5938 24.4234 11.422 24.4903C12.2334 23.3256 12.9399 21.8649 12.9399 20.2706C12.9399 18.3804 12.243 16.6525 11.126 15.4018C9.98996 14.1417 8.42431 13.3684 6.69637 13.3684C6.46725 13.3684 6.24767 13.378 6.01855 13.4066Z" fill="#1974BF"/><path fill-rule="evenodd" clip-rule="evenodd" d="M9.55078 1.58789C9.59851 3.02944 9.65579 4.46143 9.84673 6.03663C10.0472 7.61183 10.3909 9.33023 10.8396 10.8959C11.2978 12.4615 11.8611 13.884 12.5389 15.3351C13.2167 16.7957 13.9995 18.285 15.0306 19.7074C16.0521 21.1204 17.3218 22.476 18.706 23.612C20.0998 24.7576 21.5987 25.6741 22.9447 26.3328C24.2908 27.0011 25.4746 27.3925 26.0665 27.5739C26.6584 27.7648 26.6584 27.7457 26.5056 27.6503C26.3624 27.5453 26.076 27.3543 25.8278 26.9056C25.5892 26.4474 25.4078 25.7314 25.3314 24.7576C25.2646 23.7743 25.3219 22.5428 25.4269 21.4449C25.5414 20.3566 25.7133 19.3924 25.9424 18.5428C26.1715 17.6836 26.4675 16.9294 26.7348 16.3375C26.9925 15.7456 27.2312 15.316 27.4603 15.0582C27.6799 14.7909 27.8899 14.6859 28.0522 14.6191C28.2145 14.5523 28.3291 14.5141 28.4723 14.5523C28.6059 14.5809 28.7587 14.6859 28.835 14.7336C28.9114 14.7909 28.9114 14.7909 28.8255 14.7336C28.7396 14.6668 28.5677 14.5523 28.3291 14.4759C28.0904 14.3995 27.7849 14.3613 27.4794 14.304C27.1835 14.2372 26.8971 14.1513 26.2574 13.7694C25.6274 13.3876 24.6536 12.7002 23.8899 11.9747C23.1261 11.2491 22.582 10.4758 22.0665 9.5689C21.5509 8.66196 21.0736 7.61183 20.7872 6.51397C20.5103 5.40655 20.4244 4.24186 20.3958 3.46858C20.3671 2.70485 20.4053 2.32298 20.4244 2.13205C20.434 1.95066 20.434 1.95066 20.3481 2.04613C20.2526 2.15114 20.0617 2.36117 19.6798 2.49482C19.2884 2.62847 18.706 2.70485 17.9137 2.74303C17.1213 2.79077 16.1093 2.80031 15.1165 2.76213C14.1236 2.71439 13.1403 2.61893 12.4148 2.53301C11.6892 2.44709 11.2119 2.38026 10.8396 2.29434C10.4768 2.20842 10.2191 2.10341 10.0186 1.9793C9.82764 1.86474 9.68444 1.72154 9.55078 1.58789Z" fill="#1974BF"/><path fill-rule="evenodd" clip-rule="evenodd" d="M11.4597 13.9794C11.6697 14.5808 12.0325 15.4114 12.4621 16.2706C12.9012 17.1393 13.4072 18.0367 13.9514 18.8577C14.4955 19.6692 15.0683 20.3948 15.5839 21.0057C16.1089 21.6072 16.5767 22.0845 16.8917 22.39C17.2163 22.705 17.3977 22.8578 17.0922 22.4091C16.7867 21.9604 15.9944 20.9198 15.3929 20.0988C14.7819 19.2778 14.3619 18.6764 13.8464 17.7885C13.3308 16.9007 12.7103 15.7264 12.2521 14.8195C11.7843 13.903 11.4692 13.2443 11.3356 13.1107C11.2019 12.977 11.2497 13.3684 11.4597 13.9794Z" fill="#FEFEFE"/></svg>