<svg width="30" height="30" fill="none" xmlns="http://www.w3.org/2000/svg"><path fill-rule="evenodd" clip-rule="evenodd" d="M3.26986 2.94005C3.60986 3.53005 4.13986 4.61005 4.39986 5.15005C4.66986 5.70005 4.66986 5.70005 4.54986 6.10005C4.43986 6.50005 4.20986 7.30005 4.08986 7.70005C3.97986 8.11005 3.97986 8.11005 3.71986 8.13005C3.45986 8.16005 2.92986 8.20005 2.66986 8.23005C2.40986 8.25005 2.40986 8.25005 2.73986 8.31005C3.06986 8.36005 3.73986 8.47005 4.06986 8.52005C4.40986 8.57005 4.40986 8.57005 4.63986 8.43005C4.87986 8.28005 5.35986 7.98005 5.59986 7.83005C5.82986 7.69005 5.82986 7.69005 5.93986 7.20005C6.04986 6.72005 6.25986 5.76005 6.36986 5.28005C6.46986 4.80005 6.46986 4.80005 6.16986 4.24005C5.86986 3.68005 5.25986 2.55005 4.94986 1.98005C4.64986 1.42005 4.64986 1.42005 4.22986 1.39005C3.80986 1.36005 2.97986 1.30005 2.55986 1.28005C2.14986 1.25005 2.14986 1.25005 1.91986 1.35005C1.69986 1.45005 1.24986 1.66005 1.01986 1.76005C0.799855 1.86005 0.799855 1.86005 0.799855 1.86005C0.799855 1.86005 0.799855 1.86005 0.699855 2.12005C0.609855 2.37005 0.429855 2.88005 0.329855 3.13005C0.239855 3.39005 0.239855 3.39005 0.379855 3.17005C0.519855 2.96005 0.799855 2.52005 0.929855 2.31005C1.06986 2.09005 1.06986 2.09005 1.32986 2.10005C1.57986 2.10005 2.09986 2.12005 2.42986 2.18005C2.76986 2.23005 2.91986 2.34005 3.26986 2.94005Z" fill="#1974BF"/><path d="M3.15669 7.78492C3.77653 7.56731 3.88853 6.27867 3.40685 4.90665C2.92517 3.53464 2.03221 2.59881 1.41236 2.81643C0.792521 3.03404 0.680519 4.32269 1.1622 5.6947C1.64388 7.06671 2.53685 8.00254 3.15669 7.78492Z" fill="#1974BF"/><path fill-rule="evenodd" clip-rule="evenodd" d="M26.66 27.64C26.32 27.65 25.43 27.57 24.99 27.53C24.55 27.49 24.55 27.49 24.37 27.37C24.2 27.25 23.85 27.01 23.68 26.89C23.51 26.77 23.51 26.77 23.37 26.27C23.23 25.78 22.96 24.78 22.82 24.28C22.69 23.79 22.69 23.79 23.06 23.29C23.43 22.79 24.18 21.78 24.56 21.28C24.93 20.78 24.93 20.78 25.41 20.78C25.9 20.77 26.86 20.77 27.35 20.76C27.83 20.76 27.83 20.76 28 20.9C28.17 21.04 28.51 21.33 28.68 21.47C28.85 21.61 28.85 21.61 28.96 21.99C29.07 22.37 29.29 23.13 29.37 23.45C29.44 23.77 29.36 23.65 29.19 23.29C29.01 22.94 28.74 22.34 28.59 22.04C28.45 21.74 28.43 21.74 28.02 21.74C27.62 21.73 26.82 21.73 26.42 21.72C26.02 21.72 26.02 21.72 25.71 22.07C25.4 22.42 24.79 23.12 24.45 23.54C24.11 23.96 24.05 24.1 24.13 24.62C24.21 25.15 24.44 26.06 24.55 26.53C24.65 27 24.65 27.03 24.98 27.11C25.31 27.18 25.97 27.31 26.4 27.42C26.82 27.53 27.01 27.63 26.66 27.64Z" fill="#1974BF"/><path d="M25.6026 26.8679C26.4898 27.0459 27.6781 26.1367 28.2568 24.8371C28.8355 23.5374 28.5854 22.3395 27.6982 22.1614C26.811 21.9834 25.6227 22.8926 25.044 24.1922C24.4653 25.4918 24.7154 26.6898 25.6026 26.8679Z" fill="#1974BF"/><path d="M5.98981 2.78003C7.46981 2.83003 8.94981 2.90003 10.4298 3.07003C11.3498 3.18003 12.2498 3.32003 13.1498 3.51003C13.9998 3.68003 14.8498 3.90003 15.6898 4.17003C16.5098 4.42003 17.2998 4.72003 18.0298 5.03003C18.8398 5.38003 19.5498 5.73003 20.0898 6.05003C20.6898 6.40003 21.1598 6.75003 21.5398 7.10003C21.9598 7.47003 22.2598 7.85003 22.4998 8.23003C22.7798 8.68003 22.9798 9.15003 23.0498 9.68003C23.1298 10.26 23.0498 10.85 22.7598 11.46C22.5398 11.94 22.1798 12.42 21.6798 12.91C21.2698 13.31 20.7598 13.71 20.1498 14.11C19.5098 14.53 18.7498 14.95 17.8798 15.33C17.1198 15.65 16.2898 15.95 15.3798 16.17C14.4098 16.41 13.3498 16.58 12.2998 16.68C11.2498 16.77 10.1698 16.79 9.13981 16.73C8.18981 16.68 7.30981 16.55 6.50981 16.38C5.58981 16.19 4.77981 15.93 4.07981 15.65C3.35981 15.36 2.72981 15.03 2.23981 14.68C1.59981 14.21 1.14981 13.67 0.929809 13.06C0.629809 12.19 0.799809 11.38 1.37981 10.66C1.75981 10.2 2.31981 9.80003 3.02981 9.48003C3.58981 9.23003 4.27981 9.02003 5.01981 8.86003C5.75981 8.70003 6.55981 8.58003 7.38981 8.51003C8.18981 8.44003 9.04981 8.41003 9.97981 8.43003C10.8398 8.45003 11.7198 8.51003 12.5998 8.63003C13.4698 8.74003 14.3298 8.90003 15.1198 9.08003C15.9898 9.27003 16.8098 9.50003 17.4798 9.73003C18.2498 10 18.7998 10.25 19.2498 10.49C19.2598 10.48 19.2798 10.46 19.2898 10.45C19.4398 10.3 19.5398 10.18 19.6098 10.07C19.5998 10.07 19.5998 10.06 19.5898 10.05C19.5098 9.92003 19.3998 9.79003 19.2398 9.64003C19.0398 9.46003 18.7498 9.25003 18.3598 9.02003C17.8798 8.74003 17.3098 8.45003 16.6798 8.19003C16.0598 7.92003 15.3698 7.66003 14.6698 7.44003C13.9598 7.22003 13.2298 7.03003 12.4498 6.87003C11.6698 6.71003 10.8698 6.58003 10.0498 6.49003C8.94981 6.36003 7.92981 6.30003 6.76981 6.25003C6.86981 5.86003 6.96981 5.36003 7.01981 5.00003C7.06981 4.64003 6.89981 4.49003 6.71981 4.17003C6.54981 3.84003 6.24981 3.31003 6.04981 2.91003C6.02981 2.87003 6.00981 2.82003 5.98981 2.78003ZM14.5498 12.84C16.8198 12.48 18.4498 11.01 18.6798 10.95C18.3998 10.87 14.4298 12.44 14.1198 12.37C13.3998 12.21 12.8998 12.13 12.1598 12.03C11.3898 11.93 10.6298 11.87 9.89981 11.86C9.16981 11.84 8.42981 11.87 7.68981 11.93C6.98981 12 6.32981 12.09 5.74981 12.22C5.52981 12.27 5.31981 12.32 5.12981 12.37C5.20981 12.4 5.27981 12.43 5.34981 12.46C5.89981 12.68 6.52981 12.88 7.22981 13.03C7.86981 13.17 8.56981 13.27 9.32981 13.31C10.1498 13.36 11.0598 13.34 11.9998 13.25C12.8798 13.17 13.7598 13.03 14.5498 12.84Z" fill="#1974BF"/><path d="M18.1696 13.8201C17.4496 13.2401 17.5896 12.9101 18.1596 12.1801C18.7296 11.4201 19.5396 10.5601 20.2896 11.1301C20.3096 11.1501 20.3196 11.1601 20.3396 11.1701C21.6396 12.2301 22.9396 13.3001 23.7996 14.5301C24.2796 15.2301 24.5996 15.9501 24.7596 16.7001C24.9296 17.4601 24.9396 18.2201 24.8096 18.9801C24.6696 19.7401 24.3996 20.5101 23.8996 21.2601C23.4296 21.9801 22.7696 22.6701 21.8396 23.2901C21.0496 23.8101 20.0796 24.2801 19.0396 24.6801C17.8996 25.1201 16.6496 25.4901 15.4496 25.7801C14.3496 26.0501 13.2896 26.2501 12.2896 26.3701C11.2596 26.5001 10.2896 26.5501 9.40961 26.5301C8.51961 26.5001 7.73961 26.4001 7.03961 26.2501C6.32961 26.0901 5.71961 25.9001 5.16961 25.6901C4.56961 25.4501 4.01961 25.1901 3.58961 24.8901C2.85961 24.3501 2.40961 23.6801 2.39961 22.7901C2.38961 22.0001 2.76961 21.2301 3.52961 20.5601C4.00961 20.1501 4.67961 19.7401 5.52961 19.3601C6.36961 18.9901 7.44961 18.6301 8.68961 18.3501C9.73961 18.1201 10.9196 17.9501 12.1796 17.8801C13.5196 17.8001 14.9296 17.8401 16.3896 17.9401C17.8996 18.0401 19.3196 18.1901 20.7396 18.3401C20.9796 18.3601 21.1996 18.4301 21.3896 18.5401C21.4096 18.4901 21.4196 18.4401 21.4196 18.3901C21.4796 18.0601 21.4796 17.7401 21.4196 17.4401C21.3496 17.1301 21.1996 16.8101 20.9796 16.4801C20.4096 15.6601 19.2896 14.7401 18.1696 13.8201ZM14.6496 22.4501C15.4196 22.2601 16.2196 22.0201 16.9896 21.7701C19.4796 20.9901 20.4296 19.6601 20.6796 19.5601C20.4096 19.5301 16.6996 21.4001 16.4296 21.3801C16.1596 21.3601 16.4196 21.3801 16.1596 21.3601C14.8196 21.2701 13.5296 21.2301 12.3596 21.3001C11.2996 21.3601 10.3096 21.5001 9.42961 21.7001C8.43961 21.9201 7.58961 22.2001 6.91961 22.5001C6.83961 22.5301 6.76961 22.5701 6.69961 22.6001C7.01961 22.7101 7.36961 22.8101 7.74961 22.8901C8.26961 23.0101 8.84961 23.0801 9.50961 23.1001C10.1996 23.1201 10.9996 23.0801 11.8596 22.9701C12.7296 22.8601 13.6596 22.6901 14.6496 22.4501Z" fill="#1974BF"/></svg>