<svg width="30" height="31" fill="none" xmlns="http://www.w3.org/2000/svg"><path fill-rule="evenodd" clip-rule="evenodd" d="M6.09031 26.4301C6.08031 26.3501 6.07031 26.2701 6.07031 26.1901C6.11031 26.2201 6.17031 26.2501 6.22031 26.2801C6.31031 26.3401 6.41031 26.3801 6.52031 26.4201H6.53031C6.39031 26.4201 6.25031 26.4201 6.09031 26.4301Z" fill="#FFED00"/><path fill-rule="evenodd" clip-rule="evenodd" d="M23.7004 3.06995C26.3504 3.82995 26.8304 9.41995 23.2504 16.2099C19.3804 23.5199 13.0304 29.4399 9.06039 29.4399C8.27039 29.4399 7.63039 29.1999 7.15039 28.7699C11.0304 28.3899 17.3204 22.6399 21.4804 14.7799C24.0904 9.84995 24.5304 5.65995 23.7004 3.06995Z" fill="#1974BF"/><path fill-rule="evenodd" clip-rule="evenodd" d="M9.94023 22.4C9.28023 22.75 8.65023 22.94 8.09023 22.94C7.64023 22.94 7.26023 22.81 6.97023 22.57C6.79023 22.88 6.62023 23.16 6.44023 23.4C6.24023 23.68 6.04023 23.91 5.85023 24.08C5.67023 24.25 5.49023 24.37 5.33023 24.45C5.17023 24.53 5.01023 24.58 4.87023 24.61C4.72023 24.64 4.58023 24.65 4.44023 24.65C4.30023 24.64 4.16023 24.62 4.02023 24.57C3.93023 24.55 3.83023 24.51 3.74023 24.48C3.75023 24.49 3.77023 24.49 3.78023 24.5C3.87023 24.55 3.97023 24.59 4.07023 24.63C4.17023 24.66 4.29023 24.68 4.44023 24.7C4.68023 24.72 4.99023 24.72 5.46023 24.71C5.56023 24.71 5.67023 24.71 5.79023 24.71C5.93023 24.71 6.09023 24.71 6.26023 24.7C6.84023 24.7 7.48023 24.7 7.88023 24.68C8.13023 24.67 8.29023 24.65 8.40023 24.62C8.51023 24.59 8.58023 24.54 8.67023 24.46C8.75023 24.38 8.86023 24.27 8.98023 24.11C9.11023 23.94 9.25023 23.72 9.42023 23.41C9.58023 23.13 9.76023 22.79 9.94023 22.4Z" fill="#1974BF" stroke="#2B2A29" stroke-width="0.02" stroke-miterlimit="22.9256"/><path fill-rule="evenodd" clip-rule="evenodd" d="M8.87012 9.87C9.60012 8.85 10.3501 7.89 11.1301 7C11.2701 7.37 11.4001 7.8 11.5201 8.25C11.6001 8.58 11.6801 8.92 11.7401 9.28C10.8401 10.17 9.95012 11.25 9.15012 12.45C9.13012 11.88 9.08012 11.33 9.01012 10.79C8.97012 10.48 8.93012 10.17 8.87012 9.87Z" fill="#1974BF" stroke="#2B2A29" stroke-width="0.02" stroke-miterlimit="22.9256"/><path fill-rule="evenodd" clip-rule="evenodd" d="M20.7898 1.63C23.9898 1.63 24.3198 7.98 20.4598 15.29C16.5998 22.6 9.6798 28.09 6.7998 28.09C3.9098 28.09 3.9898 26.87 3.7998 24.84C3.8498 24.87 3.8998 24.91 3.9498 24.93C4.0498 24.99 4.1398 25.04 4.2598 25.07C4.3698 25.11 4.4898 25.13 4.6398 25.14C4.8898 25.17 5.1998 25.16 5.6698 25.16C5.7698 25.16 5.8798 25.16 5.9998 25.16C6.1498 25.16 6.3098 25.15 6.4798 25.15C7.0498 25.15 7.6998 25.15 8.0998 25.13C8.35981 25.12 8.5298 25.1 8.6498 25.06C8.7798 25.03 8.8598 24.97 8.9598 24.88C9.0598 24.8 9.1698 24.68 9.2998 24.51C9.4298 24.34 9.58981 24.11 9.7698 23.8C9.95981 23.49 10.1698 23.09 10.3898 22.65C12.6198 21.43 15.2498 18.55 17.0298 15.19C19.3898 10.73 19.3398 7.11 16.9098 7.11C16.4398 7.11 15.9098 7.25 15.3498 7.5H15.3198C14.8398 7.46 14.3198 7.42 13.8898 7.4C13.0798 7.35 12.5698 7.33001 12.0598 7.32L11.9998 7.19C15.0998 3.79 17.5898 1.63 20.7898 1.63ZM8.1298 25.64C8.2798 26.01 8.0398 26.68 7.6098 27.12C7.1798 27.56 6.71981 27.61 6.5698 27.23C6.4298 26.85 6.6698 26.19 7.0998 25.75C7.5298 25.31 7.9898 25.26 8.1298 25.64ZM16.8098 4.71C16.9498 5.09 16.7198 5.75 16.2898 6.19C15.8598 6.63 15.3898 6.68001 15.2498 6.3C15.1098 5.92 15.3398 5.26 15.7698 4.82C16.1998 4.38 16.6698 4.33 16.8098 4.71ZM20.1298 12.78C20.4598 13.18 20.2898 14 19.7698 14.61C19.2398 15.21 18.5498 15.38 18.2298 14.97C17.9098 14.57 18.0698 13.76 18.5998 13.15C19.1198 12.55 19.8098 12.38 20.1298 12.78Z" fill="#1974BF"/><path d="M4.389 20.5089C5.84264 20.5707 7.13733 17.7455 7.28077 14.1987C7.4242 10.6519 6.36207 7.72657 4.90842 7.66481C3.45478 7.60305 2.16009 10.4282 2.01665 13.975C1.87322 17.5218 2.93535 20.4471 4.389 20.5089Z" fill="#1974BF"/><path d="M4.29864 21.7926C5.99559 21.8699 7.52308 18.4323 7.71037 14.1145C7.89767 9.79669 6.67385 6.23372 4.9769 6.15638C3.27995 6.07905 1.75246 9.51663 1.56517 13.8344C1.37787 18.1522 2.60169 21.7152 4.29864 21.7926Z" stroke="#1974BF" stroke-width="0.344011" stroke-miterlimit="22.9256"/><path d="M4.3827 23.3999C6.40085 23.4929 8.21746 19.3585 8.44021 14.1654C8.66296 8.97231 7.2075 4.68708 5.18935 4.59407C3.17119 4.50106 1.35458 8.63549 1.13183 13.8286C0.909086 19.0217 2.36455 23.3069 4.3827 23.3999Z" stroke="#1974BF" stroke-width="0.411431" stroke-miterlimit="22.9256"/><path fill-rule="evenodd" clip-rule="evenodd" d="M4.40013 3.72006C4.37013 3.75006 4.63013 3.63006 4.92013 3.58006C5.22013 3.53006 5.55013 3.55006 5.83013 3.62006C6.11013 3.68006 6.33013 3.80006 6.53013 3.94006C6.73013 4.09006 6.91013 4.28006 7.13013 4.63006C7.36013 4.99006 7.64013 5.51006 7.91013 6.29006C8.19013 7.06006 8.47013 8.08006 8.68013 9.15006C8.90013 10.2201 9.06013 11.3401 9.09013 12.5201C9.13013 13.6901 9.05013 14.9201 8.87013 16.1701C8.68013 17.4201 8.39013 18.6801 8.05013 19.7701C7.72013 20.8501 7.36013 21.7401 6.97013 22.4601C6.58013 23.1701 6.17013 23.7101 5.81013 24.0401C5.45013 24.3701 5.14013 24.5001 4.86013 24.5501C4.57013 24.6101 4.31013 24.6001 4.03013 24.5201C3.76013 24.4401 3.46013 24.2901 3.41013 24.2901C3.36013 24.2901 3.56013 24.4401 3.75013 24.5501C3.95013 24.6601 4.14013 24.7201 4.43013 24.7501C4.73013 24.7801 5.13013 24.7701 5.79013 24.7601C6.45013 24.7601 7.36013 24.7601 7.88013 24.7401C8.40013 24.7101 8.52013 24.6701 8.70013 24.5001C8.88013 24.3401 9.12013 24.0501 9.47013 23.4401C9.82013 22.8201 10.2801 21.8701 10.6701 20.8701C11.0601 19.8601 11.3801 18.8101 11.6101 17.5601C11.8401 16.3101 11.9801 14.8701 12.0301 13.5501C12.0801 12.2301 12.0501 11.0301 11.8901 9.88006C11.7301 8.73006 11.4501 7.63006 11.1001 6.79006C10.7601 5.95006 10.3601 5.38006 9.96013 4.92006C9.55013 4.46006 9.14013 4.12006 8.87013 3.94006C8.60013 3.75006 8.47013 3.73006 8.13013 3.67006C7.79013 3.62006 7.25013 3.53006 6.70013 3.46006C6.15013 3.39006 5.61013 3.34006 5.18013 3.41006C4.74013 3.49006 4.43013 3.68006 4.40013 3.72006Z" fill="#1974BF"/><path fill-rule="evenodd" clip-rule="evenodd" d="M12.2298 7.93005C12.3798 8.52005 12.5298 9.10005 12.6198 9.93005C12.7098 10.7601 12.7398 11.8301 12.7298 12.8101C12.7298 13.7801 12.6898 14.6501 12.5898 15.5701C12.4898 16.4801 12.3198 17.4501 12.1398 18.2901C11.9498 19.1301 11.7498 19.8501 11.6198 20.3101C11.4798 20.7601 11.4098 20.9401 11.3398 21.1301C12.1798 20.2601 13.0098 19.3901 13.8198 18.3901C14.6298 17.4001 15.4098 16.2801 15.9798 15.3101C16.5498 14.3401 16.8998 13.5001 17.1898 12.6501C17.4698 11.8001 17.6898 10.9301 17.7398 10.2301C17.7898 9.52005 17.6898 8.97005 17.5598 8.66005C17.4298 8.36005 17.2698 8.30005 16.6298 8.22005C15.9898 8.15005 14.8698 8.06005 14.0498 8.01005C13.2398 7.96005 12.7298 7.94005 12.2298 7.93005Z" fill="#1974BF"/><path fill-rule="evenodd" clip-rule="evenodd" d="M21.0703 21.07H21.6703C22.4403 21.08 23.9203 21.08 24.6603 21.09C25.4003 21.09 25.4003 21.09 25.6803 20.92C25.9603 20.76 26.5103 20.42 27.0203 19.93C27.5303 19.44 27.9903 18.79 28.3303 18.09C28.6603 17.39 28.8603 16.65 28.9603 15.59C29.0703 14.53 29.0803 13.16 28.9303 12.15C28.7703 11.14 28.4503 10.49 28.1703 10.03C27.8903 9.57003 27.6603 9.28003 27.4403 9.08003C27.2203 8.88003 27.0303 8.77003 26.8703 8.68003C26.7503 8.62003 26.6403 8.57003 26.5403 8.53003C26.3603 10.72 25.5703 13.44 24.0103 16.38C23.1403 18.03 22.1403 19.61 21.0703 21.07Z" fill="#1974BF"/></svg>