<svg width="36" height="26" fill="none" xmlns="http://www.w3.org/2000/svg"><path d="M23.3619 1.66481L22.0558 2.97098H20.9862H19.9117V2.62595V2.28093H19.3597C18.9456 2.276 18.8273 2.26614 18.8914 2.22671C19.0935 2.10842 19.0836 1.70425 18.8766 1.59088C18.8273 1.56131 18.4379 1.54159 18.0141 1.54159C17.255 1.54159 17.2451 1.54159 17.117 1.66974C17.0184 1.76832 16.9987 1.82254 17.0233 1.95069C17.0381 2.03448 17.0923 2.14292 17.1367 2.19221C17.2106 2.276 17.1959 2.28093 16.6931 2.28093H16.1657V2.62595V2.97098H14.9532H13.7358L13.3513 3.3505L12.9619 3.73496L13.3612 4.13913C13.583 4.36586 13.7752 4.54823 13.79 4.54823C13.7998 4.54823 13.9083 4.45951 14.0266 4.35107L14.2434 4.15392H15.2046H16.1657V4.4743V4.79468H18.0387H19.9117V4.48416V4.17856L21.2228 4.17363H22.5289L23.845 2.85761L25.161 1.54159H30.2033H35.2406V0.95012V0.35865H29.9519H24.6681L23.3619 1.66481Z" fill="#1974BF"/><path d="M18.0159 5.29263C16.3351 5.45036 14.9304 5.57851 14.8909 5.57851C14.8416 5.58344 14.8318 5.64259 14.8614 5.86439C14.8811 6.02211 14.9008 6.15519 14.9008 6.16012C14.9156 6.17491 21.2 5.5933 21.2197 5.57358C21.264 5.52922 21.1753 4.99197 21.126 4.9969C21.0964 5.00183 19.6966 5.13491 18.0159 5.29263Z" fill="#1974BF"/><path d="M17.8816 6.46575C16.2402 6.61854 14.8799 6.75655 14.8601 6.77134C14.8454 6.79106 14.8454 6.91921 14.8651 7.05722C14.8947 7.28888 14.9094 7.30859 15.0277 7.30859C15.1707 7.30859 21.2135 6.76148 21.2283 6.7467C21.2332 6.74177 21.2234 6.61362 21.2086 6.45589C21.179 6.17987 21.179 6.17494 21.0262 6.17987C20.9424 6.1848 19.5278 6.31295 17.8816 6.46575Z" fill="#1974BF"/><path d="M17.892 7.63387C16.3591 7.77681 15.043 7.89511 14.9642 7.89511L14.8262 7.90004L14.8607 8.18098C14.8804 8.33871 14.9001 8.47179 14.91 8.48165C14.9346 8.50629 21.1697 7.93454 21.1993 7.90496C21.2141 7.89018 21.219 7.7571 21.2042 7.61416L21.1845 7.35785L20.9331 7.36278C20.7902 7.36771 19.4249 7.48601 17.892 7.63387Z" fill="#1974BF"/><path d="M14.1954 9.67435C14.1954 10.187 14.1757 10.6108 14.151 10.6108C14.1313 10.6108 13.8701 10.7735 13.5743 10.9657C12.9286 11.3945 11.9379 12.3557 11.514 12.9619L11.2331 13.371L9.89242 13.3809L8.55176 13.3957L8.78835 17.5853C8.92143 19.8871 9.03479 21.8044 9.04465 21.8389C9.06437 21.8882 9.30588 21.8981 10.1389 21.8882L11.2134 21.8734L11.4993 22.2776C13.5546 25.1561 17.2267 26.344 20.5931 25.2251C22.2098 24.6829 23.7082 23.5542 24.6447 22.1593L24.8172 21.903L25.7685 21.8981H26.7148V21.6368C26.7148 21.4988 26.6508 20.2715 26.5719 18.9161C26.4881 17.5606 26.3846 15.7566 26.3402 14.9089L26.2515 13.371L25.5319 13.3661H24.8172L24.5362 12.9619C23.9694 12.1487 23.1808 11.3995 22.2887 10.8376L21.8352 10.5468V10.0391V9.52648H21.6725C21.4261 9.52648 14.6735 9.0878 14.5897 9.06316C14.5503 9.0533 16.162 9.04344 18.1779 9.03852L21.8352 9.03359V8.88572V8.73785H18.0153H14.1954V9.67435Z" fill="#1974BF"/><path d="M0.394314 11.5325L0.0345024 12.3557L0.0936495 12.6563C0.177441 13.1147 0.379527 13.6963 0.611186 14.1596L0.818201 14.5786L0.586541 15.0715C0.167583 15.9538 0 16.6783 0 17.6395C0 18.571 0.18237 19.3597 0.606257 20.2419L0.818201 20.6855L0.606257 21.1045C0.369669 21.5777 0.18237 22.1248 0.0936495 22.598L0.0394314 22.9085L0.384456 23.6971L0.72948 24.4857L4.16987 24.5005L7.61518 24.5104L7.97006 23.6971L8.32495 22.8789L8.20665 22.4008C8.07357 21.8586 7.96513 21.5629 7.7039 21.0306L7.52646 20.6707L7.65461 20.4292C7.72855 20.2962 7.86656 19.9807 7.96513 19.7293C8.56646 18.1718 8.49746 16.629 7.75319 15.0419L7.53139 14.5687L7.72855 14.1794C7.95035 13.7358 8.15243 13.1541 8.25101 12.681C8.3003 12.4197 8.3003 12.331 8.25101 12.2127C8.21651 12.1289 8.05878 11.7642 7.89613 11.3995L7.60532 10.734L4.17972 10.7193L0.754125 10.7094L0.394314 11.5325Z" fill="#1974BF"/><path d="M27.6013 10.9164C27.552 11.0347 27.3893 11.4044 27.2415 11.7395L26.9753 12.3557L27.0443 12.7204C27.1281 13.1739 27.3055 13.6717 27.5618 14.1843L27.7541 14.5737L27.5323 15.0469C27.138 15.8897 26.9704 16.5403 26.926 17.4127C26.8817 18.3246 27.1281 19.4336 27.5766 20.3208L27.7541 20.6707L27.5372 21.1242C27.2908 21.6368 27.1429 22.0656 27.0394 22.5536L26.9704 22.8838L27.3203 23.6971L27.6703 24.5104L31.1156 24.5005L34.556 24.4857L34.9059 23.6971L35.251 22.9085L35.1918 22.6127C35.0982 22.1445 34.8665 21.4643 34.6595 21.0503L34.4673 20.6757L34.6792 20.2469C35.0982 19.3843 35.2855 18.5858 35.2904 17.6197C35.2904 16.6685 35.0637 15.732 34.6299 14.9187L34.4574 14.5934L34.6447 14.2139C34.8862 13.7407 35.0587 13.2577 35.1672 12.7598L35.2559 12.3754L34.8961 11.5424L34.5363 10.7094H31.1156H27.6949L27.6013 10.9164Z" fill="#1974BF"/><rect x="14" y="16" width="8" height="3" rx="1.5" fill="white"/></svg>